G04 EAGLE Gerber RS-274X export*
G75*
%MOMM*%
%FSLAX34Y34*%
%LPD*%
%INSoldermask Top*%
%IPPOS*%
%AMOC8*
5,1,8,0,0,1.08239X$1,22.5*%
G01*
%ADD10C,0.787400*%
%ADD11C,3.454400*%
%ADD12R,4.200000X1.700000*%
%ADD13C,0.250366*%
%ADD14C,0.253525*%
%ADD15R,2.850000X1.700000*%
%ADD16R,1.700000X2.850000*%
%ADD17C,0.449434*%
%ADD18C,0.243431*%
%ADD19C,0.255816*%
%ADD20C,2.032000*%
%ADD21C,1.152400*%
%ADD22C,1.270000*%
%ADD23C,1.652400*%

G36*
X1277402Y1110883D02*
X1277402Y1110883D01*
X1277446Y1110886D01*
X1277468Y1110902D01*
X1277494Y1110910D01*
X1277523Y1110943D01*
X1277558Y1110969D01*
X1277568Y1110995D01*
X1277586Y1111015D01*
X1277593Y1111059D01*
X1277608Y1111099D01*
X1277603Y1111126D01*
X1277607Y1111153D01*
X1277589Y1111194D01*
X1277580Y1111236D01*
X1277554Y1111272D01*
X1277550Y1111281D01*
X1277545Y1111285D01*
X1277536Y1111296D01*
X1253536Y1135296D01*
X1253498Y1135317D01*
X1253465Y1135346D01*
X1253438Y1135350D01*
X1253414Y1135363D01*
X1253370Y1135360D01*
X1253327Y1135367D01*
X1253302Y1135356D01*
X1253274Y1135354D01*
X1253239Y1135328D01*
X1253199Y1135310D01*
X1253184Y1135287D01*
X1253162Y1135271D01*
X1253146Y1135230D01*
X1253122Y1135194D01*
X1253115Y1135150D01*
X1253112Y1135141D01*
X1253113Y1135134D01*
X1253111Y1135120D01*
X1253111Y1111120D01*
X1253116Y1111104D01*
X1253113Y1111087D01*
X1253135Y1111037D01*
X1253150Y1110986D01*
X1253163Y1110975D01*
X1253170Y1110959D01*
X1253215Y1110929D01*
X1253255Y1110894D01*
X1253272Y1110891D01*
X1253287Y1110882D01*
X1253360Y1110871D01*
X1277360Y1110871D01*
X1277402Y1110883D01*
G37*
G36*
X865922Y1110883D02*
X865922Y1110883D01*
X865966Y1110886D01*
X865988Y1110902D01*
X866014Y1110910D01*
X866043Y1110943D01*
X866078Y1110969D01*
X866088Y1110995D01*
X866106Y1111015D01*
X866113Y1111059D01*
X866128Y1111099D01*
X866123Y1111126D01*
X866127Y1111153D01*
X866109Y1111194D01*
X866100Y1111236D01*
X866074Y1111272D01*
X866070Y1111281D01*
X866065Y1111285D01*
X866056Y1111296D01*
X842056Y1135296D01*
X842018Y1135317D01*
X841985Y1135346D01*
X841958Y1135350D01*
X841934Y1135363D01*
X841890Y1135360D01*
X841847Y1135367D01*
X841822Y1135356D01*
X841794Y1135354D01*
X841759Y1135328D01*
X841719Y1135310D01*
X841704Y1135287D01*
X841682Y1135271D01*
X841666Y1135230D01*
X841642Y1135194D01*
X841635Y1135150D01*
X841632Y1135141D01*
X841633Y1135134D01*
X841631Y1135120D01*
X841631Y1111120D01*
X841636Y1111104D01*
X841633Y1111087D01*
X841655Y1111037D01*
X841670Y1110986D01*
X841683Y1110975D01*
X841690Y1110959D01*
X841735Y1110929D01*
X841775Y1110894D01*
X841792Y1110891D01*
X841807Y1110882D01*
X841880Y1110871D01*
X865880Y1110871D01*
X865922Y1110883D01*
G37*
G36*
X454442Y1110883D02*
X454442Y1110883D01*
X454486Y1110886D01*
X454508Y1110902D01*
X454534Y1110910D01*
X454563Y1110943D01*
X454598Y1110969D01*
X454608Y1110995D01*
X454626Y1111015D01*
X454633Y1111059D01*
X454648Y1111099D01*
X454643Y1111126D01*
X454647Y1111153D01*
X454629Y1111194D01*
X454620Y1111236D01*
X454594Y1111272D01*
X454590Y1111281D01*
X454585Y1111285D01*
X454576Y1111296D01*
X430576Y1135296D01*
X430538Y1135317D01*
X430505Y1135346D01*
X430478Y1135350D01*
X430454Y1135363D01*
X430410Y1135360D01*
X430367Y1135367D01*
X430342Y1135356D01*
X430314Y1135354D01*
X430279Y1135328D01*
X430239Y1135310D01*
X430224Y1135287D01*
X430202Y1135271D01*
X430186Y1135230D01*
X430162Y1135194D01*
X430155Y1135150D01*
X430152Y1135141D01*
X430153Y1135134D01*
X430151Y1135120D01*
X430151Y1111120D01*
X430156Y1111104D01*
X430153Y1111087D01*
X430175Y1111037D01*
X430190Y1110986D01*
X430203Y1110975D01*
X430210Y1110959D01*
X430255Y1110929D01*
X430295Y1110894D01*
X430312Y1110891D01*
X430327Y1110882D01*
X430400Y1110871D01*
X454400Y1110871D01*
X454442Y1110883D01*
G37*
G36*
X42962Y1110883D02*
X42962Y1110883D01*
X43006Y1110886D01*
X43028Y1110902D01*
X43054Y1110910D01*
X43083Y1110943D01*
X43118Y1110969D01*
X43128Y1110995D01*
X43146Y1111015D01*
X43153Y1111059D01*
X43168Y1111099D01*
X43163Y1111126D01*
X43167Y1111153D01*
X43149Y1111194D01*
X43140Y1111236D01*
X43114Y1111272D01*
X43110Y1111281D01*
X43105Y1111285D01*
X43096Y1111296D01*
X19096Y1135296D01*
X19058Y1135317D01*
X19025Y1135346D01*
X18998Y1135350D01*
X18974Y1135363D01*
X18930Y1135360D01*
X18887Y1135367D01*
X18862Y1135356D01*
X18834Y1135354D01*
X18799Y1135328D01*
X18759Y1135310D01*
X18744Y1135287D01*
X18722Y1135271D01*
X18706Y1135230D01*
X18682Y1135194D01*
X18675Y1135150D01*
X18672Y1135141D01*
X18673Y1135134D01*
X18671Y1135120D01*
X18671Y1111120D01*
X18676Y1111104D01*
X18673Y1111087D01*
X18695Y1111037D01*
X18710Y1110986D01*
X18723Y1110975D01*
X18730Y1110959D01*
X18775Y1110929D01*
X18815Y1110894D01*
X18832Y1110891D01*
X18847Y1110882D01*
X18920Y1110871D01*
X42920Y1110871D01*
X42962Y1110883D01*
G37*
G36*
X1277402Y699403D02*
X1277402Y699403D01*
X1277446Y699406D01*
X1277468Y699422D01*
X1277494Y699430D01*
X1277523Y699463D01*
X1277558Y699489D01*
X1277568Y699515D01*
X1277586Y699535D01*
X1277593Y699579D01*
X1277608Y699619D01*
X1277603Y699646D01*
X1277607Y699673D01*
X1277589Y699714D01*
X1277580Y699756D01*
X1277554Y699792D01*
X1277550Y699801D01*
X1277545Y699805D01*
X1277536Y699816D01*
X1253536Y723816D01*
X1253498Y723837D01*
X1253465Y723866D01*
X1253438Y723870D01*
X1253414Y723883D01*
X1253370Y723880D01*
X1253327Y723887D01*
X1253302Y723876D01*
X1253274Y723874D01*
X1253239Y723848D01*
X1253199Y723830D01*
X1253184Y723807D01*
X1253162Y723791D01*
X1253146Y723750D01*
X1253122Y723714D01*
X1253115Y723670D01*
X1253112Y723661D01*
X1253113Y723654D01*
X1253111Y723640D01*
X1253111Y699640D01*
X1253116Y699624D01*
X1253113Y699607D01*
X1253135Y699557D01*
X1253150Y699506D01*
X1253163Y699495D01*
X1253170Y699479D01*
X1253215Y699449D01*
X1253255Y699414D01*
X1253272Y699411D01*
X1253287Y699402D01*
X1253360Y699391D01*
X1277360Y699391D01*
X1277402Y699403D01*
G37*
G36*
X42962Y699403D02*
X42962Y699403D01*
X43006Y699406D01*
X43028Y699422D01*
X43054Y699430D01*
X43083Y699463D01*
X43118Y699489D01*
X43128Y699515D01*
X43146Y699535D01*
X43153Y699579D01*
X43168Y699619D01*
X43163Y699646D01*
X43167Y699673D01*
X43149Y699714D01*
X43140Y699756D01*
X43114Y699792D01*
X43110Y699801D01*
X43105Y699805D01*
X43096Y699816D01*
X19096Y723816D01*
X19058Y723837D01*
X19025Y723866D01*
X18998Y723870D01*
X18974Y723883D01*
X18930Y723880D01*
X18887Y723887D01*
X18862Y723876D01*
X18834Y723874D01*
X18799Y723848D01*
X18759Y723830D01*
X18744Y723807D01*
X18722Y723791D01*
X18706Y723750D01*
X18682Y723714D01*
X18675Y723670D01*
X18672Y723661D01*
X18673Y723654D01*
X18671Y723640D01*
X18671Y699640D01*
X18676Y699624D01*
X18673Y699607D01*
X18695Y699557D01*
X18710Y699506D01*
X18723Y699495D01*
X18730Y699479D01*
X18775Y699449D01*
X18815Y699414D01*
X18832Y699411D01*
X18847Y699402D01*
X18920Y699391D01*
X42920Y699391D01*
X42962Y699403D01*
G37*
G36*
X454442Y699403D02*
X454442Y699403D01*
X454486Y699406D01*
X454508Y699422D01*
X454534Y699430D01*
X454563Y699463D01*
X454598Y699489D01*
X454608Y699515D01*
X454626Y699535D01*
X454633Y699579D01*
X454648Y699619D01*
X454643Y699646D01*
X454647Y699673D01*
X454629Y699714D01*
X454620Y699756D01*
X454594Y699792D01*
X454590Y699801D01*
X454585Y699805D01*
X454576Y699816D01*
X430576Y723816D01*
X430538Y723837D01*
X430505Y723866D01*
X430478Y723870D01*
X430454Y723883D01*
X430410Y723880D01*
X430367Y723887D01*
X430342Y723876D01*
X430314Y723874D01*
X430279Y723848D01*
X430239Y723830D01*
X430224Y723807D01*
X430202Y723791D01*
X430186Y723750D01*
X430162Y723714D01*
X430155Y723670D01*
X430152Y723661D01*
X430153Y723654D01*
X430151Y723640D01*
X430151Y699640D01*
X430156Y699624D01*
X430153Y699607D01*
X430175Y699557D01*
X430190Y699506D01*
X430203Y699495D01*
X430210Y699479D01*
X430255Y699449D01*
X430295Y699414D01*
X430312Y699411D01*
X430327Y699402D01*
X430400Y699391D01*
X454400Y699391D01*
X454442Y699403D01*
G37*
G36*
X865922Y699403D02*
X865922Y699403D01*
X865966Y699406D01*
X865988Y699422D01*
X866014Y699430D01*
X866043Y699463D01*
X866078Y699489D01*
X866088Y699515D01*
X866106Y699535D01*
X866113Y699579D01*
X866128Y699619D01*
X866123Y699646D01*
X866127Y699673D01*
X866109Y699714D01*
X866100Y699756D01*
X866074Y699792D01*
X866070Y699801D01*
X866065Y699805D01*
X866056Y699816D01*
X842056Y723816D01*
X842018Y723837D01*
X841985Y723866D01*
X841958Y723870D01*
X841934Y723883D01*
X841890Y723880D01*
X841847Y723887D01*
X841822Y723876D01*
X841794Y723874D01*
X841759Y723848D01*
X841719Y723830D01*
X841704Y723807D01*
X841682Y723791D01*
X841666Y723750D01*
X841642Y723714D01*
X841635Y723670D01*
X841632Y723661D01*
X841633Y723654D01*
X841631Y723640D01*
X841631Y699640D01*
X841636Y699624D01*
X841633Y699607D01*
X841655Y699557D01*
X841670Y699506D01*
X841683Y699495D01*
X841690Y699479D01*
X841735Y699449D01*
X841775Y699414D01*
X841792Y699411D01*
X841807Y699402D01*
X841880Y699391D01*
X865880Y699391D01*
X865922Y699403D01*
G37*
G36*
X1277402Y287923D02*
X1277402Y287923D01*
X1277446Y287926D01*
X1277468Y287942D01*
X1277494Y287950D01*
X1277523Y287983D01*
X1277558Y288009D01*
X1277568Y288035D01*
X1277586Y288055D01*
X1277593Y288099D01*
X1277608Y288139D01*
X1277603Y288166D01*
X1277607Y288193D01*
X1277589Y288234D01*
X1277580Y288276D01*
X1277554Y288312D01*
X1277550Y288321D01*
X1277545Y288325D01*
X1277536Y288336D01*
X1253536Y312336D01*
X1253498Y312357D01*
X1253465Y312386D01*
X1253438Y312390D01*
X1253414Y312403D01*
X1253370Y312400D01*
X1253327Y312407D01*
X1253302Y312396D01*
X1253274Y312394D01*
X1253239Y312368D01*
X1253199Y312350D01*
X1253184Y312327D01*
X1253162Y312311D01*
X1253146Y312270D01*
X1253122Y312234D01*
X1253115Y312190D01*
X1253112Y312181D01*
X1253113Y312174D01*
X1253111Y312160D01*
X1253111Y288160D01*
X1253116Y288144D01*
X1253113Y288127D01*
X1253135Y288077D01*
X1253150Y288026D01*
X1253163Y288015D01*
X1253170Y287999D01*
X1253215Y287969D01*
X1253255Y287934D01*
X1253272Y287931D01*
X1253287Y287922D01*
X1253360Y287911D01*
X1277360Y287911D01*
X1277402Y287923D01*
G37*
G36*
X865922Y287923D02*
X865922Y287923D01*
X865966Y287926D01*
X865988Y287942D01*
X866014Y287950D01*
X866043Y287983D01*
X866078Y288009D01*
X866088Y288035D01*
X866106Y288055D01*
X866113Y288099D01*
X866128Y288139D01*
X866123Y288166D01*
X866127Y288193D01*
X866109Y288234D01*
X866100Y288276D01*
X866074Y288312D01*
X866070Y288321D01*
X866065Y288325D01*
X866056Y288336D01*
X842056Y312336D01*
X842018Y312357D01*
X841985Y312386D01*
X841958Y312390D01*
X841934Y312403D01*
X841890Y312400D01*
X841847Y312407D01*
X841822Y312396D01*
X841794Y312394D01*
X841759Y312368D01*
X841719Y312350D01*
X841704Y312327D01*
X841682Y312311D01*
X841666Y312270D01*
X841642Y312234D01*
X841635Y312190D01*
X841632Y312181D01*
X841633Y312174D01*
X841631Y312160D01*
X841631Y288160D01*
X841636Y288144D01*
X841633Y288127D01*
X841655Y288077D01*
X841670Y288026D01*
X841683Y288015D01*
X841690Y287999D01*
X841735Y287969D01*
X841775Y287934D01*
X841792Y287931D01*
X841807Y287922D01*
X841880Y287911D01*
X865880Y287911D01*
X865922Y287923D01*
G37*
G36*
X454442Y287923D02*
X454442Y287923D01*
X454486Y287926D01*
X454508Y287942D01*
X454534Y287950D01*
X454563Y287983D01*
X454598Y288009D01*
X454608Y288035D01*
X454626Y288055D01*
X454633Y288099D01*
X454648Y288139D01*
X454643Y288166D01*
X454647Y288193D01*
X454629Y288234D01*
X454620Y288276D01*
X454594Y288312D01*
X454590Y288321D01*
X454585Y288325D01*
X454576Y288336D01*
X430576Y312336D01*
X430538Y312357D01*
X430505Y312386D01*
X430478Y312390D01*
X430454Y312403D01*
X430410Y312400D01*
X430367Y312407D01*
X430342Y312396D01*
X430314Y312394D01*
X430279Y312368D01*
X430239Y312350D01*
X430224Y312327D01*
X430202Y312311D01*
X430186Y312270D01*
X430162Y312234D01*
X430155Y312190D01*
X430152Y312181D01*
X430153Y312174D01*
X430151Y312160D01*
X430151Y288160D01*
X430156Y288144D01*
X430153Y288127D01*
X430175Y288077D01*
X430190Y288026D01*
X430203Y288015D01*
X430210Y287999D01*
X430255Y287969D01*
X430295Y287934D01*
X430312Y287931D01*
X430327Y287922D01*
X430400Y287911D01*
X454400Y287911D01*
X454442Y287923D01*
G37*
G36*
X42962Y287923D02*
X42962Y287923D01*
X43006Y287926D01*
X43028Y287942D01*
X43054Y287950D01*
X43083Y287983D01*
X43118Y288009D01*
X43128Y288035D01*
X43146Y288055D01*
X43153Y288099D01*
X43168Y288139D01*
X43163Y288166D01*
X43167Y288193D01*
X43149Y288234D01*
X43140Y288276D01*
X43114Y288312D01*
X43110Y288321D01*
X43105Y288325D01*
X43096Y288336D01*
X19096Y312336D01*
X19058Y312357D01*
X19025Y312386D01*
X18998Y312390D01*
X18974Y312403D01*
X18930Y312400D01*
X18887Y312407D01*
X18862Y312396D01*
X18834Y312394D01*
X18799Y312368D01*
X18759Y312350D01*
X18744Y312327D01*
X18722Y312311D01*
X18706Y312270D01*
X18682Y312234D01*
X18675Y312190D01*
X18672Y312181D01*
X18673Y312174D01*
X18671Y312160D01*
X18671Y288160D01*
X18676Y288144D01*
X18673Y288127D01*
X18695Y288077D01*
X18710Y288026D01*
X18723Y288015D01*
X18730Y287999D01*
X18775Y287969D01*
X18815Y287934D01*
X18832Y287931D01*
X18847Y287922D01*
X18920Y287911D01*
X42920Y287911D01*
X42962Y287923D01*
G37*
G36*
X886608Y12502D02*
X886608Y12502D01*
X886621Y12503D01*
X886818Y12799D01*
X887115Y13095D01*
X887116Y13100D01*
X887119Y13100D01*
X887417Y13498D01*
X887915Y13995D01*
X887915Y13999D01*
X887918Y13998D01*
X888417Y14597D01*
X889015Y15195D01*
X889016Y15201D01*
X889020Y15201D01*
X889518Y15898D01*
X890815Y17195D01*
X890815Y17199D01*
X890818Y17198D01*
X891315Y17795D01*
X892308Y18590D01*
X892797Y18883D01*
X893384Y18981D01*
X895280Y18981D01*
X895281Y18982D01*
X895286Y18982D01*
X895287Y18982D01*
X895288Y18981D01*
X896488Y19181D01*
X896491Y19184D01*
X896493Y19183D01*
X897593Y19483D01*
X897596Y19486D01*
X897598Y19484D01*
X898598Y19884D01*
X898601Y19889D01*
X898605Y19888D01*
X899605Y20488D01*
X899608Y20494D01*
X899612Y20493D01*
X900412Y21193D01*
X900413Y21195D01*
X900415Y21195D01*
X901215Y21995D01*
X901215Y22000D01*
X901219Y22000D01*
X901919Y22900D01*
X901919Y22906D01*
X901923Y22906D01*
X902923Y24706D01*
X902922Y24715D01*
X902927Y24717D01*
X903427Y26517D01*
X903425Y26524D01*
X903429Y26527D01*
X903529Y28327D01*
X903524Y28335D01*
X903528Y28339D01*
X903228Y29939D01*
X903224Y29943D01*
X903226Y29947D01*
X902726Y31347D01*
X902721Y31350D01*
X902723Y31355D01*
X902023Y32555D01*
X902016Y32558D01*
X902017Y32563D01*
X901217Y33463D01*
X901204Y33465D01*
X901202Y33474D01*
X900402Y33874D01*
X900397Y33873D01*
X900393Y33877D01*
X900385Y33871D01*
X900344Y33863D01*
X900347Y33843D01*
X900331Y33830D01*
X900331Y33038D01*
X900139Y32462D01*
X899858Y32275D01*
X899572Y32179D01*
X898892Y32179D01*
X898105Y32573D01*
X897809Y32770D01*
X897410Y33069D01*
X897407Y33069D01*
X897407Y33071D01*
X897111Y33268D01*
X896821Y33559D01*
X896624Y33952D01*
X896620Y33954D01*
X896621Y33957D01*
X896426Y34250D01*
X896328Y34642D01*
X896326Y34644D01*
X896327Y34646D01*
X896232Y34930D01*
X896326Y35211D01*
X896424Y35408D01*
X896423Y35413D01*
X896427Y35414D01*
X896525Y35708D01*
X896716Y35996D01*
X897106Y36288D01*
X897496Y36483D01*
X897990Y36582D01*
X897991Y36583D01*
X897992Y36582D01*
X898386Y36681D01*
X898672Y36681D01*
X898964Y36583D01*
X898975Y36587D01*
X898980Y36581D01*
X899280Y36581D01*
X899291Y36589D01*
X899304Y36587D01*
X899306Y36600D01*
X899327Y36617D01*
X899311Y36638D01*
X899315Y36665D01*
X899215Y36765D01*
X899210Y36766D01*
X899210Y36769D01*
X898810Y37069D01*
X898803Y37069D01*
X898802Y37074D01*
X898202Y37374D01*
X898198Y37373D01*
X898197Y37376D01*
X897397Y37676D01*
X897396Y37676D01*
X897396Y37677D01*
X896496Y37977D01*
X896485Y37973D01*
X896480Y37979D01*
X895480Y37979D01*
X895475Y37975D01*
X895471Y37978D01*
X894371Y37778D01*
X894363Y37770D01*
X894356Y37773D01*
X893256Y37173D01*
X893253Y37166D01*
X893247Y37167D01*
X892347Y36367D01*
X892346Y36359D01*
X892340Y36359D01*
X891840Y35659D01*
X891840Y35648D01*
X891833Y35646D01*
X891533Y34746D01*
X891537Y34735D01*
X891531Y34730D01*
X891531Y33930D01*
X891536Y33924D01*
X891532Y33919D01*
X891732Y33019D01*
X891740Y33013D01*
X891737Y33006D01*
X892237Y32106D01*
X892244Y32103D01*
X892243Y32098D01*
X892943Y31298D01*
X892943Y31297D01*
X893743Y30397D01*
X894438Y29603D01*
X894731Y28920D01*
X894731Y28238D01*
X894536Y27654D01*
X894146Y27167D01*
X893560Y26776D01*
X892774Y26579D01*
X891985Y26579D01*
X891494Y26677D01*
X891003Y26874D01*
X890711Y27068D01*
X890421Y27359D01*
X890226Y27749D01*
X890129Y28038D01*
X890129Y28322D01*
X890225Y28608D01*
X890418Y28899D01*
X890807Y29287D01*
X891096Y29383D01*
X891099Y29388D01*
X891102Y29386D01*
X891502Y29586D01*
X891507Y29596D01*
X891515Y29595D01*
X891615Y29695D01*
X891615Y29697D01*
X891616Y29697D01*
X891616Y29701D01*
X891623Y29754D01*
X891605Y29757D01*
X891602Y29774D01*
X891402Y29874D01*
X891386Y29871D01*
X891380Y29879D01*
X891186Y29879D01*
X890792Y29978D01*
X890784Y29974D01*
X890780Y29979D01*
X889980Y29979D01*
X889975Y29976D01*
X889972Y29979D01*
X889372Y29879D01*
X889366Y29873D01*
X889362Y29876D01*
X888362Y29476D01*
X888357Y29468D01*
X888350Y29469D01*
X887952Y29171D01*
X887455Y28872D01*
X887448Y28857D01*
X887438Y28855D01*
X887138Y28355D01*
X887138Y28352D01*
X887136Y28352D01*
X886836Y27752D01*
X886837Y27747D01*
X886833Y27746D01*
X886633Y27146D01*
X886636Y27138D01*
X886631Y27135D01*
X886431Y25335D01*
X886433Y25332D01*
X886431Y25330D01*
X886431Y12530D01*
X886467Y12483D01*
X886474Y12488D01*
X886480Y12481D01*
X886580Y12481D01*
X886608Y12502D01*
G37*
G36*
X475128Y423982D02*
X475128Y423982D01*
X475141Y423983D01*
X475338Y424279D01*
X475635Y424575D01*
X475636Y424580D01*
X475639Y424580D01*
X475937Y424978D01*
X476435Y425475D01*
X476435Y425479D01*
X476438Y425478D01*
X476937Y426077D01*
X477535Y426675D01*
X477536Y426681D01*
X477540Y426681D01*
X478038Y427378D01*
X479335Y428675D01*
X479335Y428679D01*
X479338Y428678D01*
X479835Y429275D01*
X480828Y430070D01*
X481317Y430363D01*
X481904Y430461D01*
X483800Y430461D01*
X483801Y430462D01*
X483806Y430462D01*
X483807Y430462D01*
X483808Y430461D01*
X485008Y430661D01*
X485011Y430664D01*
X485013Y430663D01*
X486113Y430963D01*
X486116Y430966D01*
X486118Y430964D01*
X487118Y431364D01*
X487121Y431369D01*
X487125Y431368D01*
X488125Y431968D01*
X488128Y431974D01*
X488132Y431973D01*
X488932Y432673D01*
X488933Y432675D01*
X488935Y432675D01*
X489735Y433475D01*
X489735Y433480D01*
X489739Y433480D01*
X490439Y434380D01*
X490439Y434386D01*
X490443Y434386D01*
X491443Y436186D01*
X491442Y436195D01*
X491447Y436197D01*
X491947Y437997D01*
X491945Y438004D01*
X491949Y438007D01*
X492049Y439807D01*
X492044Y439815D01*
X492048Y439819D01*
X491748Y441419D01*
X491744Y441423D01*
X491746Y441427D01*
X491246Y442827D01*
X491241Y442830D01*
X491243Y442835D01*
X490543Y444035D01*
X490536Y444038D01*
X490537Y444043D01*
X489737Y444943D01*
X489724Y444945D01*
X489722Y444954D01*
X488922Y445354D01*
X488917Y445353D01*
X488913Y445357D01*
X488905Y445351D01*
X488864Y445343D01*
X488867Y445323D01*
X488851Y445310D01*
X488851Y444518D01*
X488659Y443942D01*
X488378Y443755D01*
X488092Y443659D01*
X487412Y443659D01*
X486625Y444053D01*
X486329Y444250D01*
X485930Y444549D01*
X485927Y444549D01*
X485927Y444551D01*
X485631Y444748D01*
X485341Y445039D01*
X485144Y445432D01*
X485140Y445434D01*
X485141Y445437D01*
X484946Y445730D01*
X484848Y446122D01*
X484846Y446124D01*
X484847Y446126D01*
X484752Y446410D01*
X484846Y446691D01*
X484944Y446888D01*
X484943Y446893D01*
X484947Y446894D01*
X485045Y447188D01*
X485236Y447476D01*
X485626Y447768D01*
X486016Y447963D01*
X486510Y448062D01*
X486511Y448063D01*
X486512Y448062D01*
X486906Y448161D01*
X487192Y448161D01*
X487484Y448063D01*
X487495Y448067D01*
X487500Y448061D01*
X487800Y448061D01*
X487811Y448069D01*
X487824Y448067D01*
X487826Y448080D01*
X487847Y448097D01*
X487831Y448118D01*
X487835Y448145D01*
X487735Y448245D01*
X487730Y448246D01*
X487730Y448249D01*
X487330Y448549D01*
X487323Y448549D01*
X487322Y448554D01*
X486722Y448854D01*
X486718Y448853D01*
X486717Y448856D01*
X485917Y449156D01*
X485916Y449156D01*
X485916Y449157D01*
X485016Y449457D01*
X485005Y449453D01*
X485000Y449459D01*
X484000Y449459D01*
X483995Y449455D01*
X483991Y449458D01*
X482891Y449258D01*
X482883Y449250D01*
X482876Y449253D01*
X481776Y448653D01*
X481773Y448646D01*
X481767Y448647D01*
X480867Y447847D01*
X480866Y447839D01*
X480860Y447839D01*
X480360Y447139D01*
X480360Y447128D01*
X480353Y447126D01*
X480053Y446226D01*
X480057Y446215D01*
X480051Y446210D01*
X480051Y445410D01*
X480056Y445404D01*
X480052Y445399D01*
X480252Y444499D01*
X480260Y444493D01*
X480257Y444486D01*
X480757Y443586D01*
X480764Y443583D01*
X480763Y443578D01*
X481463Y442778D01*
X481463Y442777D01*
X482263Y441877D01*
X482958Y441083D01*
X483251Y440400D01*
X483251Y439718D01*
X483056Y439134D01*
X482666Y438647D01*
X482080Y438256D01*
X481294Y438059D01*
X480505Y438059D01*
X480014Y438157D01*
X479523Y438354D01*
X479231Y438548D01*
X478941Y438839D01*
X478746Y439229D01*
X478649Y439518D01*
X478649Y439802D01*
X478745Y440088D01*
X478938Y440379D01*
X479327Y440767D01*
X479616Y440863D01*
X479619Y440868D01*
X479622Y440866D01*
X480022Y441066D01*
X480027Y441076D01*
X480035Y441075D01*
X480135Y441175D01*
X480135Y441177D01*
X480136Y441177D01*
X480136Y441181D01*
X480143Y441234D01*
X480125Y441237D01*
X480122Y441254D01*
X479922Y441354D01*
X479906Y441351D01*
X479900Y441359D01*
X479706Y441359D01*
X479312Y441458D01*
X479304Y441454D01*
X479300Y441459D01*
X478500Y441459D01*
X478495Y441456D01*
X478492Y441459D01*
X477892Y441359D01*
X477886Y441353D01*
X477882Y441356D01*
X476882Y440956D01*
X476877Y440948D01*
X476870Y440949D01*
X476472Y440651D01*
X475975Y440352D01*
X475968Y440337D01*
X475958Y440335D01*
X475658Y439835D01*
X475658Y439832D01*
X475656Y439832D01*
X475356Y439232D01*
X475357Y439227D01*
X475353Y439226D01*
X475153Y438626D01*
X475156Y438618D01*
X475151Y438615D01*
X474951Y436815D01*
X474953Y436812D01*
X474951Y436810D01*
X474951Y424010D01*
X474987Y423963D01*
X474994Y423968D01*
X475000Y423961D01*
X475100Y423961D01*
X475128Y423982D01*
G37*
G36*
X1298088Y423982D02*
X1298088Y423982D01*
X1298101Y423983D01*
X1298298Y424279D01*
X1298595Y424575D01*
X1298596Y424580D01*
X1298599Y424580D01*
X1298897Y424978D01*
X1299395Y425475D01*
X1299395Y425479D01*
X1299398Y425478D01*
X1299897Y426077D01*
X1300495Y426675D01*
X1300496Y426681D01*
X1300500Y426681D01*
X1300998Y427378D01*
X1302295Y428675D01*
X1302295Y428679D01*
X1302298Y428678D01*
X1302795Y429275D01*
X1303788Y430070D01*
X1304277Y430363D01*
X1304864Y430461D01*
X1306760Y430461D01*
X1306761Y430462D01*
X1306766Y430462D01*
X1306767Y430462D01*
X1306768Y430461D01*
X1307968Y430661D01*
X1307971Y430664D01*
X1307973Y430663D01*
X1309073Y430963D01*
X1309076Y430966D01*
X1309078Y430964D01*
X1310078Y431364D01*
X1310081Y431369D01*
X1310085Y431368D01*
X1311085Y431968D01*
X1311088Y431974D01*
X1311092Y431973D01*
X1311892Y432673D01*
X1311893Y432675D01*
X1311895Y432675D01*
X1312695Y433475D01*
X1312695Y433480D01*
X1312699Y433480D01*
X1313399Y434380D01*
X1313399Y434386D01*
X1313403Y434386D01*
X1314403Y436186D01*
X1314402Y436195D01*
X1314407Y436197D01*
X1314907Y437997D01*
X1314905Y438004D01*
X1314909Y438007D01*
X1315009Y439807D01*
X1315004Y439815D01*
X1315008Y439819D01*
X1314708Y441419D01*
X1314704Y441423D01*
X1314706Y441427D01*
X1314206Y442827D01*
X1314201Y442830D01*
X1314203Y442835D01*
X1313503Y444035D01*
X1313496Y444038D01*
X1313497Y444043D01*
X1312697Y444943D01*
X1312684Y444945D01*
X1312682Y444954D01*
X1311882Y445354D01*
X1311877Y445353D01*
X1311873Y445357D01*
X1311865Y445351D01*
X1311824Y445343D01*
X1311827Y445323D01*
X1311811Y445310D01*
X1311811Y444518D01*
X1311619Y443942D01*
X1311338Y443755D01*
X1311052Y443659D01*
X1310372Y443659D01*
X1309585Y444053D01*
X1309289Y444250D01*
X1308890Y444549D01*
X1308887Y444549D01*
X1308887Y444551D01*
X1308591Y444748D01*
X1308301Y445039D01*
X1308104Y445432D01*
X1308100Y445434D01*
X1308101Y445437D01*
X1307906Y445730D01*
X1307808Y446122D01*
X1307806Y446124D01*
X1307807Y446126D01*
X1307712Y446410D01*
X1307806Y446691D01*
X1307904Y446888D01*
X1307903Y446893D01*
X1307907Y446894D01*
X1308005Y447188D01*
X1308196Y447476D01*
X1308586Y447768D01*
X1308976Y447963D01*
X1309470Y448062D01*
X1309471Y448063D01*
X1309472Y448062D01*
X1309866Y448161D01*
X1310152Y448161D01*
X1310444Y448063D01*
X1310455Y448067D01*
X1310460Y448061D01*
X1310760Y448061D01*
X1310771Y448069D01*
X1310784Y448067D01*
X1310786Y448080D01*
X1310807Y448097D01*
X1310791Y448118D01*
X1310795Y448145D01*
X1310695Y448245D01*
X1310690Y448246D01*
X1310690Y448249D01*
X1310290Y448549D01*
X1310283Y448549D01*
X1310282Y448554D01*
X1309682Y448854D01*
X1309678Y448853D01*
X1309677Y448856D01*
X1308877Y449156D01*
X1308876Y449156D01*
X1308876Y449157D01*
X1307976Y449457D01*
X1307965Y449453D01*
X1307960Y449459D01*
X1306960Y449459D01*
X1306955Y449455D01*
X1306951Y449458D01*
X1305851Y449258D01*
X1305843Y449250D01*
X1305836Y449253D01*
X1304736Y448653D01*
X1304733Y448646D01*
X1304727Y448647D01*
X1303827Y447847D01*
X1303826Y447839D01*
X1303820Y447839D01*
X1303320Y447139D01*
X1303320Y447128D01*
X1303313Y447126D01*
X1303013Y446226D01*
X1303017Y446215D01*
X1303011Y446210D01*
X1303011Y445410D01*
X1303016Y445404D01*
X1303012Y445399D01*
X1303212Y444499D01*
X1303220Y444493D01*
X1303217Y444486D01*
X1303717Y443586D01*
X1303724Y443583D01*
X1303723Y443578D01*
X1304423Y442778D01*
X1304423Y442777D01*
X1305223Y441877D01*
X1305918Y441083D01*
X1306211Y440400D01*
X1306211Y439718D01*
X1306016Y439134D01*
X1305626Y438647D01*
X1305040Y438256D01*
X1304254Y438059D01*
X1303465Y438059D01*
X1302974Y438157D01*
X1302483Y438354D01*
X1302191Y438548D01*
X1301901Y438839D01*
X1301706Y439229D01*
X1301609Y439518D01*
X1301609Y439802D01*
X1301705Y440088D01*
X1301898Y440379D01*
X1302287Y440767D01*
X1302576Y440863D01*
X1302579Y440868D01*
X1302582Y440866D01*
X1302982Y441066D01*
X1302987Y441076D01*
X1302995Y441075D01*
X1303095Y441175D01*
X1303095Y441177D01*
X1303096Y441177D01*
X1303096Y441181D01*
X1303103Y441234D01*
X1303085Y441237D01*
X1303082Y441254D01*
X1302882Y441354D01*
X1302866Y441351D01*
X1302860Y441359D01*
X1302666Y441359D01*
X1302272Y441458D01*
X1302264Y441454D01*
X1302260Y441459D01*
X1301460Y441459D01*
X1301455Y441456D01*
X1301452Y441459D01*
X1300852Y441359D01*
X1300846Y441353D01*
X1300842Y441356D01*
X1299842Y440956D01*
X1299837Y440948D01*
X1299830Y440949D01*
X1299432Y440651D01*
X1298935Y440352D01*
X1298928Y440337D01*
X1298918Y440335D01*
X1298618Y439835D01*
X1298618Y439832D01*
X1298616Y439832D01*
X1298316Y439232D01*
X1298317Y439227D01*
X1298313Y439226D01*
X1298113Y438626D01*
X1298116Y438618D01*
X1298111Y438615D01*
X1297911Y436815D01*
X1297913Y436812D01*
X1297911Y436810D01*
X1297911Y424010D01*
X1297947Y423963D01*
X1297954Y423968D01*
X1297960Y423961D01*
X1298060Y423961D01*
X1298088Y423982D01*
G37*
G36*
X63648Y423982D02*
X63648Y423982D01*
X63661Y423983D01*
X63858Y424279D01*
X64155Y424575D01*
X64156Y424580D01*
X64159Y424580D01*
X64457Y424978D01*
X64955Y425475D01*
X64955Y425479D01*
X64958Y425478D01*
X65457Y426077D01*
X66055Y426675D01*
X66056Y426681D01*
X66060Y426681D01*
X66558Y427378D01*
X67855Y428675D01*
X67855Y428679D01*
X67858Y428678D01*
X68355Y429275D01*
X69348Y430070D01*
X69837Y430363D01*
X70424Y430461D01*
X72320Y430461D01*
X72321Y430462D01*
X72326Y430462D01*
X72327Y430462D01*
X72328Y430461D01*
X73528Y430661D01*
X73531Y430664D01*
X73533Y430663D01*
X74633Y430963D01*
X74636Y430966D01*
X74638Y430964D01*
X75638Y431364D01*
X75641Y431369D01*
X75645Y431368D01*
X76645Y431968D01*
X76648Y431974D01*
X76652Y431973D01*
X77452Y432673D01*
X77453Y432675D01*
X77455Y432675D01*
X78255Y433475D01*
X78255Y433480D01*
X78259Y433480D01*
X78959Y434380D01*
X78959Y434386D01*
X78963Y434386D01*
X79963Y436186D01*
X79962Y436195D01*
X79967Y436197D01*
X80467Y437997D01*
X80465Y438004D01*
X80469Y438007D01*
X80569Y439807D01*
X80564Y439815D01*
X80568Y439819D01*
X80268Y441419D01*
X80264Y441423D01*
X80266Y441427D01*
X79766Y442827D01*
X79761Y442830D01*
X79763Y442835D01*
X79063Y444035D01*
X79056Y444038D01*
X79057Y444043D01*
X78257Y444943D01*
X78244Y444945D01*
X78242Y444954D01*
X77442Y445354D01*
X77437Y445353D01*
X77433Y445357D01*
X77425Y445351D01*
X77384Y445343D01*
X77387Y445323D01*
X77371Y445310D01*
X77371Y444518D01*
X77179Y443942D01*
X76898Y443755D01*
X76612Y443659D01*
X75932Y443659D01*
X75145Y444053D01*
X74849Y444250D01*
X74450Y444549D01*
X74447Y444549D01*
X74447Y444551D01*
X74151Y444748D01*
X73861Y445039D01*
X73664Y445432D01*
X73660Y445434D01*
X73661Y445437D01*
X73466Y445730D01*
X73368Y446122D01*
X73366Y446124D01*
X73367Y446126D01*
X73272Y446410D01*
X73366Y446691D01*
X73464Y446888D01*
X73463Y446893D01*
X73467Y446894D01*
X73565Y447188D01*
X73756Y447476D01*
X74146Y447768D01*
X74536Y447963D01*
X75030Y448062D01*
X75031Y448063D01*
X75032Y448062D01*
X75426Y448161D01*
X75712Y448161D01*
X76004Y448063D01*
X76015Y448067D01*
X76020Y448061D01*
X76320Y448061D01*
X76331Y448069D01*
X76344Y448067D01*
X76346Y448080D01*
X76367Y448097D01*
X76351Y448118D01*
X76355Y448145D01*
X76255Y448245D01*
X76250Y448246D01*
X76250Y448249D01*
X75850Y448549D01*
X75843Y448549D01*
X75842Y448554D01*
X75242Y448854D01*
X75238Y448853D01*
X75237Y448856D01*
X74437Y449156D01*
X74436Y449156D01*
X74436Y449157D01*
X73536Y449457D01*
X73525Y449453D01*
X73520Y449459D01*
X72520Y449459D01*
X72515Y449455D01*
X72511Y449458D01*
X71411Y449258D01*
X71403Y449250D01*
X71396Y449253D01*
X70296Y448653D01*
X70293Y448646D01*
X70287Y448647D01*
X69387Y447847D01*
X69386Y447839D01*
X69380Y447839D01*
X68880Y447139D01*
X68880Y447128D01*
X68873Y447126D01*
X68573Y446226D01*
X68577Y446215D01*
X68571Y446210D01*
X68571Y445410D01*
X68576Y445404D01*
X68572Y445399D01*
X68772Y444499D01*
X68780Y444493D01*
X68777Y444486D01*
X69277Y443586D01*
X69284Y443583D01*
X69283Y443578D01*
X69983Y442778D01*
X69983Y442777D01*
X70783Y441877D01*
X71478Y441083D01*
X71771Y440400D01*
X71771Y439718D01*
X71576Y439134D01*
X71186Y438647D01*
X70600Y438256D01*
X69814Y438059D01*
X69025Y438059D01*
X68534Y438157D01*
X68043Y438354D01*
X67751Y438548D01*
X67461Y438839D01*
X67266Y439229D01*
X67169Y439518D01*
X67169Y439802D01*
X67265Y440088D01*
X67458Y440379D01*
X67847Y440767D01*
X68136Y440863D01*
X68139Y440868D01*
X68142Y440866D01*
X68542Y441066D01*
X68547Y441076D01*
X68555Y441075D01*
X68655Y441175D01*
X68655Y441177D01*
X68656Y441177D01*
X68656Y441181D01*
X68663Y441234D01*
X68645Y441237D01*
X68642Y441254D01*
X68442Y441354D01*
X68426Y441351D01*
X68420Y441359D01*
X68226Y441359D01*
X67832Y441458D01*
X67824Y441454D01*
X67820Y441459D01*
X67020Y441459D01*
X67015Y441456D01*
X67012Y441459D01*
X66412Y441359D01*
X66406Y441353D01*
X66402Y441356D01*
X65402Y440956D01*
X65397Y440948D01*
X65390Y440949D01*
X64992Y440651D01*
X64495Y440352D01*
X64488Y440337D01*
X64478Y440335D01*
X64178Y439835D01*
X64178Y439832D01*
X64176Y439832D01*
X63876Y439232D01*
X63877Y439227D01*
X63873Y439226D01*
X63673Y438626D01*
X63676Y438618D01*
X63671Y438615D01*
X63471Y436815D01*
X63473Y436812D01*
X63471Y436810D01*
X63471Y424010D01*
X63507Y423963D01*
X63514Y423968D01*
X63520Y423961D01*
X63620Y423961D01*
X63648Y423982D01*
G37*
G36*
X886608Y423982D02*
X886608Y423982D01*
X886621Y423983D01*
X886818Y424279D01*
X887115Y424575D01*
X887116Y424580D01*
X887119Y424580D01*
X887417Y424978D01*
X887915Y425475D01*
X887915Y425479D01*
X887918Y425478D01*
X888417Y426077D01*
X889015Y426675D01*
X889016Y426681D01*
X889020Y426681D01*
X889518Y427378D01*
X890815Y428675D01*
X890815Y428679D01*
X890818Y428678D01*
X891315Y429275D01*
X892308Y430070D01*
X892797Y430363D01*
X893384Y430461D01*
X895280Y430461D01*
X895281Y430462D01*
X895286Y430462D01*
X895287Y430462D01*
X895288Y430461D01*
X896488Y430661D01*
X896491Y430664D01*
X896493Y430663D01*
X897593Y430963D01*
X897596Y430966D01*
X897598Y430964D01*
X898598Y431364D01*
X898601Y431369D01*
X898605Y431368D01*
X899605Y431968D01*
X899608Y431974D01*
X899612Y431973D01*
X900412Y432673D01*
X900413Y432675D01*
X900415Y432675D01*
X901215Y433475D01*
X901215Y433480D01*
X901219Y433480D01*
X901919Y434380D01*
X901919Y434386D01*
X901923Y434386D01*
X902923Y436186D01*
X902922Y436195D01*
X902927Y436197D01*
X903427Y437997D01*
X903425Y438004D01*
X903429Y438007D01*
X903529Y439807D01*
X903524Y439815D01*
X903528Y439819D01*
X903228Y441419D01*
X903224Y441423D01*
X903226Y441427D01*
X902726Y442827D01*
X902721Y442830D01*
X902723Y442835D01*
X902023Y444035D01*
X902016Y444038D01*
X902017Y444043D01*
X901217Y444943D01*
X901204Y444945D01*
X901202Y444954D01*
X900402Y445354D01*
X900397Y445353D01*
X900393Y445357D01*
X900385Y445351D01*
X900344Y445343D01*
X900347Y445323D01*
X900331Y445310D01*
X900331Y444518D01*
X900139Y443942D01*
X899858Y443755D01*
X899572Y443659D01*
X898892Y443659D01*
X898105Y444053D01*
X897809Y444250D01*
X897410Y444549D01*
X897407Y444549D01*
X897407Y444551D01*
X897111Y444748D01*
X896821Y445039D01*
X896624Y445432D01*
X896620Y445434D01*
X896621Y445437D01*
X896426Y445730D01*
X896328Y446122D01*
X896326Y446124D01*
X896327Y446126D01*
X896232Y446410D01*
X896326Y446691D01*
X896424Y446888D01*
X896423Y446893D01*
X896427Y446894D01*
X896525Y447188D01*
X896716Y447476D01*
X897106Y447768D01*
X897496Y447963D01*
X897990Y448062D01*
X897991Y448063D01*
X897992Y448062D01*
X898386Y448161D01*
X898672Y448161D01*
X898964Y448063D01*
X898975Y448067D01*
X898980Y448061D01*
X899280Y448061D01*
X899291Y448069D01*
X899304Y448067D01*
X899306Y448080D01*
X899327Y448097D01*
X899311Y448118D01*
X899315Y448145D01*
X899215Y448245D01*
X899210Y448246D01*
X899210Y448249D01*
X898810Y448549D01*
X898803Y448549D01*
X898802Y448554D01*
X898202Y448854D01*
X898198Y448853D01*
X898197Y448856D01*
X897397Y449156D01*
X897396Y449156D01*
X897396Y449157D01*
X896496Y449457D01*
X896485Y449453D01*
X896480Y449459D01*
X895480Y449459D01*
X895475Y449455D01*
X895471Y449458D01*
X894371Y449258D01*
X894363Y449250D01*
X894356Y449253D01*
X893256Y448653D01*
X893253Y448646D01*
X893247Y448647D01*
X892347Y447847D01*
X892346Y447839D01*
X892340Y447839D01*
X891840Y447139D01*
X891840Y447128D01*
X891833Y447126D01*
X891533Y446226D01*
X891537Y446215D01*
X891531Y446210D01*
X891531Y445410D01*
X891536Y445404D01*
X891532Y445399D01*
X891732Y444499D01*
X891740Y444493D01*
X891737Y444486D01*
X892237Y443586D01*
X892244Y443583D01*
X892243Y443578D01*
X892943Y442778D01*
X892943Y442777D01*
X893743Y441877D01*
X894438Y441083D01*
X894731Y440400D01*
X894731Y439718D01*
X894536Y439134D01*
X894146Y438647D01*
X893560Y438256D01*
X892774Y438059D01*
X891985Y438059D01*
X891494Y438157D01*
X891003Y438354D01*
X890711Y438548D01*
X890421Y438839D01*
X890226Y439229D01*
X890129Y439518D01*
X890129Y439802D01*
X890225Y440088D01*
X890418Y440379D01*
X890807Y440767D01*
X891096Y440863D01*
X891099Y440868D01*
X891102Y440866D01*
X891502Y441066D01*
X891507Y441076D01*
X891515Y441075D01*
X891615Y441175D01*
X891615Y441177D01*
X891616Y441177D01*
X891616Y441181D01*
X891623Y441234D01*
X891605Y441237D01*
X891602Y441254D01*
X891402Y441354D01*
X891386Y441351D01*
X891380Y441359D01*
X891186Y441359D01*
X890792Y441458D01*
X890784Y441454D01*
X890780Y441459D01*
X889980Y441459D01*
X889975Y441456D01*
X889972Y441459D01*
X889372Y441359D01*
X889366Y441353D01*
X889362Y441356D01*
X888362Y440956D01*
X888357Y440948D01*
X888350Y440949D01*
X887952Y440651D01*
X887455Y440352D01*
X887448Y440337D01*
X887438Y440335D01*
X887138Y439835D01*
X887138Y439832D01*
X887136Y439832D01*
X886836Y439232D01*
X886837Y439227D01*
X886833Y439226D01*
X886633Y438626D01*
X886636Y438618D01*
X886631Y438615D01*
X886431Y436815D01*
X886433Y436812D01*
X886431Y436810D01*
X886431Y424010D01*
X886467Y423963D01*
X886474Y423968D01*
X886480Y423961D01*
X886580Y423961D01*
X886608Y423982D01*
G37*
G36*
X1298088Y12502D02*
X1298088Y12502D01*
X1298101Y12503D01*
X1298298Y12799D01*
X1298595Y13095D01*
X1298596Y13100D01*
X1298599Y13100D01*
X1298897Y13498D01*
X1299395Y13995D01*
X1299395Y13999D01*
X1299398Y13998D01*
X1299897Y14597D01*
X1300495Y15195D01*
X1300496Y15201D01*
X1300500Y15201D01*
X1300998Y15898D01*
X1302295Y17195D01*
X1302295Y17199D01*
X1302298Y17198D01*
X1302795Y17795D01*
X1303788Y18590D01*
X1304277Y18883D01*
X1304864Y18981D01*
X1306760Y18981D01*
X1306761Y18982D01*
X1306766Y18982D01*
X1306767Y18982D01*
X1306768Y18981D01*
X1307968Y19181D01*
X1307971Y19184D01*
X1307973Y19183D01*
X1309073Y19483D01*
X1309076Y19486D01*
X1309078Y19484D01*
X1310078Y19884D01*
X1310081Y19889D01*
X1310085Y19888D01*
X1311085Y20488D01*
X1311088Y20494D01*
X1311092Y20493D01*
X1311892Y21193D01*
X1311893Y21195D01*
X1311895Y21195D01*
X1312695Y21995D01*
X1312695Y22000D01*
X1312699Y22000D01*
X1313399Y22900D01*
X1313399Y22906D01*
X1313403Y22906D01*
X1314403Y24706D01*
X1314402Y24715D01*
X1314407Y24717D01*
X1314907Y26517D01*
X1314905Y26524D01*
X1314909Y26527D01*
X1315009Y28327D01*
X1315004Y28335D01*
X1315008Y28339D01*
X1314708Y29939D01*
X1314704Y29943D01*
X1314706Y29947D01*
X1314206Y31347D01*
X1314201Y31350D01*
X1314203Y31355D01*
X1313503Y32555D01*
X1313496Y32558D01*
X1313497Y32563D01*
X1312697Y33463D01*
X1312684Y33465D01*
X1312682Y33474D01*
X1311882Y33874D01*
X1311877Y33873D01*
X1311873Y33877D01*
X1311865Y33871D01*
X1311824Y33863D01*
X1311827Y33843D01*
X1311811Y33830D01*
X1311811Y33038D01*
X1311619Y32462D01*
X1311338Y32275D01*
X1311052Y32179D01*
X1310372Y32179D01*
X1309585Y32573D01*
X1309289Y32770D01*
X1308890Y33069D01*
X1308887Y33069D01*
X1308887Y33071D01*
X1308591Y33268D01*
X1308301Y33559D01*
X1308104Y33952D01*
X1308100Y33954D01*
X1308101Y33957D01*
X1307906Y34250D01*
X1307808Y34642D01*
X1307806Y34644D01*
X1307807Y34646D01*
X1307712Y34930D01*
X1307806Y35211D01*
X1307904Y35408D01*
X1307903Y35413D01*
X1307907Y35414D01*
X1308005Y35708D01*
X1308196Y35996D01*
X1308586Y36288D01*
X1308976Y36483D01*
X1309470Y36582D01*
X1309471Y36583D01*
X1309472Y36582D01*
X1309866Y36681D01*
X1310152Y36681D01*
X1310444Y36583D01*
X1310455Y36587D01*
X1310460Y36581D01*
X1310760Y36581D01*
X1310771Y36589D01*
X1310784Y36587D01*
X1310786Y36600D01*
X1310807Y36617D01*
X1310791Y36638D01*
X1310795Y36665D01*
X1310695Y36765D01*
X1310690Y36766D01*
X1310690Y36769D01*
X1310290Y37069D01*
X1310283Y37069D01*
X1310282Y37074D01*
X1309682Y37374D01*
X1309678Y37373D01*
X1309677Y37376D01*
X1308877Y37676D01*
X1308876Y37676D01*
X1308876Y37677D01*
X1307976Y37977D01*
X1307965Y37973D01*
X1307960Y37979D01*
X1306960Y37979D01*
X1306955Y37975D01*
X1306951Y37978D01*
X1305851Y37778D01*
X1305843Y37770D01*
X1305836Y37773D01*
X1304736Y37173D01*
X1304733Y37166D01*
X1304727Y37167D01*
X1303827Y36367D01*
X1303826Y36359D01*
X1303820Y36359D01*
X1303320Y35659D01*
X1303320Y35648D01*
X1303313Y35646D01*
X1303013Y34746D01*
X1303017Y34735D01*
X1303011Y34730D01*
X1303011Y33930D01*
X1303016Y33924D01*
X1303012Y33919D01*
X1303212Y33019D01*
X1303220Y33013D01*
X1303217Y33006D01*
X1303717Y32106D01*
X1303724Y32103D01*
X1303723Y32098D01*
X1304423Y31298D01*
X1304423Y31297D01*
X1305223Y30397D01*
X1305918Y29603D01*
X1306211Y28920D01*
X1306211Y28238D01*
X1306016Y27654D01*
X1305626Y27167D01*
X1305040Y26776D01*
X1304254Y26579D01*
X1303465Y26579D01*
X1302974Y26677D01*
X1302483Y26874D01*
X1302191Y27068D01*
X1301901Y27359D01*
X1301706Y27749D01*
X1301609Y28038D01*
X1301609Y28322D01*
X1301705Y28608D01*
X1301898Y28899D01*
X1302287Y29287D01*
X1302576Y29383D01*
X1302579Y29388D01*
X1302582Y29386D01*
X1302982Y29586D01*
X1302987Y29596D01*
X1302995Y29595D01*
X1303095Y29695D01*
X1303095Y29697D01*
X1303096Y29697D01*
X1303096Y29701D01*
X1303103Y29754D01*
X1303085Y29757D01*
X1303082Y29774D01*
X1302882Y29874D01*
X1302866Y29871D01*
X1302860Y29879D01*
X1302666Y29879D01*
X1302272Y29978D01*
X1302264Y29974D01*
X1302260Y29979D01*
X1301460Y29979D01*
X1301455Y29976D01*
X1301452Y29979D01*
X1300852Y29879D01*
X1300846Y29873D01*
X1300842Y29876D01*
X1299842Y29476D01*
X1299837Y29468D01*
X1299830Y29469D01*
X1299432Y29171D01*
X1298935Y28872D01*
X1298928Y28857D01*
X1298918Y28855D01*
X1298618Y28355D01*
X1298618Y28352D01*
X1298616Y28352D01*
X1298316Y27752D01*
X1298317Y27747D01*
X1298313Y27746D01*
X1298113Y27146D01*
X1298116Y27138D01*
X1298111Y27135D01*
X1297911Y25335D01*
X1297913Y25332D01*
X1297911Y25330D01*
X1297911Y12530D01*
X1297947Y12483D01*
X1297954Y12488D01*
X1297960Y12481D01*
X1298060Y12481D01*
X1298088Y12502D01*
G37*
G36*
X475128Y12502D02*
X475128Y12502D01*
X475141Y12503D01*
X475338Y12799D01*
X475635Y13095D01*
X475636Y13100D01*
X475639Y13100D01*
X475937Y13498D01*
X476435Y13995D01*
X476435Y13999D01*
X476438Y13998D01*
X476937Y14597D01*
X477535Y15195D01*
X477536Y15201D01*
X477540Y15201D01*
X478038Y15898D01*
X479335Y17195D01*
X479335Y17199D01*
X479338Y17198D01*
X479835Y17795D01*
X480828Y18590D01*
X481317Y18883D01*
X481904Y18981D01*
X483800Y18981D01*
X483801Y18982D01*
X483806Y18982D01*
X483807Y18982D01*
X483808Y18981D01*
X485008Y19181D01*
X485011Y19184D01*
X485013Y19183D01*
X486113Y19483D01*
X486116Y19486D01*
X486118Y19484D01*
X487118Y19884D01*
X487121Y19889D01*
X487125Y19888D01*
X488125Y20488D01*
X488128Y20494D01*
X488132Y20493D01*
X488932Y21193D01*
X488933Y21195D01*
X488935Y21195D01*
X489735Y21995D01*
X489735Y22000D01*
X489739Y22000D01*
X490439Y22900D01*
X490439Y22906D01*
X490443Y22906D01*
X491443Y24706D01*
X491442Y24715D01*
X491447Y24717D01*
X491947Y26517D01*
X491945Y26524D01*
X491949Y26527D01*
X492049Y28327D01*
X492044Y28335D01*
X492048Y28339D01*
X491748Y29939D01*
X491744Y29943D01*
X491746Y29947D01*
X491246Y31347D01*
X491241Y31350D01*
X491243Y31355D01*
X490543Y32555D01*
X490536Y32558D01*
X490537Y32563D01*
X489737Y33463D01*
X489724Y33465D01*
X489722Y33474D01*
X488922Y33874D01*
X488917Y33873D01*
X488913Y33877D01*
X488905Y33871D01*
X488864Y33863D01*
X488867Y33843D01*
X488851Y33830D01*
X488851Y33038D01*
X488659Y32462D01*
X488378Y32275D01*
X488092Y32179D01*
X487412Y32179D01*
X486625Y32573D01*
X486329Y32770D01*
X485930Y33069D01*
X485927Y33069D01*
X485927Y33071D01*
X485631Y33268D01*
X485341Y33559D01*
X485144Y33952D01*
X485140Y33954D01*
X485141Y33957D01*
X484946Y34250D01*
X484848Y34642D01*
X484846Y34644D01*
X484847Y34646D01*
X484752Y34930D01*
X484846Y35211D01*
X484944Y35408D01*
X484943Y35413D01*
X484947Y35414D01*
X485045Y35708D01*
X485236Y35996D01*
X485626Y36288D01*
X486016Y36483D01*
X486510Y36582D01*
X486511Y36583D01*
X486512Y36582D01*
X486906Y36681D01*
X487192Y36681D01*
X487484Y36583D01*
X487495Y36587D01*
X487500Y36581D01*
X487800Y36581D01*
X487811Y36589D01*
X487824Y36587D01*
X487826Y36600D01*
X487847Y36617D01*
X487831Y36638D01*
X487835Y36665D01*
X487735Y36765D01*
X487730Y36766D01*
X487730Y36769D01*
X487330Y37069D01*
X487323Y37069D01*
X487322Y37074D01*
X486722Y37374D01*
X486718Y37373D01*
X486717Y37376D01*
X485917Y37676D01*
X485916Y37676D01*
X485916Y37677D01*
X485016Y37977D01*
X485005Y37973D01*
X485000Y37979D01*
X484000Y37979D01*
X483995Y37975D01*
X483991Y37978D01*
X482891Y37778D01*
X482883Y37770D01*
X482876Y37773D01*
X481776Y37173D01*
X481773Y37166D01*
X481767Y37167D01*
X480867Y36367D01*
X480866Y36359D01*
X480860Y36359D01*
X480360Y35659D01*
X480360Y35648D01*
X480353Y35646D01*
X480053Y34746D01*
X480057Y34735D01*
X480051Y34730D01*
X480051Y33930D01*
X480056Y33924D01*
X480052Y33919D01*
X480252Y33019D01*
X480260Y33013D01*
X480257Y33006D01*
X480757Y32106D01*
X480764Y32103D01*
X480763Y32098D01*
X481463Y31298D01*
X481463Y31297D01*
X482263Y30397D01*
X482958Y29603D01*
X483251Y28920D01*
X483251Y28238D01*
X483056Y27654D01*
X482666Y27167D01*
X482080Y26776D01*
X481294Y26579D01*
X480505Y26579D01*
X480014Y26677D01*
X479523Y26874D01*
X479231Y27068D01*
X478941Y27359D01*
X478746Y27749D01*
X478649Y28038D01*
X478649Y28322D01*
X478745Y28608D01*
X478938Y28899D01*
X479327Y29287D01*
X479616Y29383D01*
X479619Y29388D01*
X479622Y29386D01*
X480022Y29586D01*
X480027Y29596D01*
X480035Y29595D01*
X480135Y29695D01*
X480135Y29697D01*
X480136Y29697D01*
X480136Y29701D01*
X480143Y29754D01*
X480125Y29757D01*
X480122Y29774D01*
X479922Y29874D01*
X479906Y29871D01*
X479900Y29879D01*
X479706Y29879D01*
X479312Y29978D01*
X479304Y29974D01*
X479300Y29979D01*
X478500Y29979D01*
X478495Y29976D01*
X478492Y29979D01*
X477892Y29879D01*
X477886Y29873D01*
X477882Y29876D01*
X476882Y29476D01*
X476877Y29468D01*
X476870Y29469D01*
X476472Y29171D01*
X475975Y28872D01*
X475968Y28857D01*
X475958Y28855D01*
X475658Y28355D01*
X475658Y28352D01*
X475656Y28352D01*
X475356Y27752D01*
X475357Y27747D01*
X475353Y27746D01*
X475153Y27146D01*
X475156Y27138D01*
X475151Y27135D01*
X474951Y25335D01*
X474953Y25332D01*
X474951Y25330D01*
X474951Y12530D01*
X474987Y12483D01*
X474994Y12488D01*
X475000Y12481D01*
X475100Y12481D01*
X475128Y12502D01*
G37*
G36*
X475128Y835462D02*
X475128Y835462D01*
X475141Y835463D01*
X475338Y835759D01*
X475635Y836055D01*
X475636Y836060D01*
X475639Y836060D01*
X475937Y836458D01*
X476435Y836955D01*
X476435Y836959D01*
X476438Y836958D01*
X476937Y837557D01*
X477535Y838155D01*
X477536Y838161D01*
X477540Y838161D01*
X478038Y838858D01*
X479335Y840155D01*
X479335Y840159D01*
X479338Y840158D01*
X479835Y840755D01*
X480828Y841550D01*
X481317Y841843D01*
X481904Y841941D01*
X483800Y841941D01*
X483801Y841942D01*
X483806Y841942D01*
X483807Y841942D01*
X483808Y841941D01*
X485008Y842141D01*
X485011Y842144D01*
X485013Y842143D01*
X486113Y842443D01*
X486116Y842446D01*
X486118Y842444D01*
X487118Y842844D01*
X487121Y842849D01*
X487125Y842848D01*
X488125Y843448D01*
X488128Y843454D01*
X488132Y843453D01*
X488932Y844153D01*
X488933Y844155D01*
X488935Y844155D01*
X489735Y844955D01*
X489735Y844960D01*
X489739Y844960D01*
X490439Y845860D01*
X490439Y845866D01*
X490443Y845866D01*
X491443Y847666D01*
X491442Y847675D01*
X491447Y847677D01*
X491947Y849477D01*
X491945Y849484D01*
X491949Y849487D01*
X492049Y851287D01*
X492044Y851295D01*
X492048Y851299D01*
X491748Y852899D01*
X491744Y852903D01*
X491746Y852907D01*
X491246Y854307D01*
X491241Y854310D01*
X491243Y854315D01*
X490543Y855515D01*
X490536Y855518D01*
X490537Y855523D01*
X489737Y856423D01*
X489724Y856425D01*
X489722Y856434D01*
X488922Y856834D01*
X488917Y856833D01*
X488913Y856837D01*
X488905Y856831D01*
X488864Y856823D01*
X488867Y856803D01*
X488851Y856790D01*
X488851Y855998D01*
X488659Y855422D01*
X488378Y855235D01*
X488092Y855139D01*
X487412Y855139D01*
X486625Y855533D01*
X486329Y855730D01*
X485930Y856029D01*
X485927Y856029D01*
X485927Y856031D01*
X485631Y856228D01*
X485341Y856519D01*
X485144Y856912D01*
X485140Y856914D01*
X485141Y856917D01*
X484946Y857210D01*
X484848Y857602D01*
X484846Y857604D01*
X484847Y857606D01*
X484752Y857890D01*
X484846Y858171D01*
X484944Y858368D01*
X484943Y858373D01*
X484947Y858374D01*
X485045Y858668D01*
X485236Y858956D01*
X485626Y859248D01*
X486016Y859443D01*
X486510Y859542D01*
X486511Y859543D01*
X486512Y859542D01*
X486906Y859641D01*
X487192Y859641D01*
X487484Y859543D01*
X487495Y859547D01*
X487500Y859541D01*
X487800Y859541D01*
X487811Y859549D01*
X487824Y859547D01*
X487826Y859560D01*
X487847Y859577D01*
X487831Y859598D01*
X487835Y859625D01*
X487735Y859725D01*
X487730Y859726D01*
X487730Y859729D01*
X487330Y860029D01*
X487323Y860029D01*
X487322Y860034D01*
X486722Y860334D01*
X486718Y860333D01*
X486717Y860336D01*
X485917Y860636D01*
X485916Y860636D01*
X485916Y860637D01*
X485016Y860937D01*
X485005Y860933D01*
X485000Y860939D01*
X484000Y860939D01*
X483995Y860935D01*
X483991Y860938D01*
X482891Y860738D01*
X482883Y860730D01*
X482876Y860733D01*
X481776Y860133D01*
X481773Y860126D01*
X481767Y860127D01*
X480867Y859327D01*
X480866Y859319D01*
X480860Y859319D01*
X480360Y858619D01*
X480360Y858608D01*
X480353Y858606D01*
X480053Y857706D01*
X480057Y857695D01*
X480051Y857690D01*
X480051Y856890D01*
X480056Y856884D01*
X480052Y856879D01*
X480252Y855979D01*
X480260Y855973D01*
X480257Y855966D01*
X480757Y855066D01*
X480764Y855063D01*
X480763Y855058D01*
X481463Y854258D01*
X481463Y854257D01*
X482263Y853357D01*
X482958Y852563D01*
X483251Y851880D01*
X483251Y851198D01*
X483056Y850614D01*
X482666Y850127D01*
X482080Y849736D01*
X481294Y849539D01*
X480505Y849539D01*
X480014Y849637D01*
X479523Y849834D01*
X479231Y850028D01*
X478941Y850319D01*
X478746Y850709D01*
X478649Y850998D01*
X478649Y851282D01*
X478745Y851568D01*
X478938Y851859D01*
X479327Y852247D01*
X479616Y852343D01*
X479619Y852348D01*
X479622Y852346D01*
X480022Y852546D01*
X480027Y852556D01*
X480035Y852555D01*
X480135Y852655D01*
X480135Y852657D01*
X480136Y852657D01*
X480136Y852661D01*
X480143Y852714D01*
X480125Y852717D01*
X480122Y852734D01*
X479922Y852834D01*
X479906Y852831D01*
X479900Y852839D01*
X479706Y852839D01*
X479312Y852938D01*
X479304Y852934D01*
X479300Y852939D01*
X478500Y852939D01*
X478495Y852936D01*
X478492Y852939D01*
X477892Y852839D01*
X477886Y852833D01*
X477882Y852836D01*
X476882Y852436D01*
X476877Y852428D01*
X476870Y852429D01*
X476472Y852131D01*
X475975Y851832D01*
X475968Y851817D01*
X475958Y851815D01*
X475658Y851315D01*
X475658Y851312D01*
X475656Y851312D01*
X475356Y850712D01*
X475357Y850707D01*
X475353Y850706D01*
X475153Y850106D01*
X475156Y850098D01*
X475151Y850095D01*
X474951Y848295D01*
X474953Y848292D01*
X474951Y848290D01*
X474951Y835490D01*
X474987Y835443D01*
X474994Y835448D01*
X475000Y835441D01*
X475100Y835441D01*
X475128Y835462D01*
G37*
G36*
X63648Y835462D02*
X63648Y835462D01*
X63661Y835463D01*
X63858Y835759D01*
X64155Y836055D01*
X64156Y836060D01*
X64159Y836060D01*
X64457Y836458D01*
X64955Y836955D01*
X64955Y836959D01*
X64958Y836958D01*
X65457Y837557D01*
X66055Y838155D01*
X66056Y838161D01*
X66060Y838161D01*
X66558Y838858D01*
X67855Y840155D01*
X67855Y840159D01*
X67858Y840158D01*
X68355Y840755D01*
X69348Y841550D01*
X69837Y841843D01*
X70424Y841941D01*
X72320Y841941D01*
X72321Y841942D01*
X72326Y841942D01*
X72327Y841942D01*
X72328Y841941D01*
X73528Y842141D01*
X73531Y842144D01*
X73533Y842143D01*
X74633Y842443D01*
X74636Y842446D01*
X74638Y842444D01*
X75638Y842844D01*
X75641Y842849D01*
X75645Y842848D01*
X76645Y843448D01*
X76648Y843454D01*
X76652Y843453D01*
X77452Y844153D01*
X77453Y844155D01*
X77455Y844155D01*
X78255Y844955D01*
X78255Y844960D01*
X78259Y844960D01*
X78959Y845860D01*
X78959Y845866D01*
X78963Y845866D01*
X79963Y847666D01*
X79962Y847675D01*
X79967Y847677D01*
X80467Y849477D01*
X80465Y849484D01*
X80469Y849487D01*
X80569Y851287D01*
X80564Y851295D01*
X80568Y851299D01*
X80268Y852899D01*
X80264Y852903D01*
X80266Y852907D01*
X79766Y854307D01*
X79761Y854310D01*
X79763Y854315D01*
X79063Y855515D01*
X79056Y855518D01*
X79057Y855523D01*
X78257Y856423D01*
X78244Y856425D01*
X78242Y856434D01*
X77442Y856834D01*
X77437Y856833D01*
X77433Y856837D01*
X77425Y856831D01*
X77384Y856823D01*
X77387Y856803D01*
X77371Y856790D01*
X77371Y855998D01*
X77179Y855422D01*
X76898Y855235D01*
X76612Y855139D01*
X75932Y855139D01*
X75145Y855533D01*
X74849Y855730D01*
X74450Y856029D01*
X74447Y856029D01*
X74447Y856031D01*
X74151Y856228D01*
X73861Y856519D01*
X73664Y856912D01*
X73660Y856914D01*
X73661Y856917D01*
X73466Y857210D01*
X73368Y857602D01*
X73366Y857604D01*
X73367Y857606D01*
X73272Y857890D01*
X73366Y858171D01*
X73464Y858368D01*
X73463Y858373D01*
X73467Y858374D01*
X73565Y858668D01*
X73756Y858956D01*
X74146Y859248D01*
X74536Y859443D01*
X75030Y859542D01*
X75031Y859543D01*
X75032Y859542D01*
X75426Y859641D01*
X75712Y859641D01*
X76004Y859543D01*
X76015Y859547D01*
X76020Y859541D01*
X76320Y859541D01*
X76331Y859549D01*
X76344Y859547D01*
X76346Y859560D01*
X76367Y859577D01*
X76351Y859598D01*
X76355Y859625D01*
X76255Y859725D01*
X76250Y859726D01*
X76250Y859729D01*
X75850Y860029D01*
X75843Y860029D01*
X75842Y860034D01*
X75242Y860334D01*
X75238Y860333D01*
X75237Y860336D01*
X74437Y860636D01*
X74436Y860636D01*
X74436Y860637D01*
X73536Y860937D01*
X73525Y860933D01*
X73520Y860939D01*
X72520Y860939D01*
X72515Y860935D01*
X72511Y860938D01*
X71411Y860738D01*
X71403Y860730D01*
X71396Y860733D01*
X70296Y860133D01*
X70293Y860126D01*
X70287Y860127D01*
X69387Y859327D01*
X69386Y859319D01*
X69380Y859319D01*
X68880Y858619D01*
X68880Y858608D01*
X68873Y858606D01*
X68573Y857706D01*
X68577Y857695D01*
X68571Y857690D01*
X68571Y856890D01*
X68576Y856884D01*
X68572Y856879D01*
X68772Y855979D01*
X68780Y855973D01*
X68777Y855966D01*
X69277Y855066D01*
X69284Y855063D01*
X69283Y855058D01*
X69983Y854258D01*
X69983Y854257D01*
X70783Y853357D01*
X71478Y852563D01*
X71771Y851880D01*
X71771Y851198D01*
X71576Y850614D01*
X71186Y850127D01*
X70600Y849736D01*
X69814Y849539D01*
X69025Y849539D01*
X68534Y849637D01*
X68043Y849834D01*
X67751Y850028D01*
X67461Y850319D01*
X67266Y850709D01*
X67169Y850998D01*
X67169Y851282D01*
X67265Y851568D01*
X67458Y851859D01*
X67847Y852247D01*
X68136Y852343D01*
X68139Y852348D01*
X68142Y852346D01*
X68542Y852546D01*
X68547Y852556D01*
X68555Y852555D01*
X68655Y852655D01*
X68655Y852657D01*
X68656Y852657D01*
X68656Y852661D01*
X68663Y852714D01*
X68645Y852717D01*
X68642Y852734D01*
X68442Y852834D01*
X68426Y852831D01*
X68420Y852839D01*
X68226Y852839D01*
X67832Y852938D01*
X67824Y852934D01*
X67820Y852939D01*
X67020Y852939D01*
X67015Y852936D01*
X67012Y852939D01*
X66412Y852839D01*
X66406Y852833D01*
X66402Y852836D01*
X65402Y852436D01*
X65397Y852428D01*
X65390Y852429D01*
X64992Y852131D01*
X64495Y851832D01*
X64488Y851817D01*
X64478Y851815D01*
X64178Y851315D01*
X64178Y851312D01*
X64176Y851312D01*
X63876Y850712D01*
X63877Y850707D01*
X63873Y850706D01*
X63673Y850106D01*
X63676Y850098D01*
X63671Y850095D01*
X63471Y848295D01*
X63473Y848292D01*
X63471Y848290D01*
X63471Y835490D01*
X63507Y835443D01*
X63514Y835448D01*
X63520Y835441D01*
X63620Y835441D01*
X63648Y835462D01*
G37*
G36*
X886608Y835462D02*
X886608Y835462D01*
X886621Y835463D01*
X886818Y835759D01*
X887115Y836055D01*
X887116Y836060D01*
X887119Y836060D01*
X887417Y836458D01*
X887915Y836955D01*
X887915Y836959D01*
X887918Y836958D01*
X888417Y837557D01*
X889015Y838155D01*
X889016Y838161D01*
X889020Y838161D01*
X889518Y838858D01*
X890815Y840155D01*
X890815Y840159D01*
X890818Y840158D01*
X891315Y840755D01*
X892308Y841550D01*
X892797Y841843D01*
X893384Y841941D01*
X895280Y841941D01*
X895281Y841942D01*
X895286Y841942D01*
X895287Y841942D01*
X895288Y841941D01*
X896488Y842141D01*
X896491Y842144D01*
X896493Y842143D01*
X897593Y842443D01*
X897596Y842446D01*
X897598Y842444D01*
X898598Y842844D01*
X898601Y842849D01*
X898605Y842848D01*
X899605Y843448D01*
X899608Y843454D01*
X899612Y843453D01*
X900412Y844153D01*
X900413Y844155D01*
X900415Y844155D01*
X901215Y844955D01*
X901215Y844960D01*
X901219Y844960D01*
X901919Y845860D01*
X901919Y845866D01*
X901923Y845866D01*
X902923Y847666D01*
X902922Y847675D01*
X902927Y847677D01*
X903427Y849477D01*
X903425Y849484D01*
X903429Y849487D01*
X903529Y851287D01*
X903524Y851295D01*
X903528Y851299D01*
X903228Y852899D01*
X903224Y852903D01*
X903226Y852907D01*
X902726Y854307D01*
X902721Y854310D01*
X902723Y854315D01*
X902023Y855515D01*
X902016Y855518D01*
X902017Y855523D01*
X901217Y856423D01*
X901204Y856425D01*
X901202Y856434D01*
X900402Y856834D01*
X900397Y856833D01*
X900393Y856837D01*
X900385Y856831D01*
X900344Y856823D01*
X900347Y856803D01*
X900331Y856790D01*
X900331Y855998D01*
X900139Y855422D01*
X899858Y855235D01*
X899572Y855139D01*
X898892Y855139D01*
X898105Y855533D01*
X897809Y855730D01*
X897410Y856029D01*
X897407Y856029D01*
X897407Y856031D01*
X897111Y856228D01*
X896821Y856519D01*
X896624Y856912D01*
X896620Y856914D01*
X896621Y856917D01*
X896426Y857210D01*
X896328Y857602D01*
X896326Y857604D01*
X896327Y857606D01*
X896232Y857890D01*
X896326Y858171D01*
X896424Y858368D01*
X896423Y858373D01*
X896427Y858374D01*
X896525Y858668D01*
X896716Y858956D01*
X897106Y859248D01*
X897496Y859443D01*
X897990Y859542D01*
X897991Y859543D01*
X897992Y859542D01*
X898386Y859641D01*
X898672Y859641D01*
X898964Y859543D01*
X898975Y859547D01*
X898980Y859541D01*
X899280Y859541D01*
X899291Y859549D01*
X899304Y859547D01*
X899306Y859560D01*
X899327Y859577D01*
X899311Y859598D01*
X899315Y859625D01*
X899215Y859725D01*
X899210Y859726D01*
X899210Y859729D01*
X898810Y860029D01*
X898803Y860029D01*
X898802Y860034D01*
X898202Y860334D01*
X898198Y860333D01*
X898197Y860336D01*
X897397Y860636D01*
X897396Y860636D01*
X897396Y860637D01*
X896496Y860937D01*
X896485Y860933D01*
X896480Y860939D01*
X895480Y860939D01*
X895475Y860935D01*
X895471Y860938D01*
X894371Y860738D01*
X894363Y860730D01*
X894356Y860733D01*
X893256Y860133D01*
X893253Y860126D01*
X893247Y860127D01*
X892347Y859327D01*
X892346Y859319D01*
X892340Y859319D01*
X891840Y858619D01*
X891840Y858608D01*
X891833Y858606D01*
X891533Y857706D01*
X891537Y857695D01*
X891531Y857690D01*
X891531Y856890D01*
X891536Y856884D01*
X891532Y856879D01*
X891732Y855979D01*
X891740Y855973D01*
X891737Y855966D01*
X892237Y855066D01*
X892244Y855063D01*
X892243Y855058D01*
X892943Y854258D01*
X892943Y854257D01*
X893743Y853357D01*
X894438Y852563D01*
X894731Y851880D01*
X894731Y851198D01*
X894536Y850614D01*
X894146Y850127D01*
X893560Y849736D01*
X892774Y849539D01*
X891985Y849539D01*
X891494Y849637D01*
X891003Y849834D01*
X890711Y850028D01*
X890421Y850319D01*
X890226Y850709D01*
X890129Y850998D01*
X890129Y851282D01*
X890225Y851568D01*
X890418Y851859D01*
X890807Y852247D01*
X891096Y852343D01*
X891099Y852348D01*
X891102Y852346D01*
X891502Y852546D01*
X891507Y852556D01*
X891515Y852555D01*
X891615Y852655D01*
X891615Y852657D01*
X891616Y852657D01*
X891616Y852661D01*
X891623Y852714D01*
X891605Y852717D01*
X891602Y852734D01*
X891402Y852834D01*
X891386Y852831D01*
X891380Y852839D01*
X891186Y852839D01*
X890792Y852938D01*
X890784Y852934D01*
X890780Y852939D01*
X889980Y852939D01*
X889975Y852936D01*
X889972Y852939D01*
X889372Y852839D01*
X889366Y852833D01*
X889362Y852836D01*
X888362Y852436D01*
X888357Y852428D01*
X888350Y852429D01*
X887952Y852131D01*
X887455Y851832D01*
X887448Y851817D01*
X887438Y851815D01*
X887138Y851315D01*
X887138Y851312D01*
X887136Y851312D01*
X886836Y850712D01*
X886837Y850707D01*
X886833Y850706D01*
X886633Y850106D01*
X886636Y850098D01*
X886631Y850095D01*
X886431Y848295D01*
X886433Y848292D01*
X886431Y848290D01*
X886431Y835490D01*
X886467Y835443D01*
X886474Y835448D01*
X886480Y835441D01*
X886580Y835441D01*
X886608Y835462D01*
G37*
G36*
X1298088Y835462D02*
X1298088Y835462D01*
X1298101Y835463D01*
X1298298Y835759D01*
X1298595Y836055D01*
X1298596Y836060D01*
X1298599Y836060D01*
X1298897Y836458D01*
X1299395Y836955D01*
X1299395Y836959D01*
X1299398Y836958D01*
X1299897Y837557D01*
X1300495Y838155D01*
X1300496Y838161D01*
X1300500Y838161D01*
X1300998Y838858D01*
X1302295Y840155D01*
X1302295Y840159D01*
X1302298Y840158D01*
X1302795Y840755D01*
X1303788Y841550D01*
X1304277Y841843D01*
X1304864Y841941D01*
X1306760Y841941D01*
X1306761Y841942D01*
X1306766Y841942D01*
X1306767Y841942D01*
X1306768Y841941D01*
X1307968Y842141D01*
X1307971Y842144D01*
X1307973Y842143D01*
X1309073Y842443D01*
X1309076Y842446D01*
X1309078Y842444D01*
X1310078Y842844D01*
X1310081Y842849D01*
X1310085Y842848D01*
X1311085Y843448D01*
X1311088Y843454D01*
X1311092Y843453D01*
X1311892Y844153D01*
X1311893Y844155D01*
X1311895Y844155D01*
X1312695Y844955D01*
X1312695Y844960D01*
X1312699Y844960D01*
X1313399Y845860D01*
X1313399Y845866D01*
X1313403Y845866D01*
X1314403Y847666D01*
X1314402Y847675D01*
X1314407Y847677D01*
X1314907Y849477D01*
X1314905Y849484D01*
X1314909Y849487D01*
X1315009Y851287D01*
X1315004Y851295D01*
X1315008Y851299D01*
X1314708Y852899D01*
X1314704Y852903D01*
X1314706Y852907D01*
X1314206Y854307D01*
X1314201Y854310D01*
X1314203Y854315D01*
X1313503Y855515D01*
X1313496Y855518D01*
X1313497Y855523D01*
X1312697Y856423D01*
X1312684Y856425D01*
X1312682Y856434D01*
X1311882Y856834D01*
X1311877Y856833D01*
X1311873Y856837D01*
X1311865Y856831D01*
X1311824Y856823D01*
X1311827Y856803D01*
X1311811Y856790D01*
X1311811Y855998D01*
X1311619Y855422D01*
X1311338Y855235D01*
X1311052Y855139D01*
X1310372Y855139D01*
X1309585Y855533D01*
X1309289Y855730D01*
X1308890Y856029D01*
X1308887Y856029D01*
X1308887Y856031D01*
X1308591Y856228D01*
X1308301Y856519D01*
X1308104Y856912D01*
X1308100Y856914D01*
X1308101Y856917D01*
X1307906Y857210D01*
X1307808Y857602D01*
X1307806Y857604D01*
X1307807Y857606D01*
X1307712Y857890D01*
X1307806Y858171D01*
X1307904Y858368D01*
X1307903Y858373D01*
X1307907Y858374D01*
X1308005Y858668D01*
X1308196Y858956D01*
X1308586Y859248D01*
X1308976Y859443D01*
X1309470Y859542D01*
X1309471Y859543D01*
X1309472Y859542D01*
X1309866Y859641D01*
X1310152Y859641D01*
X1310444Y859543D01*
X1310455Y859547D01*
X1310460Y859541D01*
X1310760Y859541D01*
X1310771Y859549D01*
X1310784Y859547D01*
X1310786Y859560D01*
X1310807Y859577D01*
X1310791Y859598D01*
X1310795Y859625D01*
X1310695Y859725D01*
X1310690Y859726D01*
X1310690Y859729D01*
X1310290Y860029D01*
X1310283Y860029D01*
X1310282Y860034D01*
X1309682Y860334D01*
X1309678Y860333D01*
X1309677Y860336D01*
X1308877Y860636D01*
X1308876Y860636D01*
X1308876Y860637D01*
X1307976Y860937D01*
X1307965Y860933D01*
X1307960Y860939D01*
X1306960Y860939D01*
X1306955Y860935D01*
X1306951Y860938D01*
X1305851Y860738D01*
X1305843Y860730D01*
X1305836Y860733D01*
X1304736Y860133D01*
X1304733Y860126D01*
X1304727Y860127D01*
X1303827Y859327D01*
X1303826Y859319D01*
X1303820Y859319D01*
X1303320Y858619D01*
X1303320Y858608D01*
X1303313Y858606D01*
X1303013Y857706D01*
X1303017Y857695D01*
X1303011Y857690D01*
X1303011Y856890D01*
X1303016Y856884D01*
X1303012Y856879D01*
X1303212Y855979D01*
X1303220Y855973D01*
X1303217Y855966D01*
X1303717Y855066D01*
X1303724Y855063D01*
X1303723Y855058D01*
X1304423Y854258D01*
X1304423Y854257D01*
X1305223Y853357D01*
X1305918Y852563D01*
X1306211Y851880D01*
X1306211Y851198D01*
X1306016Y850614D01*
X1305626Y850127D01*
X1305040Y849736D01*
X1304254Y849539D01*
X1303465Y849539D01*
X1302974Y849637D01*
X1302483Y849834D01*
X1302191Y850028D01*
X1301901Y850319D01*
X1301706Y850709D01*
X1301609Y850998D01*
X1301609Y851282D01*
X1301705Y851568D01*
X1301898Y851859D01*
X1302287Y852247D01*
X1302576Y852343D01*
X1302579Y852348D01*
X1302582Y852346D01*
X1302982Y852546D01*
X1302987Y852556D01*
X1302995Y852555D01*
X1303095Y852655D01*
X1303095Y852657D01*
X1303096Y852657D01*
X1303096Y852661D01*
X1303103Y852714D01*
X1303085Y852717D01*
X1303082Y852734D01*
X1302882Y852834D01*
X1302866Y852831D01*
X1302860Y852839D01*
X1302666Y852839D01*
X1302272Y852938D01*
X1302264Y852934D01*
X1302260Y852939D01*
X1301460Y852939D01*
X1301455Y852936D01*
X1301452Y852939D01*
X1300852Y852839D01*
X1300846Y852833D01*
X1300842Y852836D01*
X1299842Y852436D01*
X1299837Y852428D01*
X1299830Y852429D01*
X1299432Y852131D01*
X1298935Y851832D01*
X1298928Y851817D01*
X1298918Y851815D01*
X1298618Y851315D01*
X1298618Y851312D01*
X1298616Y851312D01*
X1298316Y850712D01*
X1298317Y850707D01*
X1298313Y850706D01*
X1298113Y850106D01*
X1298116Y850098D01*
X1298111Y850095D01*
X1297911Y848295D01*
X1297913Y848292D01*
X1297911Y848290D01*
X1297911Y835490D01*
X1297947Y835443D01*
X1297954Y835448D01*
X1297960Y835441D01*
X1298060Y835441D01*
X1298088Y835462D01*
G37*
G36*
X63648Y12502D02*
X63648Y12502D01*
X63661Y12503D01*
X63858Y12799D01*
X64155Y13095D01*
X64156Y13100D01*
X64159Y13100D01*
X64457Y13498D01*
X64955Y13995D01*
X64955Y13999D01*
X64958Y13998D01*
X65457Y14597D01*
X66055Y15195D01*
X66056Y15201D01*
X66060Y15201D01*
X66558Y15898D01*
X67855Y17195D01*
X67855Y17199D01*
X67858Y17198D01*
X68355Y17795D01*
X69348Y18590D01*
X69837Y18883D01*
X70424Y18981D01*
X72320Y18981D01*
X72321Y18982D01*
X72326Y18982D01*
X72327Y18982D01*
X72328Y18981D01*
X73528Y19181D01*
X73531Y19184D01*
X73533Y19183D01*
X74633Y19483D01*
X74636Y19486D01*
X74638Y19484D01*
X75638Y19884D01*
X75641Y19889D01*
X75645Y19888D01*
X76645Y20488D01*
X76648Y20494D01*
X76652Y20493D01*
X77452Y21193D01*
X77453Y21195D01*
X77455Y21195D01*
X78255Y21995D01*
X78255Y22000D01*
X78259Y22000D01*
X78959Y22900D01*
X78959Y22906D01*
X78963Y22906D01*
X79963Y24706D01*
X79962Y24715D01*
X79967Y24717D01*
X80467Y26517D01*
X80465Y26524D01*
X80469Y26527D01*
X80569Y28327D01*
X80564Y28335D01*
X80568Y28339D01*
X80268Y29939D01*
X80264Y29943D01*
X80266Y29947D01*
X79766Y31347D01*
X79761Y31350D01*
X79763Y31355D01*
X79063Y32555D01*
X79056Y32558D01*
X79057Y32563D01*
X78257Y33463D01*
X78244Y33465D01*
X78242Y33474D01*
X77442Y33874D01*
X77437Y33873D01*
X77433Y33877D01*
X77425Y33871D01*
X77384Y33863D01*
X77387Y33843D01*
X77371Y33830D01*
X77371Y33038D01*
X77179Y32462D01*
X76898Y32275D01*
X76612Y32179D01*
X75932Y32179D01*
X75145Y32573D01*
X74849Y32770D01*
X74450Y33069D01*
X74447Y33069D01*
X74447Y33071D01*
X74151Y33268D01*
X73861Y33559D01*
X73664Y33952D01*
X73660Y33954D01*
X73661Y33957D01*
X73466Y34250D01*
X73368Y34642D01*
X73366Y34644D01*
X73367Y34646D01*
X73272Y34930D01*
X73366Y35211D01*
X73464Y35408D01*
X73463Y35413D01*
X73467Y35414D01*
X73565Y35708D01*
X73756Y35996D01*
X74146Y36288D01*
X74536Y36483D01*
X75030Y36582D01*
X75031Y36583D01*
X75032Y36582D01*
X75426Y36681D01*
X75712Y36681D01*
X76004Y36583D01*
X76015Y36587D01*
X76020Y36581D01*
X76320Y36581D01*
X76331Y36589D01*
X76344Y36587D01*
X76346Y36600D01*
X76367Y36617D01*
X76351Y36638D01*
X76355Y36665D01*
X76255Y36765D01*
X76250Y36766D01*
X76250Y36769D01*
X75850Y37069D01*
X75843Y37069D01*
X75842Y37074D01*
X75242Y37374D01*
X75238Y37373D01*
X75237Y37376D01*
X74437Y37676D01*
X74436Y37676D01*
X74436Y37677D01*
X73536Y37977D01*
X73525Y37973D01*
X73520Y37979D01*
X72520Y37979D01*
X72515Y37975D01*
X72511Y37978D01*
X71411Y37778D01*
X71403Y37770D01*
X71396Y37773D01*
X70296Y37173D01*
X70293Y37166D01*
X70287Y37167D01*
X69387Y36367D01*
X69386Y36359D01*
X69380Y36359D01*
X68880Y35659D01*
X68880Y35648D01*
X68873Y35646D01*
X68573Y34746D01*
X68577Y34735D01*
X68571Y34730D01*
X68571Y33930D01*
X68576Y33924D01*
X68572Y33919D01*
X68772Y33019D01*
X68780Y33013D01*
X68777Y33006D01*
X69277Y32106D01*
X69284Y32103D01*
X69283Y32098D01*
X69983Y31298D01*
X69983Y31297D01*
X70783Y30397D01*
X71478Y29603D01*
X71771Y28920D01*
X71771Y28238D01*
X71576Y27654D01*
X71186Y27167D01*
X70600Y26776D01*
X69814Y26579D01*
X69025Y26579D01*
X68534Y26677D01*
X68043Y26874D01*
X67751Y27068D01*
X67461Y27359D01*
X67266Y27749D01*
X67169Y28038D01*
X67169Y28322D01*
X67265Y28608D01*
X67458Y28899D01*
X67847Y29287D01*
X68136Y29383D01*
X68139Y29388D01*
X68142Y29386D01*
X68542Y29586D01*
X68547Y29596D01*
X68555Y29595D01*
X68655Y29695D01*
X68655Y29697D01*
X68656Y29697D01*
X68656Y29701D01*
X68663Y29754D01*
X68645Y29757D01*
X68642Y29774D01*
X68442Y29874D01*
X68426Y29871D01*
X68420Y29879D01*
X68226Y29879D01*
X67832Y29978D01*
X67824Y29974D01*
X67820Y29979D01*
X67020Y29979D01*
X67015Y29976D01*
X67012Y29979D01*
X66412Y29879D01*
X66406Y29873D01*
X66402Y29876D01*
X65402Y29476D01*
X65397Y29468D01*
X65390Y29469D01*
X64992Y29171D01*
X64495Y28872D01*
X64488Y28857D01*
X64478Y28855D01*
X64178Y28355D01*
X64178Y28352D01*
X64176Y28352D01*
X63876Y27752D01*
X63877Y27747D01*
X63873Y27746D01*
X63673Y27146D01*
X63676Y27138D01*
X63671Y27135D01*
X63471Y25335D01*
X63473Y25332D01*
X63471Y25330D01*
X63471Y12530D01*
X63507Y12483D01*
X63514Y12488D01*
X63520Y12481D01*
X63620Y12481D01*
X63648Y12502D01*
G37*
D10*
X6350Y400050D03*
X400050Y6350D03*
D11*
X381000Y25400D03*
X25400Y381000D03*
X381000Y381000D03*
X25400Y25400D03*
D12*
X39720Y333460D03*
D13*
X95400Y384252D02*
X95400Y389572D01*
X102720Y389572D01*
X102720Y384252D01*
X95400Y384252D01*
X95400Y386631D02*
X102720Y386631D01*
X102720Y389010D02*
X95400Y389010D01*
X95400Y366572D02*
X95400Y361252D01*
X95400Y366572D02*
X102720Y366572D01*
X102720Y361252D01*
X95400Y361252D01*
X95400Y363631D02*
X102720Y363631D01*
X102720Y366010D02*
X95400Y366010D01*
D14*
X80695Y364965D02*
X80695Y374955D01*
X80695Y364965D02*
X71705Y364965D01*
X71705Y374955D01*
X80695Y374955D01*
X80695Y367373D02*
X71705Y367373D01*
X71705Y369781D02*
X80695Y369781D01*
X80695Y372189D02*
X71705Y372189D01*
X71705Y374597D02*
X80695Y374597D01*
X80695Y381965D02*
X80695Y391955D01*
X80695Y381965D02*
X71705Y381965D01*
X71705Y391955D01*
X80695Y391955D01*
X80695Y384373D02*
X71705Y384373D01*
X71705Y386781D02*
X80695Y386781D01*
X80695Y389189D02*
X71705Y389189D01*
X71705Y391597D02*
X80695Y391597D01*
X326085Y377875D02*
X336075Y377875D01*
X336075Y368885D01*
X326085Y368885D01*
X326085Y377875D01*
X326085Y371293D02*
X336075Y371293D01*
X336075Y373701D02*
X326085Y373701D01*
X326085Y376109D02*
X336075Y376109D01*
X319075Y377875D02*
X309085Y377875D01*
X319075Y377875D02*
X319075Y368885D01*
X309085Y368885D01*
X309085Y377875D01*
X309085Y371293D02*
X319075Y371293D01*
X319075Y373701D02*
X309085Y373701D01*
X309085Y376109D02*
X319075Y376109D01*
X326085Y353745D02*
X336075Y353745D01*
X336075Y344755D01*
X326085Y344755D01*
X326085Y353745D01*
X326085Y347163D02*
X336075Y347163D01*
X336075Y349571D02*
X326085Y349571D01*
X326085Y351979D02*
X336075Y351979D01*
X319075Y353745D02*
X309085Y353745D01*
X319075Y353745D02*
X319075Y344755D01*
X309085Y344755D01*
X309085Y353745D01*
X309085Y347163D02*
X319075Y347163D01*
X319075Y349571D02*
X309085Y349571D01*
X309085Y351979D02*
X319075Y351979D01*
X388035Y123495D02*
X388035Y113505D01*
X379045Y113505D01*
X379045Y123495D01*
X388035Y123495D01*
X388035Y115913D02*
X379045Y115913D01*
X379045Y118321D02*
X388035Y118321D01*
X388035Y120729D02*
X379045Y120729D01*
X379045Y123137D02*
X388035Y123137D01*
X388035Y130505D02*
X388035Y140495D01*
X388035Y130505D02*
X379045Y130505D01*
X379045Y140495D01*
X388035Y140495D01*
X388035Y132913D02*
X379045Y132913D01*
X379045Y135321D02*
X388035Y135321D01*
X388035Y137729D02*
X379045Y137729D01*
X379045Y140137D02*
X388035Y140137D01*
X388035Y77775D02*
X388035Y67785D01*
X379045Y67785D01*
X379045Y77775D01*
X388035Y77775D01*
X388035Y70193D02*
X379045Y70193D01*
X379045Y72601D02*
X388035Y72601D01*
X388035Y75009D02*
X379045Y75009D01*
X379045Y77417D02*
X388035Y77417D01*
X388035Y84785D02*
X388035Y94775D01*
X388035Y84785D02*
X379045Y84785D01*
X379045Y94775D01*
X388035Y94775D01*
X388035Y87193D02*
X379045Y87193D01*
X379045Y89601D02*
X388035Y89601D01*
X388035Y92009D02*
X379045Y92009D01*
X379045Y94417D02*
X388035Y94417D01*
X353645Y94775D02*
X353645Y84785D01*
X353645Y94775D02*
X362635Y94775D01*
X362635Y84785D01*
X353645Y84785D01*
X353645Y87193D02*
X362635Y87193D01*
X362635Y89601D02*
X353645Y89601D01*
X353645Y92009D02*
X362635Y92009D01*
X362635Y94417D02*
X353645Y94417D01*
X353645Y77775D02*
X353645Y67785D01*
X353645Y77775D02*
X362635Y77775D01*
X362635Y67785D01*
X353645Y67785D01*
X353645Y70193D02*
X362635Y70193D01*
X362635Y72601D02*
X353645Y72601D01*
X353645Y75009D02*
X362635Y75009D01*
X362635Y77417D02*
X353645Y77417D01*
X353645Y130505D02*
X353645Y140495D01*
X362635Y140495D01*
X362635Y130505D01*
X353645Y130505D01*
X353645Y132913D02*
X362635Y132913D01*
X362635Y135321D02*
X353645Y135321D01*
X353645Y137729D02*
X362635Y137729D01*
X362635Y140137D02*
X353645Y140137D01*
X353645Y123495D02*
X353645Y113505D01*
X353645Y123495D02*
X362635Y123495D01*
X362635Y113505D01*
X353645Y113505D01*
X353645Y115913D02*
X362635Y115913D01*
X362635Y118321D02*
X353645Y118321D01*
X353645Y120729D02*
X362635Y120729D01*
X362635Y123137D02*
X353645Y123137D01*
D15*
X131950Y241200D03*
X131950Y222200D03*
X131950Y203200D03*
X131950Y184200D03*
X131950Y165200D03*
X274450Y165200D03*
X274450Y184200D03*
X274450Y203200D03*
X274450Y222200D03*
X274450Y241200D03*
D16*
X165200Y274450D03*
X184200Y274450D03*
X203200Y274450D03*
X222200Y274450D03*
X241200Y274450D03*
X165200Y131950D03*
X184200Y131950D03*
X203200Y131950D03*
X222200Y131950D03*
X241200Y131950D03*
D17*
X25225Y77175D02*
X25225Y70145D01*
X18195Y70145D01*
X18195Y77175D01*
X25225Y77175D01*
X25225Y74414D02*
X18195Y74414D01*
X42765Y77175D02*
X42765Y70145D01*
X35735Y70145D01*
X35735Y77175D01*
X42765Y77175D01*
X42765Y74414D02*
X35735Y74414D01*
D14*
X33985Y123875D02*
X43975Y123875D01*
X43975Y114885D01*
X33985Y114885D01*
X33985Y123875D01*
X33985Y117293D02*
X43975Y117293D01*
X43975Y119701D02*
X33985Y119701D01*
X33985Y122109D02*
X43975Y122109D01*
X26975Y123875D02*
X16985Y123875D01*
X26975Y123875D02*
X26975Y114885D01*
X16985Y114885D01*
X16985Y123875D01*
X16985Y117293D02*
X26975Y117293D01*
X26975Y119701D02*
X16985Y119701D01*
X16985Y122109D02*
X26975Y122109D01*
D17*
X25225Y136185D02*
X25225Y143215D01*
X25225Y136185D02*
X18195Y136185D01*
X18195Y143215D01*
X25225Y143215D01*
X25225Y140454D02*
X18195Y140454D01*
X42765Y143215D02*
X42765Y136185D01*
X35735Y136185D01*
X35735Y143215D01*
X42765Y143215D01*
X42765Y140454D02*
X35735Y140454D01*
D14*
X33985Y98475D02*
X43975Y98475D01*
X43975Y89485D01*
X33985Y89485D01*
X33985Y98475D01*
X33985Y91893D02*
X43975Y91893D01*
X43975Y94301D02*
X33985Y94301D01*
X33985Y96709D02*
X43975Y96709D01*
X26975Y98475D02*
X16985Y98475D01*
X26975Y98475D02*
X26975Y89485D01*
X16985Y89485D01*
X16985Y98475D01*
X16985Y91893D02*
X26975Y91893D01*
X26975Y94301D02*
X16985Y94301D01*
X16985Y96709D02*
X26975Y96709D01*
D18*
X4505Y225655D02*
X4505Y236745D01*
X23595Y236745D01*
X23595Y225655D01*
X4505Y225655D01*
X4505Y227967D02*
X23595Y227967D01*
X23595Y230279D02*
X4505Y230279D01*
X4505Y232591D02*
X23595Y232591D01*
X23595Y234903D02*
X4505Y234903D01*
X4505Y180745D02*
X4505Y169655D01*
X4505Y180745D02*
X23595Y180745D01*
X23595Y169655D01*
X4505Y169655D01*
X4505Y171967D02*
X23595Y171967D01*
X23595Y174279D02*
X4505Y174279D01*
X4505Y176591D02*
X23595Y176591D01*
X23595Y178903D02*
X4505Y178903D01*
D19*
X44567Y215717D02*
X44567Y220683D01*
X57033Y220683D01*
X57033Y215717D01*
X44567Y215717D01*
X44567Y218147D02*
X57033Y218147D01*
X57033Y220577D02*
X44567Y220577D01*
X44567Y210683D02*
X44567Y205717D01*
X44567Y210683D02*
X57033Y210683D01*
X57033Y205717D01*
X44567Y205717D01*
X44567Y208147D02*
X57033Y208147D01*
X57033Y210577D02*
X44567Y210577D01*
X44567Y200683D02*
X44567Y195717D01*
X44567Y200683D02*
X57033Y200683D01*
X57033Y195717D01*
X44567Y195717D01*
X44567Y198147D02*
X57033Y198147D01*
X57033Y200577D02*
X44567Y200577D01*
X44567Y190683D02*
X44567Y185717D01*
X44567Y190683D02*
X57033Y190683D01*
X57033Y185717D01*
X44567Y185717D01*
X44567Y188147D02*
X57033Y188147D01*
X57033Y190577D02*
X44567Y190577D01*
D18*
X401895Y180745D02*
X401895Y169655D01*
X382805Y169655D01*
X382805Y180745D01*
X401895Y180745D01*
X401895Y171967D02*
X382805Y171967D01*
X382805Y174279D02*
X401895Y174279D01*
X401895Y176591D02*
X382805Y176591D01*
X382805Y178903D02*
X401895Y178903D01*
X401895Y225655D02*
X401895Y236745D01*
X401895Y225655D02*
X382805Y225655D01*
X382805Y236745D01*
X401895Y236745D01*
X401895Y227967D02*
X382805Y227967D01*
X382805Y230279D02*
X401895Y230279D01*
X401895Y232591D02*
X382805Y232591D01*
X382805Y234903D02*
X401895Y234903D01*
D19*
X361833Y190683D02*
X361833Y185717D01*
X349367Y185717D01*
X349367Y190683D01*
X361833Y190683D01*
X361833Y188147D02*
X349367Y188147D01*
X349367Y190577D02*
X361833Y190577D01*
X361833Y195717D02*
X361833Y200683D01*
X361833Y195717D02*
X349367Y195717D01*
X349367Y200683D01*
X361833Y200683D01*
X361833Y198147D02*
X349367Y198147D01*
X349367Y200577D02*
X361833Y200577D01*
X361833Y205717D02*
X361833Y210683D01*
X361833Y205717D02*
X349367Y205717D01*
X349367Y210683D01*
X361833Y210683D01*
X361833Y208147D02*
X349367Y208147D01*
X349367Y210577D02*
X361833Y210577D01*
X361833Y215717D02*
X361833Y220683D01*
X361833Y215717D02*
X349367Y215717D01*
X349367Y220683D01*
X361833Y220683D01*
X361833Y218147D02*
X349367Y218147D01*
X349367Y220577D02*
X361833Y220577D01*
D20*
X139700Y393700D03*
X165100Y393700D03*
X190500Y393700D03*
X215900Y393700D03*
X241300Y393700D03*
X266700Y393700D03*
X292100Y12700D03*
X266700Y12700D03*
X241300Y12700D03*
X215900Y12700D03*
X190500Y12700D03*
X165100Y12700D03*
X139700Y12700D03*
X114300Y12700D03*
D14*
X168605Y362635D02*
X178595Y362635D01*
X178595Y353645D01*
X168605Y353645D01*
X168605Y362635D01*
X168605Y356053D02*
X178595Y356053D01*
X178595Y358461D02*
X168605Y358461D01*
X168605Y360869D02*
X178595Y360869D01*
X161595Y362635D02*
X151605Y362635D01*
X161595Y362635D02*
X161595Y353645D01*
X151605Y353645D01*
X151605Y362635D01*
X151605Y356053D02*
X161595Y356053D01*
X161595Y358461D02*
X151605Y358461D01*
X151605Y360869D02*
X161595Y360869D01*
X40165Y263575D02*
X30175Y263575D01*
X40165Y263575D02*
X40165Y254585D01*
X30175Y254585D01*
X30175Y263575D01*
X30175Y256993D02*
X40165Y256993D01*
X40165Y259401D02*
X30175Y259401D01*
X30175Y261809D02*
X40165Y261809D01*
X23165Y263575D02*
X13175Y263575D01*
X23165Y263575D02*
X23165Y254585D01*
X13175Y254585D01*
X13175Y263575D01*
X13175Y256993D02*
X23165Y256993D01*
X23165Y259401D02*
X13175Y259401D01*
X13175Y261809D02*
X23165Y261809D01*
D10*
X417830Y400050D03*
X811530Y6350D03*
D11*
X792480Y25400D03*
X436880Y381000D03*
X792480Y381000D03*
X436880Y25400D03*
D12*
X451200Y333460D03*
D13*
X506880Y384252D02*
X506880Y389572D01*
X514200Y389572D01*
X514200Y384252D01*
X506880Y384252D01*
X506880Y386631D02*
X514200Y386631D01*
X514200Y389010D02*
X506880Y389010D01*
X506880Y366572D02*
X506880Y361252D01*
X506880Y366572D02*
X514200Y366572D01*
X514200Y361252D01*
X506880Y361252D01*
X506880Y363631D02*
X514200Y363631D01*
X514200Y366010D02*
X506880Y366010D01*
D14*
X492175Y364965D02*
X492175Y374955D01*
X492175Y364965D02*
X483185Y364965D01*
X483185Y374955D01*
X492175Y374955D01*
X492175Y367373D02*
X483185Y367373D01*
X483185Y369781D02*
X492175Y369781D01*
X492175Y372189D02*
X483185Y372189D01*
X483185Y374597D02*
X492175Y374597D01*
X492175Y381965D02*
X492175Y391955D01*
X492175Y381965D02*
X483185Y381965D01*
X483185Y391955D01*
X492175Y391955D01*
X492175Y384373D02*
X483185Y384373D01*
X483185Y386781D02*
X492175Y386781D01*
X492175Y389189D02*
X483185Y389189D01*
X483185Y391597D02*
X492175Y391597D01*
X737565Y377875D02*
X747555Y377875D01*
X747555Y368885D01*
X737565Y368885D01*
X737565Y377875D01*
X737565Y371293D02*
X747555Y371293D01*
X747555Y373701D02*
X737565Y373701D01*
X737565Y376109D02*
X747555Y376109D01*
X730555Y377875D02*
X720565Y377875D01*
X730555Y377875D02*
X730555Y368885D01*
X720565Y368885D01*
X720565Y377875D01*
X720565Y371293D02*
X730555Y371293D01*
X730555Y373701D02*
X720565Y373701D01*
X720565Y376109D02*
X730555Y376109D01*
X737565Y353745D02*
X747555Y353745D01*
X747555Y344755D01*
X737565Y344755D01*
X737565Y353745D01*
X737565Y347163D02*
X747555Y347163D01*
X747555Y349571D02*
X737565Y349571D01*
X737565Y351979D02*
X747555Y351979D01*
X730555Y353745D02*
X720565Y353745D01*
X730555Y353745D02*
X730555Y344755D01*
X720565Y344755D01*
X720565Y353745D01*
X720565Y347163D02*
X730555Y347163D01*
X730555Y349571D02*
X720565Y349571D01*
X720565Y351979D02*
X730555Y351979D01*
X799515Y123495D02*
X799515Y113505D01*
X790525Y113505D01*
X790525Y123495D01*
X799515Y123495D01*
X799515Y115913D02*
X790525Y115913D01*
X790525Y118321D02*
X799515Y118321D01*
X799515Y120729D02*
X790525Y120729D01*
X790525Y123137D02*
X799515Y123137D01*
X799515Y130505D02*
X799515Y140495D01*
X799515Y130505D02*
X790525Y130505D01*
X790525Y140495D01*
X799515Y140495D01*
X799515Y132913D02*
X790525Y132913D01*
X790525Y135321D02*
X799515Y135321D01*
X799515Y137729D02*
X790525Y137729D01*
X790525Y140137D02*
X799515Y140137D01*
X799515Y77775D02*
X799515Y67785D01*
X790525Y67785D01*
X790525Y77775D01*
X799515Y77775D01*
X799515Y70193D02*
X790525Y70193D01*
X790525Y72601D02*
X799515Y72601D01*
X799515Y75009D02*
X790525Y75009D01*
X790525Y77417D02*
X799515Y77417D01*
X799515Y84785D02*
X799515Y94775D01*
X799515Y84785D02*
X790525Y84785D01*
X790525Y94775D01*
X799515Y94775D01*
X799515Y87193D02*
X790525Y87193D01*
X790525Y89601D02*
X799515Y89601D01*
X799515Y92009D02*
X790525Y92009D01*
X790525Y94417D02*
X799515Y94417D01*
X765125Y94775D02*
X765125Y84785D01*
X765125Y94775D02*
X774115Y94775D01*
X774115Y84785D01*
X765125Y84785D01*
X765125Y87193D02*
X774115Y87193D01*
X774115Y89601D02*
X765125Y89601D01*
X765125Y92009D02*
X774115Y92009D01*
X774115Y94417D02*
X765125Y94417D01*
X765125Y77775D02*
X765125Y67785D01*
X765125Y77775D02*
X774115Y77775D01*
X774115Y67785D01*
X765125Y67785D01*
X765125Y70193D02*
X774115Y70193D01*
X774115Y72601D02*
X765125Y72601D01*
X765125Y75009D02*
X774115Y75009D01*
X774115Y77417D02*
X765125Y77417D01*
X765125Y130505D02*
X765125Y140495D01*
X774115Y140495D01*
X774115Y130505D01*
X765125Y130505D01*
X765125Y132913D02*
X774115Y132913D01*
X774115Y135321D02*
X765125Y135321D01*
X765125Y137729D02*
X774115Y137729D01*
X774115Y140137D02*
X765125Y140137D01*
X765125Y123495D02*
X765125Y113505D01*
X765125Y123495D02*
X774115Y123495D01*
X774115Y113505D01*
X765125Y113505D01*
X765125Y115913D02*
X774115Y115913D01*
X774115Y118321D02*
X765125Y118321D01*
X765125Y120729D02*
X774115Y120729D01*
X774115Y123137D02*
X765125Y123137D01*
D15*
X543430Y241200D03*
X543430Y222200D03*
X543430Y203200D03*
X543430Y184200D03*
X543430Y165200D03*
X685930Y165200D03*
X685930Y184200D03*
X685930Y203200D03*
X685930Y222200D03*
X685930Y241200D03*
D16*
X576680Y274450D03*
X595680Y274450D03*
X614680Y274450D03*
X633680Y274450D03*
X652680Y274450D03*
X576680Y131950D03*
X595680Y131950D03*
X614680Y131950D03*
X633680Y131950D03*
X652680Y131950D03*
D17*
X436705Y77175D02*
X436705Y70145D01*
X429675Y70145D01*
X429675Y77175D01*
X436705Y77175D01*
X436705Y74414D02*
X429675Y74414D01*
X454245Y77175D02*
X454245Y70145D01*
X447215Y70145D01*
X447215Y77175D01*
X454245Y77175D01*
X454245Y74414D02*
X447215Y74414D01*
D14*
X445465Y123875D02*
X455455Y123875D01*
X455455Y114885D01*
X445465Y114885D01*
X445465Y123875D01*
X445465Y117293D02*
X455455Y117293D01*
X455455Y119701D02*
X445465Y119701D01*
X445465Y122109D02*
X455455Y122109D01*
X438455Y123875D02*
X428465Y123875D01*
X438455Y123875D02*
X438455Y114885D01*
X428465Y114885D01*
X428465Y123875D01*
X428465Y117293D02*
X438455Y117293D01*
X438455Y119701D02*
X428465Y119701D01*
X428465Y122109D02*
X438455Y122109D01*
D17*
X436705Y136185D02*
X436705Y143215D01*
X436705Y136185D02*
X429675Y136185D01*
X429675Y143215D01*
X436705Y143215D01*
X436705Y140454D02*
X429675Y140454D01*
X454245Y143215D02*
X454245Y136185D01*
X447215Y136185D01*
X447215Y143215D01*
X454245Y143215D01*
X454245Y140454D02*
X447215Y140454D01*
D14*
X445465Y98475D02*
X455455Y98475D01*
X455455Y89485D01*
X445465Y89485D01*
X445465Y98475D01*
X445465Y91893D02*
X455455Y91893D01*
X455455Y94301D02*
X445465Y94301D01*
X445465Y96709D02*
X455455Y96709D01*
X438455Y98475D02*
X428465Y98475D01*
X438455Y98475D02*
X438455Y89485D01*
X428465Y89485D01*
X428465Y98475D01*
X428465Y91893D02*
X438455Y91893D01*
X438455Y94301D02*
X428465Y94301D01*
X428465Y96709D02*
X438455Y96709D01*
D18*
X415985Y225655D02*
X415985Y236745D01*
X435075Y236745D01*
X435075Y225655D01*
X415985Y225655D01*
X415985Y227967D02*
X435075Y227967D01*
X435075Y230279D02*
X415985Y230279D01*
X415985Y232591D02*
X435075Y232591D01*
X435075Y234903D02*
X415985Y234903D01*
X415985Y180745D02*
X415985Y169655D01*
X415985Y180745D02*
X435075Y180745D01*
X435075Y169655D01*
X415985Y169655D01*
X415985Y171967D02*
X435075Y171967D01*
X435075Y174279D02*
X415985Y174279D01*
X415985Y176591D02*
X435075Y176591D01*
X435075Y178903D02*
X415985Y178903D01*
D19*
X456047Y215717D02*
X456047Y220683D01*
X468513Y220683D01*
X468513Y215717D01*
X456047Y215717D01*
X456047Y218147D02*
X468513Y218147D01*
X468513Y220577D02*
X456047Y220577D01*
X456047Y210683D02*
X456047Y205717D01*
X456047Y210683D02*
X468513Y210683D01*
X468513Y205717D01*
X456047Y205717D01*
X456047Y208147D02*
X468513Y208147D01*
X468513Y210577D02*
X456047Y210577D01*
X456047Y200683D02*
X456047Y195717D01*
X456047Y200683D02*
X468513Y200683D01*
X468513Y195717D01*
X456047Y195717D01*
X456047Y198147D02*
X468513Y198147D01*
X468513Y200577D02*
X456047Y200577D01*
X456047Y190683D02*
X456047Y185717D01*
X456047Y190683D02*
X468513Y190683D01*
X468513Y185717D01*
X456047Y185717D01*
X456047Y188147D02*
X468513Y188147D01*
X468513Y190577D02*
X456047Y190577D01*
D18*
X813375Y180745D02*
X813375Y169655D01*
X794285Y169655D01*
X794285Y180745D01*
X813375Y180745D01*
X813375Y171967D02*
X794285Y171967D01*
X794285Y174279D02*
X813375Y174279D01*
X813375Y176591D02*
X794285Y176591D01*
X794285Y178903D02*
X813375Y178903D01*
X813375Y225655D02*
X813375Y236745D01*
X813375Y225655D02*
X794285Y225655D01*
X794285Y236745D01*
X813375Y236745D01*
X813375Y227967D02*
X794285Y227967D01*
X794285Y230279D02*
X813375Y230279D01*
X813375Y232591D02*
X794285Y232591D01*
X794285Y234903D02*
X813375Y234903D01*
D19*
X773313Y190683D02*
X773313Y185717D01*
X760847Y185717D01*
X760847Y190683D01*
X773313Y190683D01*
X773313Y188147D02*
X760847Y188147D01*
X760847Y190577D02*
X773313Y190577D01*
X773313Y195717D02*
X773313Y200683D01*
X773313Y195717D02*
X760847Y195717D01*
X760847Y200683D01*
X773313Y200683D01*
X773313Y198147D02*
X760847Y198147D01*
X760847Y200577D02*
X773313Y200577D01*
X773313Y205717D02*
X773313Y210683D01*
X773313Y205717D02*
X760847Y205717D01*
X760847Y210683D01*
X773313Y210683D01*
X773313Y208147D02*
X760847Y208147D01*
X760847Y210577D02*
X773313Y210577D01*
X773313Y215717D02*
X773313Y220683D01*
X773313Y215717D02*
X760847Y215717D01*
X760847Y220683D01*
X773313Y220683D01*
X773313Y218147D02*
X760847Y218147D01*
X760847Y220577D02*
X773313Y220577D01*
D20*
X551180Y393700D03*
X576580Y393700D03*
X601980Y393700D03*
X627380Y393700D03*
X652780Y393700D03*
X678180Y393700D03*
X703580Y12700D03*
X678180Y12700D03*
X652780Y12700D03*
X627380Y12700D03*
X601980Y12700D03*
X576580Y12700D03*
X551180Y12700D03*
X525780Y12700D03*
D14*
X580085Y362635D02*
X590075Y362635D01*
X590075Y353645D01*
X580085Y353645D01*
X580085Y362635D01*
X580085Y356053D02*
X590075Y356053D01*
X590075Y358461D02*
X580085Y358461D01*
X580085Y360869D02*
X590075Y360869D01*
X573075Y362635D02*
X563085Y362635D01*
X573075Y362635D02*
X573075Y353645D01*
X563085Y353645D01*
X563085Y362635D01*
X563085Y356053D02*
X573075Y356053D01*
X573075Y358461D02*
X563085Y358461D01*
X563085Y360869D02*
X573075Y360869D01*
X451645Y263575D02*
X441655Y263575D01*
X451645Y263575D02*
X451645Y254585D01*
X441655Y254585D01*
X441655Y263575D01*
X441655Y256993D02*
X451645Y256993D01*
X451645Y259401D02*
X441655Y259401D01*
X441655Y261809D02*
X451645Y261809D01*
X434645Y263575D02*
X424655Y263575D01*
X434645Y263575D02*
X434645Y254585D01*
X424655Y254585D01*
X424655Y263575D01*
X424655Y256993D02*
X434645Y256993D01*
X434645Y259401D02*
X424655Y259401D01*
X424655Y261809D02*
X434645Y261809D01*
D10*
X829310Y400050D03*
X1223010Y6350D03*
D11*
X1203960Y25400D03*
X848360Y381000D03*
X1203960Y381000D03*
X848360Y25400D03*
D12*
X862680Y333460D03*
D13*
X918360Y384252D02*
X918360Y389572D01*
X925680Y389572D01*
X925680Y384252D01*
X918360Y384252D01*
X918360Y386631D02*
X925680Y386631D01*
X925680Y389010D02*
X918360Y389010D01*
X918360Y366572D02*
X918360Y361252D01*
X918360Y366572D02*
X925680Y366572D01*
X925680Y361252D01*
X918360Y361252D01*
X918360Y363631D02*
X925680Y363631D01*
X925680Y366010D02*
X918360Y366010D01*
D14*
X903655Y364965D02*
X903655Y374955D01*
X903655Y364965D02*
X894665Y364965D01*
X894665Y374955D01*
X903655Y374955D01*
X903655Y367373D02*
X894665Y367373D01*
X894665Y369781D02*
X903655Y369781D01*
X903655Y372189D02*
X894665Y372189D01*
X894665Y374597D02*
X903655Y374597D01*
X903655Y381965D02*
X903655Y391955D01*
X903655Y381965D02*
X894665Y381965D01*
X894665Y391955D01*
X903655Y391955D01*
X903655Y384373D02*
X894665Y384373D01*
X894665Y386781D02*
X903655Y386781D01*
X903655Y389189D02*
X894665Y389189D01*
X894665Y391597D02*
X903655Y391597D01*
X1149045Y377875D02*
X1159035Y377875D01*
X1159035Y368885D01*
X1149045Y368885D01*
X1149045Y377875D01*
X1149045Y371293D02*
X1159035Y371293D01*
X1159035Y373701D02*
X1149045Y373701D01*
X1149045Y376109D02*
X1159035Y376109D01*
X1142035Y377875D02*
X1132045Y377875D01*
X1142035Y377875D02*
X1142035Y368885D01*
X1132045Y368885D01*
X1132045Y377875D01*
X1132045Y371293D02*
X1142035Y371293D01*
X1142035Y373701D02*
X1132045Y373701D01*
X1132045Y376109D02*
X1142035Y376109D01*
X1149045Y353745D02*
X1159035Y353745D01*
X1159035Y344755D01*
X1149045Y344755D01*
X1149045Y353745D01*
X1149045Y347163D02*
X1159035Y347163D01*
X1159035Y349571D02*
X1149045Y349571D01*
X1149045Y351979D02*
X1159035Y351979D01*
X1142035Y353745D02*
X1132045Y353745D01*
X1142035Y353745D02*
X1142035Y344755D01*
X1132045Y344755D01*
X1132045Y353745D01*
X1132045Y347163D02*
X1142035Y347163D01*
X1142035Y349571D02*
X1132045Y349571D01*
X1132045Y351979D02*
X1142035Y351979D01*
X1210995Y123495D02*
X1210995Y113505D01*
X1202005Y113505D01*
X1202005Y123495D01*
X1210995Y123495D01*
X1210995Y115913D02*
X1202005Y115913D01*
X1202005Y118321D02*
X1210995Y118321D01*
X1210995Y120729D02*
X1202005Y120729D01*
X1202005Y123137D02*
X1210995Y123137D01*
X1210995Y130505D02*
X1210995Y140495D01*
X1210995Y130505D02*
X1202005Y130505D01*
X1202005Y140495D01*
X1210995Y140495D01*
X1210995Y132913D02*
X1202005Y132913D01*
X1202005Y135321D02*
X1210995Y135321D01*
X1210995Y137729D02*
X1202005Y137729D01*
X1202005Y140137D02*
X1210995Y140137D01*
X1210995Y77775D02*
X1210995Y67785D01*
X1202005Y67785D01*
X1202005Y77775D01*
X1210995Y77775D01*
X1210995Y70193D02*
X1202005Y70193D01*
X1202005Y72601D02*
X1210995Y72601D01*
X1210995Y75009D02*
X1202005Y75009D01*
X1202005Y77417D02*
X1210995Y77417D01*
X1210995Y84785D02*
X1210995Y94775D01*
X1210995Y84785D02*
X1202005Y84785D01*
X1202005Y94775D01*
X1210995Y94775D01*
X1210995Y87193D02*
X1202005Y87193D01*
X1202005Y89601D02*
X1210995Y89601D01*
X1210995Y92009D02*
X1202005Y92009D01*
X1202005Y94417D02*
X1210995Y94417D01*
X1176605Y94775D02*
X1176605Y84785D01*
X1176605Y94775D02*
X1185595Y94775D01*
X1185595Y84785D01*
X1176605Y84785D01*
X1176605Y87193D02*
X1185595Y87193D01*
X1185595Y89601D02*
X1176605Y89601D01*
X1176605Y92009D02*
X1185595Y92009D01*
X1185595Y94417D02*
X1176605Y94417D01*
X1176605Y77775D02*
X1176605Y67785D01*
X1176605Y77775D02*
X1185595Y77775D01*
X1185595Y67785D01*
X1176605Y67785D01*
X1176605Y70193D02*
X1185595Y70193D01*
X1185595Y72601D02*
X1176605Y72601D01*
X1176605Y75009D02*
X1185595Y75009D01*
X1185595Y77417D02*
X1176605Y77417D01*
X1176605Y130505D02*
X1176605Y140495D01*
X1185595Y140495D01*
X1185595Y130505D01*
X1176605Y130505D01*
X1176605Y132913D02*
X1185595Y132913D01*
X1185595Y135321D02*
X1176605Y135321D01*
X1176605Y137729D02*
X1185595Y137729D01*
X1185595Y140137D02*
X1176605Y140137D01*
X1176605Y123495D02*
X1176605Y113505D01*
X1176605Y123495D02*
X1185595Y123495D01*
X1185595Y113505D01*
X1176605Y113505D01*
X1176605Y115913D02*
X1185595Y115913D01*
X1185595Y118321D02*
X1176605Y118321D01*
X1176605Y120729D02*
X1185595Y120729D01*
X1185595Y123137D02*
X1176605Y123137D01*
D15*
X954910Y241200D03*
X954910Y222200D03*
X954910Y203200D03*
X954910Y184200D03*
X954910Y165200D03*
X1097410Y165200D03*
X1097410Y184200D03*
X1097410Y203200D03*
X1097410Y222200D03*
X1097410Y241200D03*
D16*
X988160Y274450D03*
X1007160Y274450D03*
X1026160Y274450D03*
X1045160Y274450D03*
X1064160Y274450D03*
X988160Y131950D03*
X1007160Y131950D03*
X1026160Y131950D03*
X1045160Y131950D03*
X1064160Y131950D03*
D17*
X848185Y77175D02*
X848185Y70145D01*
X841155Y70145D01*
X841155Y77175D01*
X848185Y77175D01*
X848185Y74414D02*
X841155Y74414D01*
X865725Y77175D02*
X865725Y70145D01*
X858695Y70145D01*
X858695Y77175D01*
X865725Y77175D01*
X865725Y74414D02*
X858695Y74414D01*
D14*
X856945Y123875D02*
X866935Y123875D01*
X866935Y114885D01*
X856945Y114885D01*
X856945Y123875D01*
X856945Y117293D02*
X866935Y117293D01*
X866935Y119701D02*
X856945Y119701D01*
X856945Y122109D02*
X866935Y122109D01*
X849935Y123875D02*
X839945Y123875D01*
X849935Y123875D02*
X849935Y114885D01*
X839945Y114885D01*
X839945Y123875D01*
X839945Y117293D02*
X849935Y117293D01*
X849935Y119701D02*
X839945Y119701D01*
X839945Y122109D02*
X849935Y122109D01*
D17*
X848185Y136185D02*
X848185Y143215D01*
X848185Y136185D02*
X841155Y136185D01*
X841155Y143215D01*
X848185Y143215D01*
X848185Y140454D02*
X841155Y140454D01*
X865725Y143215D02*
X865725Y136185D01*
X858695Y136185D01*
X858695Y143215D01*
X865725Y143215D01*
X865725Y140454D02*
X858695Y140454D01*
D14*
X856945Y98475D02*
X866935Y98475D01*
X866935Y89485D01*
X856945Y89485D01*
X856945Y98475D01*
X856945Y91893D02*
X866935Y91893D01*
X866935Y94301D02*
X856945Y94301D01*
X856945Y96709D02*
X866935Y96709D01*
X849935Y98475D02*
X839945Y98475D01*
X849935Y98475D02*
X849935Y89485D01*
X839945Y89485D01*
X839945Y98475D01*
X839945Y91893D02*
X849935Y91893D01*
X849935Y94301D02*
X839945Y94301D01*
X839945Y96709D02*
X849935Y96709D01*
D18*
X827465Y225655D02*
X827465Y236745D01*
X846555Y236745D01*
X846555Y225655D01*
X827465Y225655D01*
X827465Y227967D02*
X846555Y227967D01*
X846555Y230279D02*
X827465Y230279D01*
X827465Y232591D02*
X846555Y232591D01*
X846555Y234903D02*
X827465Y234903D01*
X827465Y180745D02*
X827465Y169655D01*
X827465Y180745D02*
X846555Y180745D01*
X846555Y169655D01*
X827465Y169655D01*
X827465Y171967D02*
X846555Y171967D01*
X846555Y174279D02*
X827465Y174279D01*
X827465Y176591D02*
X846555Y176591D01*
X846555Y178903D02*
X827465Y178903D01*
D19*
X867527Y215717D02*
X867527Y220683D01*
X879993Y220683D01*
X879993Y215717D01*
X867527Y215717D01*
X867527Y218147D02*
X879993Y218147D01*
X879993Y220577D02*
X867527Y220577D01*
X867527Y210683D02*
X867527Y205717D01*
X867527Y210683D02*
X879993Y210683D01*
X879993Y205717D01*
X867527Y205717D01*
X867527Y208147D02*
X879993Y208147D01*
X879993Y210577D02*
X867527Y210577D01*
X867527Y200683D02*
X867527Y195717D01*
X867527Y200683D02*
X879993Y200683D01*
X879993Y195717D01*
X867527Y195717D01*
X867527Y198147D02*
X879993Y198147D01*
X879993Y200577D02*
X867527Y200577D01*
X867527Y190683D02*
X867527Y185717D01*
X867527Y190683D02*
X879993Y190683D01*
X879993Y185717D01*
X867527Y185717D01*
X867527Y188147D02*
X879993Y188147D01*
X879993Y190577D02*
X867527Y190577D01*
D18*
X1224855Y180745D02*
X1224855Y169655D01*
X1205765Y169655D01*
X1205765Y180745D01*
X1224855Y180745D01*
X1224855Y171967D02*
X1205765Y171967D01*
X1205765Y174279D02*
X1224855Y174279D01*
X1224855Y176591D02*
X1205765Y176591D01*
X1205765Y178903D02*
X1224855Y178903D01*
X1224855Y225655D02*
X1224855Y236745D01*
X1224855Y225655D02*
X1205765Y225655D01*
X1205765Y236745D01*
X1224855Y236745D01*
X1224855Y227967D02*
X1205765Y227967D01*
X1205765Y230279D02*
X1224855Y230279D01*
X1224855Y232591D02*
X1205765Y232591D01*
X1205765Y234903D02*
X1224855Y234903D01*
D19*
X1184793Y190683D02*
X1184793Y185717D01*
X1172327Y185717D01*
X1172327Y190683D01*
X1184793Y190683D01*
X1184793Y188147D02*
X1172327Y188147D01*
X1172327Y190577D02*
X1184793Y190577D01*
X1184793Y195717D02*
X1184793Y200683D01*
X1184793Y195717D02*
X1172327Y195717D01*
X1172327Y200683D01*
X1184793Y200683D01*
X1184793Y198147D02*
X1172327Y198147D01*
X1172327Y200577D02*
X1184793Y200577D01*
X1184793Y205717D02*
X1184793Y210683D01*
X1184793Y205717D02*
X1172327Y205717D01*
X1172327Y210683D01*
X1184793Y210683D01*
X1184793Y208147D02*
X1172327Y208147D01*
X1172327Y210577D02*
X1184793Y210577D01*
X1184793Y215717D02*
X1184793Y220683D01*
X1184793Y215717D02*
X1172327Y215717D01*
X1172327Y220683D01*
X1184793Y220683D01*
X1184793Y218147D02*
X1172327Y218147D01*
X1172327Y220577D02*
X1184793Y220577D01*
D20*
X962660Y393700D03*
X988060Y393700D03*
X1013460Y393700D03*
X1038860Y393700D03*
X1064260Y393700D03*
X1089660Y393700D03*
X1115060Y12700D03*
X1089660Y12700D03*
X1064260Y12700D03*
X1038860Y12700D03*
X1013460Y12700D03*
X988060Y12700D03*
X962660Y12700D03*
X937260Y12700D03*
D14*
X991565Y362635D02*
X1001555Y362635D01*
X1001555Y353645D01*
X991565Y353645D01*
X991565Y362635D01*
X991565Y356053D02*
X1001555Y356053D01*
X1001555Y358461D02*
X991565Y358461D01*
X991565Y360869D02*
X1001555Y360869D01*
X984555Y362635D02*
X974565Y362635D01*
X984555Y362635D02*
X984555Y353645D01*
X974565Y353645D01*
X974565Y362635D01*
X974565Y356053D02*
X984555Y356053D01*
X984555Y358461D02*
X974565Y358461D01*
X974565Y360869D02*
X984555Y360869D01*
X863125Y263575D02*
X853135Y263575D01*
X863125Y263575D02*
X863125Y254585D01*
X853135Y254585D01*
X853135Y263575D01*
X853135Y256993D02*
X863125Y256993D01*
X863125Y259401D02*
X853135Y259401D01*
X853135Y261809D02*
X863125Y261809D01*
X846125Y263575D02*
X836135Y263575D01*
X846125Y263575D02*
X846125Y254585D01*
X836135Y254585D01*
X836135Y263575D01*
X836135Y256993D02*
X846125Y256993D01*
X846125Y259401D02*
X836135Y259401D01*
X836135Y261809D02*
X846125Y261809D01*
D10*
X1240790Y400050D03*
X1634490Y6350D03*
D11*
X1615440Y25400D03*
X1259840Y381000D03*
X1615440Y381000D03*
X1259840Y25400D03*
D12*
X1274160Y333460D03*
D13*
X1329840Y384252D02*
X1329840Y389572D01*
X1337160Y389572D01*
X1337160Y384252D01*
X1329840Y384252D01*
X1329840Y386631D02*
X1337160Y386631D01*
X1337160Y389010D02*
X1329840Y389010D01*
X1329840Y366572D02*
X1329840Y361252D01*
X1329840Y366572D02*
X1337160Y366572D01*
X1337160Y361252D01*
X1329840Y361252D01*
X1329840Y363631D02*
X1337160Y363631D01*
X1337160Y366010D02*
X1329840Y366010D01*
D14*
X1315135Y364965D02*
X1315135Y374955D01*
X1315135Y364965D02*
X1306145Y364965D01*
X1306145Y374955D01*
X1315135Y374955D01*
X1315135Y367373D02*
X1306145Y367373D01*
X1306145Y369781D02*
X1315135Y369781D01*
X1315135Y372189D02*
X1306145Y372189D01*
X1306145Y374597D02*
X1315135Y374597D01*
X1315135Y381965D02*
X1315135Y391955D01*
X1315135Y381965D02*
X1306145Y381965D01*
X1306145Y391955D01*
X1315135Y391955D01*
X1315135Y384373D02*
X1306145Y384373D01*
X1306145Y386781D02*
X1315135Y386781D01*
X1315135Y389189D02*
X1306145Y389189D01*
X1306145Y391597D02*
X1315135Y391597D01*
X1560525Y377875D02*
X1570515Y377875D01*
X1570515Y368885D01*
X1560525Y368885D01*
X1560525Y377875D01*
X1560525Y371293D02*
X1570515Y371293D01*
X1570515Y373701D02*
X1560525Y373701D01*
X1560525Y376109D02*
X1570515Y376109D01*
X1553515Y377875D02*
X1543525Y377875D01*
X1553515Y377875D02*
X1553515Y368885D01*
X1543525Y368885D01*
X1543525Y377875D01*
X1543525Y371293D02*
X1553515Y371293D01*
X1553515Y373701D02*
X1543525Y373701D01*
X1543525Y376109D02*
X1553515Y376109D01*
X1560525Y353745D02*
X1570515Y353745D01*
X1570515Y344755D01*
X1560525Y344755D01*
X1560525Y353745D01*
X1560525Y347163D02*
X1570515Y347163D01*
X1570515Y349571D02*
X1560525Y349571D01*
X1560525Y351979D02*
X1570515Y351979D01*
X1553515Y353745D02*
X1543525Y353745D01*
X1553515Y353745D02*
X1553515Y344755D01*
X1543525Y344755D01*
X1543525Y353745D01*
X1543525Y347163D02*
X1553515Y347163D01*
X1553515Y349571D02*
X1543525Y349571D01*
X1543525Y351979D02*
X1553515Y351979D01*
X1622475Y123495D02*
X1622475Y113505D01*
X1613485Y113505D01*
X1613485Y123495D01*
X1622475Y123495D01*
X1622475Y115913D02*
X1613485Y115913D01*
X1613485Y118321D02*
X1622475Y118321D01*
X1622475Y120729D02*
X1613485Y120729D01*
X1613485Y123137D02*
X1622475Y123137D01*
X1622475Y130505D02*
X1622475Y140495D01*
X1622475Y130505D02*
X1613485Y130505D01*
X1613485Y140495D01*
X1622475Y140495D01*
X1622475Y132913D02*
X1613485Y132913D01*
X1613485Y135321D02*
X1622475Y135321D01*
X1622475Y137729D02*
X1613485Y137729D01*
X1613485Y140137D02*
X1622475Y140137D01*
X1622475Y77775D02*
X1622475Y67785D01*
X1613485Y67785D01*
X1613485Y77775D01*
X1622475Y77775D01*
X1622475Y70193D02*
X1613485Y70193D01*
X1613485Y72601D02*
X1622475Y72601D01*
X1622475Y75009D02*
X1613485Y75009D01*
X1613485Y77417D02*
X1622475Y77417D01*
X1622475Y84785D02*
X1622475Y94775D01*
X1622475Y84785D02*
X1613485Y84785D01*
X1613485Y94775D01*
X1622475Y94775D01*
X1622475Y87193D02*
X1613485Y87193D01*
X1613485Y89601D02*
X1622475Y89601D01*
X1622475Y92009D02*
X1613485Y92009D01*
X1613485Y94417D02*
X1622475Y94417D01*
X1588085Y94775D02*
X1588085Y84785D01*
X1588085Y94775D02*
X1597075Y94775D01*
X1597075Y84785D01*
X1588085Y84785D01*
X1588085Y87193D02*
X1597075Y87193D01*
X1597075Y89601D02*
X1588085Y89601D01*
X1588085Y92009D02*
X1597075Y92009D01*
X1597075Y94417D02*
X1588085Y94417D01*
X1588085Y77775D02*
X1588085Y67785D01*
X1588085Y77775D02*
X1597075Y77775D01*
X1597075Y67785D01*
X1588085Y67785D01*
X1588085Y70193D02*
X1597075Y70193D01*
X1597075Y72601D02*
X1588085Y72601D01*
X1588085Y75009D02*
X1597075Y75009D01*
X1597075Y77417D02*
X1588085Y77417D01*
X1588085Y130505D02*
X1588085Y140495D01*
X1597075Y140495D01*
X1597075Y130505D01*
X1588085Y130505D01*
X1588085Y132913D02*
X1597075Y132913D01*
X1597075Y135321D02*
X1588085Y135321D01*
X1588085Y137729D02*
X1597075Y137729D01*
X1597075Y140137D02*
X1588085Y140137D01*
X1588085Y123495D02*
X1588085Y113505D01*
X1588085Y123495D02*
X1597075Y123495D01*
X1597075Y113505D01*
X1588085Y113505D01*
X1588085Y115913D02*
X1597075Y115913D01*
X1597075Y118321D02*
X1588085Y118321D01*
X1588085Y120729D02*
X1597075Y120729D01*
X1597075Y123137D02*
X1588085Y123137D01*
D15*
X1366390Y241200D03*
X1366390Y222200D03*
X1366390Y203200D03*
X1366390Y184200D03*
X1366390Y165200D03*
X1508890Y165200D03*
X1508890Y184200D03*
X1508890Y203200D03*
X1508890Y222200D03*
X1508890Y241200D03*
D16*
X1399640Y274450D03*
X1418640Y274450D03*
X1437640Y274450D03*
X1456640Y274450D03*
X1475640Y274450D03*
X1399640Y131950D03*
X1418640Y131950D03*
X1437640Y131950D03*
X1456640Y131950D03*
X1475640Y131950D03*
D17*
X1259665Y77175D02*
X1259665Y70145D01*
X1252635Y70145D01*
X1252635Y77175D01*
X1259665Y77175D01*
X1259665Y74414D02*
X1252635Y74414D01*
X1277205Y77175D02*
X1277205Y70145D01*
X1270175Y70145D01*
X1270175Y77175D01*
X1277205Y77175D01*
X1277205Y74414D02*
X1270175Y74414D01*
D14*
X1268425Y123875D02*
X1278415Y123875D01*
X1278415Y114885D01*
X1268425Y114885D01*
X1268425Y123875D01*
X1268425Y117293D02*
X1278415Y117293D01*
X1278415Y119701D02*
X1268425Y119701D01*
X1268425Y122109D02*
X1278415Y122109D01*
X1261415Y123875D02*
X1251425Y123875D01*
X1261415Y123875D02*
X1261415Y114885D01*
X1251425Y114885D01*
X1251425Y123875D01*
X1251425Y117293D02*
X1261415Y117293D01*
X1261415Y119701D02*
X1251425Y119701D01*
X1251425Y122109D02*
X1261415Y122109D01*
D17*
X1259665Y136185D02*
X1259665Y143215D01*
X1259665Y136185D02*
X1252635Y136185D01*
X1252635Y143215D01*
X1259665Y143215D01*
X1259665Y140454D02*
X1252635Y140454D01*
X1277205Y143215D02*
X1277205Y136185D01*
X1270175Y136185D01*
X1270175Y143215D01*
X1277205Y143215D01*
X1277205Y140454D02*
X1270175Y140454D01*
D14*
X1268425Y98475D02*
X1278415Y98475D01*
X1278415Y89485D01*
X1268425Y89485D01*
X1268425Y98475D01*
X1268425Y91893D02*
X1278415Y91893D01*
X1278415Y94301D02*
X1268425Y94301D01*
X1268425Y96709D02*
X1278415Y96709D01*
X1261415Y98475D02*
X1251425Y98475D01*
X1261415Y98475D02*
X1261415Y89485D01*
X1251425Y89485D01*
X1251425Y98475D01*
X1251425Y91893D02*
X1261415Y91893D01*
X1261415Y94301D02*
X1251425Y94301D01*
X1251425Y96709D02*
X1261415Y96709D01*
D18*
X1238945Y225655D02*
X1238945Y236745D01*
X1258035Y236745D01*
X1258035Y225655D01*
X1238945Y225655D01*
X1238945Y227967D02*
X1258035Y227967D01*
X1258035Y230279D02*
X1238945Y230279D01*
X1238945Y232591D02*
X1258035Y232591D01*
X1258035Y234903D02*
X1238945Y234903D01*
X1238945Y180745D02*
X1238945Y169655D01*
X1238945Y180745D02*
X1258035Y180745D01*
X1258035Y169655D01*
X1238945Y169655D01*
X1238945Y171967D02*
X1258035Y171967D01*
X1258035Y174279D02*
X1238945Y174279D01*
X1238945Y176591D02*
X1258035Y176591D01*
X1258035Y178903D02*
X1238945Y178903D01*
D19*
X1279007Y215717D02*
X1279007Y220683D01*
X1291473Y220683D01*
X1291473Y215717D01*
X1279007Y215717D01*
X1279007Y218147D02*
X1291473Y218147D01*
X1291473Y220577D02*
X1279007Y220577D01*
X1279007Y210683D02*
X1279007Y205717D01*
X1279007Y210683D02*
X1291473Y210683D01*
X1291473Y205717D01*
X1279007Y205717D01*
X1279007Y208147D02*
X1291473Y208147D01*
X1291473Y210577D02*
X1279007Y210577D01*
X1279007Y200683D02*
X1279007Y195717D01*
X1279007Y200683D02*
X1291473Y200683D01*
X1291473Y195717D01*
X1279007Y195717D01*
X1279007Y198147D02*
X1291473Y198147D01*
X1291473Y200577D02*
X1279007Y200577D01*
X1279007Y190683D02*
X1279007Y185717D01*
X1279007Y190683D02*
X1291473Y190683D01*
X1291473Y185717D01*
X1279007Y185717D01*
X1279007Y188147D02*
X1291473Y188147D01*
X1291473Y190577D02*
X1279007Y190577D01*
D18*
X1636335Y180745D02*
X1636335Y169655D01*
X1617245Y169655D01*
X1617245Y180745D01*
X1636335Y180745D01*
X1636335Y171967D02*
X1617245Y171967D01*
X1617245Y174279D02*
X1636335Y174279D01*
X1636335Y176591D02*
X1617245Y176591D01*
X1617245Y178903D02*
X1636335Y178903D01*
X1636335Y225655D02*
X1636335Y236745D01*
X1636335Y225655D02*
X1617245Y225655D01*
X1617245Y236745D01*
X1636335Y236745D01*
X1636335Y227967D02*
X1617245Y227967D01*
X1617245Y230279D02*
X1636335Y230279D01*
X1636335Y232591D02*
X1617245Y232591D01*
X1617245Y234903D02*
X1636335Y234903D01*
D19*
X1596273Y190683D02*
X1596273Y185717D01*
X1583807Y185717D01*
X1583807Y190683D01*
X1596273Y190683D01*
X1596273Y188147D02*
X1583807Y188147D01*
X1583807Y190577D02*
X1596273Y190577D01*
X1596273Y195717D02*
X1596273Y200683D01*
X1596273Y195717D02*
X1583807Y195717D01*
X1583807Y200683D01*
X1596273Y200683D01*
X1596273Y198147D02*
X1583807Y198147D01*
X1583807Y200577D02*
X1596273Y200577D01*
X1596273Y205717D02*
X1596273Y210683D01*
X1596273Y205717D02*
X1583807Y205717D01*
X1583807Y210683D01*
X1596273Y210683D01*
X1596273Y208147D02*
X1583807Y208147D01*
X1583807Y210577D02*
X1596273Y210577D01*
X1596273Y215717D02*
X1596273Y220683D01*
X1596273Y215717D02*
X1583807Y215717D01*
X1583807Y220683D01*
X1596273Y220683D01*
X1596273Y218147D02*
X1583807Y218147D01*
X1583807Y220577D02*
X1596273Y220577D01*
D20*
X1374140Y393700D03*
X1399540Y393700D03*
X1424940Y393700D03*
X1450340Y393700D03*
X1475740Y393700D03*
X1501140Y393700D03*
X1526540Y12700D03*
X1501140Y12700D03*
X1475740Y12700D03*
X1450340Y12700D03*
X1424940Y12700D03*
X1399540Y12700D03*
X1374140Y12700D03*
X1348740Y12700D03*
D14*
X1403045Y362635D02*
X1413035Y362635D01*
X1413035Y353645D01*
X1403045Y353645D01*
X1403045Y362635D01*
X1403045Y356053D02*
X1413035Y356053D01*
X1413035Y358461D02*
X1403045Y358461D01*
X1403045Y360869D02*
X1413035Y360869D01*
X1396035Y362635D02*
X1386045Y362635D01*
X1396035Y362635D02*
X1396035Y353645D01*
X1386045Y353645D01*
X1386045Y362635D01*
X1386045Y356053D02*
X1396035Y356053D01*
X1396035Y358461D02*
X1386045Y358461D01*
X1386045Y360869D02*
X1396035Y360869D01*
X1274605Y263575D02*
X1264615Y263575D01*
X1274605Y263575D02*
X1274605Y254585D01*
X1264615Y254585D01*
X1264615Y263575D01*
X1264615Y256993D02*
X1274605Y256993D01*
X1274605Y259401D02*
X1264615Y259401D01*
X1264615Y261809D02*
X1274605Y261809D01*
X1257605Y263575D02*
X1247615Y263575D01*
X1257605Y263575D02*
X1257605Y254585D01*
X1247615Y254585D01*
X1247615Y263575D01*
X1247615Y256993D02*
X1257605Y256993D01*
X1257605Y259401D02*
X1247615Y259401D01*
X1247615Y261809D02*
X1257605Y261809D01*
D10*
X6350Y811530D03*
X400050Y417830D03*
D11*
X381000Y436880D03*
X25400Y792480D03*
X381000Y792480D03*
X25400Y436880D03*
D12*
X39720Y744940D03*
D13*
X95400Y795732D02*
X95400Y801052D01*
X102720Y801052D01*
X102720Y795732D01*
X95400Y795732D01*
X95400Y798111D02*
X102720Y798111D01*
X102720Y800490D02*
X95400Y800490D01*
X95400Y778052D02*
X95400Y772732D01*
X95400Y778052D02*
X102720Y778052D01*
X102720Y772732D01*
X95400Y772732D01*
X95400Y775111D02*
X102720Y775111D01*
X102720Y777490D02*
X95400Y777490D01*
D14*
X80695Y776445D02*
X80695Y786435D01*
X80695Y776445D02*
X71705Y776445D01*
X71705Y786435D01*
X80695Y786435D01*
X80695Y778853D02*
X71705Y778853D01*
X71705Y781261D02*
X80695Y781261D01*
X80695Y783669D02*
X71705Y783669D01*
X71705Y786077D02*
X80695Y786077D01*
X80695Y793445D02*
X80695Y803435D01*
X80695Y793445D02*
X71705Y793445D01*
X71705Y803435D01*
X80695Y803435D01*
X80695Y795853D02*
X71705Y795853D01*
X71705Y798261D02*
X80695Y798261D01*
X80695Y800669D02*
X71705Y800669D01*
X71705Y803077D02*
X80695Y803077D01*
X326085Y789355D02*
X336075Y789355D01*
X336075Y780365D01*
X326085Y780365D01*
X326085Y789355D01*
X326085Y782773D02*
X336075Y782773D01*
X336075Y785181D02*
X326085Y785181D01*
X326085Y787589D02*
X336075Y787589D01*
X319075Y789355D02*
X309085Y789355D01*
X319075Y789355D02*
X319075Y780365D01*
X309085Y780365D01*
X309085Y789355D01*
X309085Y782773D02*
X319075Y782773D01*
X319075Y785181D02*
X309085Y785181D01*
X309085Y787589D02*
X319075Y787589D01*
X326085Y765225D02*
X336075Y765225D01*
X336075Y756235D01*
X326085Y756235D01*
X326085Y765225D01*
X326085Y758643D02*
X336075Y758643D01*
X336075Y761051D02*
X326085Y761051D01*
X326085Y763459D02*
X336075Y763459D01*
X319075Y765225D02*
X309085Y765225D01*
X319075Y765225D02*
X319075Y756235D01*
X309085Y756235D01*
X309085Y765225D01*
X309085Y758643D02*
X319075Y758643D01*
X319075Y761051D02*
X309085Y761051D01*
X309085Y763459D02*
X319075Y763459D01*
X388035Y534975D02*
X388035Y524985D01*
X379045Y524985D01*
X379045Y534975D01*
X388035Y534975D01*
X388035Y527393D02*
X379045Y527393D01*
X379045Y529801D02*
X388035Y529801D01*
X388035Y532209D02*
X379045Y532209D01*
X379045Y534617D02*
X388035Y534617D01*
X388035Y541985D02*
X388035Y551975D01*
X388035Y541985D02*
X379045Y541985D01*
X379045Y551975D01*
X388035Y551975D01*
X388035Y544393D02*
X379045Y544393D01*
X379045Y546801D02*
X388035Y546801D01*
X388035Y549209D02*
X379045Y549209D01*
X379045Y551617D02*
X388035Y551617D01*
X388035Y489255D02*
X388035Y479265D01*
X379045Y479265D01*
X379045Y489255D01*
X388035Y489255D01*
X388035Y481673D02*
X379045Y481673D01*
X379045Y484081D02*
X388035Y484081D01*
X388035Y486489D02*
X379045Y486489D01*
X379045Y488897D02*
X388035Y488897D01*
X388035Y496265D02*
X388035Y506255D01*
X388035Y496265D02*
X379045Y496265D01*
X379045Y506255D01*
X388035Y506255D01*
X388035Y498673D02*
X379045Y498673D01*
X379045Y501081D02*
X388035Y501081D01*
X388035Y503489D02*
X379045Y503489D01*
X379045Y505897D02*
X388035Y505897D01*
X353645Y506255D02*
X353645Y496265D01*
X353645Y506255D02*
X362635Y506255D01*
X362635Y496265D01*
X353645Y496265D01*
X353645Y498673D02*
X362635Y498673D01*
X362635Y501081D02*
X353645Y501081D01*
X353645Y503489D02*
X362635Y503489D01*
X362635Y505897D02*
X353645Y505897D01*
X353645Y489255D02*
X353645Y479265D01*
X353645Y489255D02*
X362635Y489255D01*
X362635Y479265D01*
X353645Y479265D01*
X353645Y481673D02*
X362635Y481673D01*
X362635Y484081D02*
X353645Y484081D01*
X353645Y486489D02*
X362635Y486489D01*
X362635Y488897D02*
X353645Y488897D01*
X353645Y541985D02*
X353645Y551975D01*
X362635Y551975D01*
X362635Y541985D01*
X353645Y541985D01*
X353645Y544393D02*
X362635Y544393D01*
X362635Y546801D02*
X353645Y546801D01*
X353645Y549209D02*
X362635Y549209D01*
X362635Y551617D02*
X353645Y551617D01*
X353645Y534975D02*
X353645Y524985D01*
X353645Y534975D02*
X362635Y534975D01*
X362635Y524985D01*
X353645Y524985D01*
X353645Y527393D02*
X362635Y527393D01*
X362635Y529801D02*
X353645Y529801D01*
X353645Y532209D02*
X362635Y532209D01*
X362635Y534617D02*
X353645Y534617D01*
D15*
X131950Y652680D03*
X131950Y633680D03*
X131950Y614680D03*
X131950Y595680D03*
X131950Y576680D03*
X274450Y576680D03*
X274450Y595680D03*
X274450Y614680D03*
X274450Y633680D03*
X274450Y652680D03*
D16*
X165200Y685930D03*
X184200Y685930D03*
X203200Y685930D03*
X222200Y685930D03*
X241200Y685930D03*
X165200Y543430D03*
X184200Y543430D03*
X203200Y543430D03*
X222200Y543430D03*
X241200Y543430D03*
D17*
X25225Y488655D02*
X25225Y481625D01*
X18195Y481625D01*
X18195Y488655D01*
X25225Y488655D01*
X25225Y485894D02*
X18195Y485894D01*
X42765Y488655D02*
X42765Y481625D01*
X35735Y481625D01*
X35735Y488655D01*
X42765Y488655D01*
X42765Y485894D02*
X35735Y485894D01*
D14*
X33985Y535355D02*
X43975Y535355D01*
X43975Y526365D01*
X33985Y526365D01*
X33985Y535355D01*
X33985Y528773D02*
X43975Y528773D01*
X43975Y531181D02*
X33985Y531181D01*
X33985Y533589D02*
X43975Y533589D01*
X26975Y535355D02*
X16985Y535355D01*
X26975Y535355D02*
X26975Y526365D01*
X16985Y526365D01*
X16985Y535355D01*
X16985Y528773D02*
X26975Y528773D01*
X26975Y531181D02*
X16985Y531181D01*
X16985Y533589D02*
X26975Y533589D01*
D17*
X25225Y547665D02*
X25225Y554695D01*
X25225Y547665D02*
X18195Y547665D01*
X18195Y554695D01*
X25225Y554695D01*
X25225Y551934D02*
X18195Y551934D01*
X42765Y554695D02*
X42765Y547665D01*
X35735Y547665D01*
X35735Y554695D01*
X42765Y554695D01*
X42765Y551934D02*
X35735Y551934D01*
D14*
X33985Y509955D02*
X43975Y509955D01*
X43975Y500965D01*
X33985Y500965D01*
X33985Y509955D01*
X33985Y503373D02*
X43975Y503373D01*
X43975Y505781D02*
X33985Y505781D01*
X33985Y508189D02*
X43975Y508189D01*
X26975Y509955D02*
X16985Y509955D01*
X26975Y509955D02*
X26975Y500965D01*
X16985Y500965D01*
X16985Y509955D01*
X16985Y503373D02*
X26975Y503373D01*
X26975Y505781D02*
X16985Y505781D01*
X16985Y508189D02*
X26975Y508189D01*
D18*
X4505Y637135D02*
X4505Y648225D01*
X23595Y648225D01*
X23595Y637135D01*
X4505Y637135D01*
X4505Y639447D02*
X23595Y639447D01*
X23595Y641759D02*
X4505Y641759D01*
X4505Y644071D02*
X23595Y644071D01*
X23595Y646383D02*
X4505Y646383D01*
X4505Y592225D02*
X4505Y581135D01*
X4505Y592225D02*
X23595Y592225D01*
X23595Y581135D01*
X4505Y581135D01*
X4505Y583447D02*
X23595Y583447D01*
X23595Y585759D02*
X4505Y585759D01*
X4505Y588071D02*
X23595Y588071D01*
X23595Y590383D02*
X4505Y590383D01*
D19*
X44567Y627197D02*
X44567Y632163D01*
X57033Y632163D01*
X57033Y627197D01*
X44567Y627197D01*
X44567Y629627D02*
X57033Y629627D01*
X57033Y632057D02*
X44567Y632057D01*
X44567Y622163D02*
X44567Y617197D01*
X44567Y622163D02*
X57033Y622163D01*
X57033Y617197D01*
X44567Y617197D01*
X44567Y619627D02*
X57033Y619627D01*
X57033Y622057D02*
X44567Y622057D01*
X44567Y612163D02*
X44567Y607197D01*
X44567Y612163D02*
X57033Y612163D01*
X57033Y607197D01*
X44567Y607197D01*
X44567Y609627D02*
X57033Y609627D01*
X57033Y612057D02*
X44567Y612057D01*
X44567Y602163D02*
X44567Y597197D01*
X44567Y602163D02*
X57033Y602163D01*
X57033Y597197D01*
X44567Y597197D01*
X44567Y599627D02*
X57033Y599627D01*
X57033Y602057D02*
X44567Y602057D01*
D18*
X401895Y592225D02*
X401895Y581135D01*
X382805Y581135D01*
X382805Y592225D01*
X401895Y592225D01*
X401895Y583447D02*
X382805Y583447D01*
X382805Y585759D02*
X401895Y585759D01*
X401895Y588071D02*
X382805Y588071D01*
X382805Y590383D02*
X401895Y590383D01*
X401895Y637135D02*
X401895Y648225D01*
X401895Y637135D02*
X382805Y637135D01*
X382805Y648225D01*
X401895Y648225D01*
X401895Y639447D02*
X382805Y639447D01*
X382805Y641759D02*
X401895Y641759D01*
X401895Y644071D02*
X382805Y644071D01*
X382805Y646383D02*
X401895Y646383D01*
D19*
X361833Y602163D02*
X361833Y597197D01*
X349367Y597197D01*
X349367Y602163D01*
X361833Y602163D01*
X361833Y599627D02*
X349367Y599627D01*
X349367Y602057D02*
X361833Y602057D01*
X361833Y607197D02*
X361833Y612163D01*
X361833Y607197D02*
X349367Y607197D01*
X349367Y612163D01*
X361833Y612163D01*
X361833Y609627D02*
X349367Y609627D01*
X349367Y612057D02*
X361833Y612057D01*
X361833Y617197D02*
X361833Y622163D01*
X361833Y617197D02*
X349367Y617197D01*
X349367Y622163D01*
X361833Y622163D01*
X361833Y619627D02*
X349367Y619627D01*
X349367Y622057D02*
X361833Y622057D01*
X361833Y627197D02*
X361833Y632163D01*
X361833Y627197D02*
X349367Y627197D01*
X349367Y632163D01*
X361833Y632163D01*
X361833Y629627D02*
X349367Y629627D01*
X349367Y632057D02*
X361833Y632057D01*
D20*
X139700Y805180D03*
X165100Y805180D03*
X190500Y805180D03*
X215900Y805180D03*
X241300Y805180D03*
X266700Y805180D03*
X292100Y424180D03*
X266700Y424180D03*
X241300Y424180D03*
X215900Y424180D03*
X190500Y424180D03*
X165100Y424180D03*
X139700Y424180D03*
X114300Y424180D03*
D14*
X168605Y774115D02*
X178595Y774115D01*
X178595Y765125D01*
X168605Y765125D01*
X168605Y774115D01*
X168605Y767533D02*
X178595Y767533D01*
X178595Y769941D02*
X168605Y769941D01*
X168605Y772349D02*
X178595Y772349D01*
X161595Y774115D02*
X151605Y774115D01*
X161595Y774115D02*
X161595Y765125D01*
X151605Y765125D01*
X151605Y774115D01*
X151605Y767533D02*
X161595Y767533D01*
X161595Y769941D02*
X151605Y769941D01*
X151605Y772349D02*
X161595Y772349D01*
X40165Y675055D02*
X30175Y675055D01*
X40165Y675055D02*
X40165Y666065D01*
X30175Y666065D01*
X30175Y675055D01*
X30175Y668473D02*
X40165Y668473D01*
X40165Y670881D02*
X30175Y670881D01*
X30175Y673289D02*
X40165Y673289D01*
X23165Y675055D02*
X13175Y675055D01*
X23165Y675055D02*
X23165Y666065D01*
X13175Y666065D01*
X13175Y675055D01*
X13175Y668473D02*
X23165Y668473D01*
X23165Y670881D02*
X13175Y670881D01*
X13175Y673289D02*
X23165Y673289D01*
D10*
X417830Y811530D03*
X811530Y417830D03*
D11*
X792480Y436880D03*
X436880Y792480D03*
X792480Y792480D03*
X436880Y436880D03*
D12*
X451200Y744940D03*
D13*
X506880Y795732D02*
X506880Y801052D01*
X514200Y801052D01*
X514200Y795732D01*
X506880Y795732D01*
X506880Y798111D02*
X514200Y798111D01*
X514200Y800490D02*
X506880Y800490D01*
X506880Y778052D02*
X506880Y772732D01*
X506880Y778052D02*
X514200Y778052D01*
X514200Y772732D01*
X506880Y772732D01*
X506880Y775111D02*
X514200Y775111D01*
X514200Y777490D02*
X506880Y777490D01*
D14*
X492175Y776445D02*
X492175Y786435D01*
X492175Y776445D02*
X483185Y776445D01*
X483185Y786435D01*
X492175Y786435D01*
X492175Y778853D02*
X483185Y778853D01*
X483185Y781261D02*
X492175Y781261D01*
X492175Y783669D02*
X483185Y783669D01*
X483185Y786077D02*
X492175Y786077D01*
X492175Y793445D02*
X492175Y803435D01*
X492175Y793445D02*
X483185Y793445D01*
X483185Y803435D01*
X492175Y803435D01*
X492175Y795853D02*
X483185Y795853D01*
X483185Y798261D02*
X492175Y798261D01*
X492175Y800669D02*
X483185Y800669D01*
X483185Y803077D02*
X492175Y803077D01*
X737565Y789355D02*
X747555Y789355D01*
X747555Y780365D01*
X737565Y780365D01*
X737565Y789355D01*
X737565Y782773D02*
X747555Y782773D01*
X747555Y785181D02*
X737565Y785181D01*
X737565Y787589D02*
X747555Y787589D01*
X730555Y789355D02*
X720565Y789355D01*
X730555Y789355D02*
X730555Y780365D01*
X720565Y780365D01*
X720565Y789355D01*
X720565Y782773D02*
X730555Y782773D01*
X730555Y785181D02*
X720565Y785181D01*
X720565Y787589D02*
X730555Y787589D01*
X737565Y765225D02*
X747555Y765225D01*
X747555Y756235D01*
X737565Y756235D01*
X737565Y765225D01*
X737565Y758643D02*
X747555Y758643D01*
X747555Y761051D02*
X737565Y761051D01*
X737565Y763459D02*
X747555Y763459D01*
X730555Y765225D02*
X720565Y765225D01*
X730555Y765225D02*
X730555Y756235D01*
X720565Y756235D01*
X720565Y765225D01*
X720565Y758643D02*
X730555Y758643D01*
X730555Y761051D02*
X720565Y761051D01*
X720565Y763459D02*
X730555Y763459D01*
X799515Y534975D02*
X799515Y524985D01*
X790525Y524985D01*
X790525Y534975D01*
X799515Y534975D01*
X799515Y527393D02*
X790525Y527393D01*
X790525Y529801D02*
X799515Y529801D01*
X799515Y532209D02*
X790525Y532209D01*
X790525Y534617D02*
X799515Y534617D01*
X799515Y541985D02*
X799515Y551975D01*
X799515Y541985D02*
X790525Y541985D01*
X790525Y551975D01*
X799515Y551975D01*
X799515Y544393D02*
X790525Y544393D01*
X790525Y546801D02*
X799515Y546801D01*
X799515Y549209D02*
X790525Y549209D01*
X790525Y551617D02*
X799515Y551617D01*
X799515Y489255D02*
X799515Y479265D01*
X790525Y479265D01*
X790525Y489255D01*
X799515Y489255D01*
X799515Y481673D02*
X790525Y481673D01*
X790525Y484081D02*
X799515Y484081D01*
X799515Y486489D02*
X790525Y486489D01*
X790525Y488897D02*
X799515Y488897D01*
X799515Y496265D02*
X799515Y506255D01*
X799515Y496265D02*
X790525Y496265D01*
X790525Y506255D01*
X799515Y506255D01*
X799515Y498673D02*
X790525Y498673D01*
X790525Y501081D02*
X799515Y501081D01*
X799515Y503489D02*
X790525Y503489D01*
X790525Y505897D02*
X799515Y505897D01*
X765125Y506255D02*
X765125Y496265D01*
X765125Y506255D02*
X774115Y506255D01*
X774115Y496265D01*
X765125Y496265D01*
X765125Y498673D02*
X774115Y498673D01*
X774115Y501081D02*
X765125Y501081D01*
X765125Y503489D02*
X774115Y503489D01*
X774115Y505897D02*
X765125Y505897D01*
X765125Y489255D02*
X765125Y479265D01*
X765125Y489255D02*
X774115Y489255D01*
X774115Y479265D01*
X765125Y479265D01*
X765125Y481673D02*
X774115Y481673D01*
X774115Y484081D02*
X765125Y484081D01*
X765125Y486489D02*
X774115Y486489D01*
X774115Y488897D02*
X765125Y488897D01*
X765125Y541985D02*
X765125Y551975D01*
X774115Y551975D01*
X774115Y541985D01*
X765125Y541985D01*
X765125Y544393D02*
X774115Y544393D01*
X774115Y546801D02*
X765125Y546801D01*
X765125Y549209D02*
X774115Y549209D01*
X774115Y551617D02*
X765125Y551617D01*
X765125Y534975D02*
X765125Y524985D01*
X765125Y534975D02*
X774115Y534975D01*
X774115Y524985D01*
X765125Y524985D01*
X765125Y527393D02*
X774115Y527393D01*
X774115Y529801D02*
X765125Y529801D01*
X765125Y532209D02*
X774115Y532209D01*
X774115Y534617D02*
X765125Y534617D01*
D15*
X543430Y652680D03*
X543430Y633680D03*
X543430Y614680D03*
X543430Y595680D03*
X543430Y576680D03*
X685930Y576680D03*
X685930Y595680D03*
X685930Y614680D03*
X685930Y633680D03*
X685930Y652680D03*
D16*
X576680Y685930D03*
X595680Y685930D03*
X614680Y685930D03*
X633680Y685930D03*
X652680Y685930D03*
X576680Y543430D03*
X595680Y543430D03*
X614680Y543430D03*
X633680Y543430D03*
X652680Y543430D03*
D17*
X436705Y488655D02*
X436705Y481625D01*
X429675Y481625D01*
X429675Y488655D01*
X436705Y488655D01*
X436705Y485894D02*
X429675Y485894D01*
X454245Y488655D02*
X454245Y481625D01*
X447215Y481625D01*
X447215Y488655D01*
X454245Y488655D01*
X454245Y485894D02*
X447215Y485894D01*
D14*
X445465Y535355D02*
X455455Y535355D01*
X455455Y526365D01*
X445465Y526365D01*
X445465Y535355D01*
X445465Y528773D02*
X455455Y528773D01*
X455455Y531181D02*
X445465Y531181D01*
X445465Y533589D02*
X455455Y533589D01*
X438455Y535355D02*
X428465Y535355D01*
X438455Y535355D02*
X438455Y526365D01*
X428465Y526365D01*
X428465Y535355D01*
X428465Y528773D02*
X438455Y528773D01*
X438455Y531181D02*
X428465Y531181D01*
X428465Y533589D02*
X438455Y533589D01*
D17*
X436705Y547665D02*
X436705Y554695D01*
X436705Y547665D02*
X429675Y547665D01*
X429675Y554695D01*
X436705Y554695D01*
X436705Y551934D02*
X429675Y551934D01*
X454245Y554695D02*
X454245Y547665D01*
X447215Y547665D01*
X447215Y554695D01*
X454245Y554695D01*
X454245Y551934D02*
X447215Y551934D01*
D14*
X445465Y509955D02*
X455455Y509955D01*
X455455Y500965D01*
X445465Y500965D01*
X445465Y509955D01*
X445465Y503373D02*
X455455Y503373D01*
X455455Y505781D02*
X445465Y505781D01*
X445465Y508189D02*
X455455Y508189D01*
X438455Y509955D02*
X428465Y509955D01*
X438455Y509955D02*
X438455Y500965D01*
X428465Y500965D01*
X428465Y509955D01*
X428465Y503373D02*
X438455Y503373D01*
X438455Y505781D02*
X428465Y505781D01*
X428465Y508189D02*
X438455Y508189D01*
D18*
X415985Y637135D02*
X415985Y648225D01*
X435075Y648225D01*
X435075Y637135D01*
X415985Y637135D01*
X415985Y639447D02*
X435075Y639447D01*
X435075Y641759D02*
X415985Y641759D01*
X415985Y644071D02*
X435075Y644071D01*
X435075Y646383D02*
X415985Y646383D01*
X415985Y592225D02*
X415985Y581135D01*
X415985Y592225D02*
X435075Y592225D01*
X435075Y581135D01*
X415985Y581135D01*
X415985Y583447D02*
X435075Y583447D01*
X435075Y585759D02*
X415985Y585759D01*
X415985Y588071D02*
X435075Y588071D01*
X435075Y590383D02*
X415985Y590383D01*
D19*
X456047Y627197D02*
X456047Y632163D01*
X468513Y632163D01*
X468513Y627197D01*
X456047Y627197D01*
X456047Y629627D02*
X468513Y629627D01*
X468513Y632057D02*
X456047Y632057D01*
X456047Y622163D02*
X456047Y617197D01*
X456047Y622163D02*
X468513Y622163D01*
X468513Y617197D01*
X456047Y617197D01*
X456047Y619627D02*
X468513Y619627D01*
X468513Y622057D02*
X456047Y622057D01*
X456047Y612163D02*
X456047Y607197D01*
X456047Y612163D02*
X468513Y612163D01*
X468513Y607197D01*
X456047Y607197D01*
X456047Y609627D02*
X468513Y609627D01*
X468513Y612057D02*
X456047Y612057D01*
X456047Y602163D02*
X456047Y597197D01*
X456047Y602163D02*
X468513Y602163D01*
X468513Y597197D01*
X456047Y597197D01*
X456047Y599627D02*
X468513Y599627D01*
X468513Y602057D02*
X456047Y602057D01*
D18*
X813375Y592225D02*
X813375Y581135D01*
X794285Y581135D01*
X794285Y592225D01*
X813375Y592225D01*
X813375Y583447D02*
X794285Y583447D01*
X794285Y585759D02*
X813375Y585759D01*
X813375Y588071D02*
X794285Y588071D01*
X794285Y590383D02*
X813375Y590383D01*
X813375Y637135D02*
X813375Y648225D01*
X813375Y637135D02*
X794285Y637135D01*
X794285Y648225D01*
X813375Y648225D01*
X813375Y639447D02*
X794285Y639447D01*
X794285Y641759D02*
X813375Y641759D01*
X813375Y644071D02*
X794285Y644071D01*
X794285Y646383D02*
X813375Y646383D01*
D19*
X773313Y602163D02*
X773313Y597197D01*
X760847Y597197D01*
X760847Y602163D01*
X773313Y602163D01*
X773313Y599627D02*
X760847Y599627D01*
X760847Y602057D02*
X773313Y602057D01*
X773313Y607197D02*
X773313Y612163D01*
X773313Y607197D02*
X760847Y607197D01*
X760847Y612163D01*
X773313Y612163D01*
X773313Y609627D02*
X760847Y609627D01*
X760847Y612057D02*
X773313Y612057D01*
X773313Y617197D02*
X773313Y622163D01*
X773313Y617197D02*
X760847Y617197D01*
X760847Y622163D01*
X773313Y622163D01*
X773313Y619627D02*
X760847Y619627D01*
X760847Y622057D02*
X773313Y622057D01*
X773313Y627197D02*
X773313Y632163D01*
X773313Y627197D02*
X760847Y627197D01*
X760847Y632163D01*
X773313Y632163D01*
X773313Y629627D02*
X760847Y629627D01*
X760847Y632057D02*
X773313Y632057D01*
D20*
X551180Y805180D03*
X576580Y805180D03*
X601980Y805180D03*
X627380Y805180D03*
X652780Y805180D03*
X678180Y805180D03*
X703580Y424180D03*
X678180Y424180D03*
X652780Y424180D03*
X627380Y424180D03*
X601980Y424180D03*
X576580Y424180D03*
X551180Y424180D03*
X525780Y424180D03*
D14*
X580085Y774115D02*
X590075Y774115D01*
X590075Y765125D01*
X580085Y765125D01*
X580085Y774115D01*
X580085Y767533D02*
X590075Y767533D01*
X590075Y769941D02*
X580085Y769941D01*
X580085Y772349D02*
X590075Y772349D01*
X573075Y774115D02*
X563085Y774115D01*
X573075Y774115D02*
X573075Y765125D01*
X563085Y765125D01*
X563085Y774115D01*
X563085Y767533D02*
X573075Y767533D01*
X573075Y769941D02*
X563085Y769941D01*
X563085Y772349D02*
X573075Y772349D01*
X451645Y675055D02*
X441655Y675055D01*
X451645Y675055D02*
X451645Y666065D01*
X441655Y666065D01*
X441655Y675055D01*
X441655Y668473D02*
X451645Y668473D01*
X451645Y670881D02*
X441655Y670881D01*
X441655Y673289D02*
X451645Y673289D01*
X434645Y675055D02*
X424655Y675055D01*
X434645Y675055D02*
X434645Y666065D01*
X424655Y666065D01*
X424655Y675055D01*
X424655Y668473D02*
X434645Y668473D01*
X434645Y670881D02*
X424655Y670881D01*
X424655Y673289D02*
X434645Y673289D01*
D10*
X829310Y811530D03*
X1223010Y417830D03*
D11*
X1203960Y436880D03*
X848360Y792480D03*
X1203960Y792480D03*
X848360Y436880D03*
D12*
X862680Y744940D03*
D13*
X918360Y795732D02*
X918360Y801052D01*
X925680Y801052D01*
X925680Y795732D01*
X918360Y795732D01*
X918360Y798111D02*
X925680Y798111D01*
X925680Y800490D02*
X918360Y800490D01*
X918360Y778052D02*
X918360Y772732D01*
X918360Y778052D02*
X925680Y778052D01*
X925680Y772732D01*
X918360Y772732D01*
X918360Y775111D02*
X925680Y775111D01*
X925680Y777490D02*
X918360Y777490D01*
D14*
X903655Y776445D02*
X903655Y786435D01*
X903655Y776445D02*
X894665Y776445D01*
X894665Y786435D01*
X903655Y786435D01*
X903655Y778853D02*
X894665Y778853D01*
X894665Y781261D02*
X903655Y781261D01*
X903655Y783669D02*
X894665Y783669D01*
X894665Y786077D02*
X903655Y786077D01*
X903655Y793445D02*
X903655Y803435D01*
X903655Y793445D02*
X894665Y793445D01*
X894665Y803435D01*
X903655Y803435D01*
X903655Y795853D02*
X894665Y795853D01*
X894665Y798261D02*
X903655Y798261D01*
X903655Y800669D02*
X894665Y800669D01*
X894665Y803077D02*
X903655Y803077D01*
X1149045Y789355D02*
X1159035Y789355D01*
X1159035Y780365D01*
X1149045Y780365D01*
X1149045Y789355D01*
X1149045Y782773D02*
X1159035Y782773D01*
X1159035Y785181D02*
X1149045Y785181D01*
X1149045Y787589D02*
X1159035Y787589D01*
X1142035Y789355D02*
X1132045Y789355D01*
X1142035Y789355D02*
X1142035Y780365D01*
X1132045Y780365D01*
X1132045Y789355D01*
X1132045Y782773D02*
X1142035Y782773D01*
X1142035Y785181D02*
X1132045Y785181D01*
X1132045Y787589D02*
X1142035Y787589D01*
X1149045Y765225D02*
X1159035Y765225D01*
X1159035Y756235D01*
X1149045Y756235D01*
X1149045Y765225D01*
X1149045Y758643D02*
X1159035Y758643D01*
X1159035Y761051D02*
X1149045Y761051D01*
X1149045Y763459D02*
X1159035Y763459D01*
X1142035Y765225D02*
X1132045Y765225D01*
X1142035Y765225D02*
X1142035Y756235D01*
X1132045Y756235D01*
X1132045Y765225D01*
X1132045Y758643D02*
X1142035Y758643D01*
X1142035Y761051D02*
X1132045Y761051D01*
X1132045Y763459D02*
X1142035Y763459D01*
X1210995Y534975D02*
X1210995Y524985D01*
X1202005Y524985D01*
X1202005Y534975D01*
X1210995Y534975D01*
X1210995Y527393D02*
X1202005Y527393D01*
X1202005Y529801D02*
X1210995Y529801D01*
X1210995Y532209D02*
X1202005Y532209D01*
X1202005Y534617D02*
X1210995Y534617D01*
X1210995Y541985D02*
X1210995Y551975D01*
X1210995Y541985D02*
X1202005Y541985D01*
X1202005Y551975D01*
X1210995Y551975D01*
X1210995Y544393D02*
X1202005Y544393D01*
X1202005Y546801D02*
X1210995Y546801D01*
X1210995Y549209D02*
X1202005Y549209D01*
X1202005Y551617D02*
X1210995Y551617D01*
X1210995Y489255D02*
X1210995Y479265D01*
X1202005Y479265D01*
X1202005Y489255D01*
X1210995Y489255D01*
X1210995Y481673D02*
X1202005Y481673D01*
X1202005Y484081D02*
X1210995Y484081D01*
X1210995Y486489D02*
X1202005Y486489D01*
X1202005Y488897D02*
X1210995Y488897D01*
X1210995Y496265D02*
X1210995Y506255D01*
X1210995Y496265D02*
X1202005Y496265D01*
X1202005Y506255D01*
X1210995Y506255D01*
X1210995Y498673D02*
X1202005Y498673D01*
X1202005Y501081D02*
X1210995Y501081D01*
X1210995Y503489D02*
X1202005Y503489D01*
X1202005Y505897D02*
X1210995Y505897D01*
X1176605Y506255D02*
X1176605Y496265D01*
X1176605Y506255D02*
X1185595Y506255D01*
X1185595Y496265D01*
X1176605Y496265D01*
X1176605Y498673D02*
X1185595Y498673D01*
X1185595Y501081D02*
X1176605Y501081D01*
X1176605Y503489D02*
X1185595Y503489D01*
X1185595Y505897D02*
X1176605Y505897D01*
X1176605Y489255D02*
X1176605Y479265D01*
X1176605Y489255D02*
X1185595Y489255D01*
X1185595Y479265D01*
X1176605Y479265D01*
X1176605Y481673D02*
X1185595Y481673D01*
X1185595Y484081D02*
X1176605Y484081D01*
X1176605Y486489D02*
X1185595Y486489D01*
X1185595Y488897D02*
X1176605Y488897D01*
X1176605Y541985D02*
X1176605Y551975D01*
X1185595Y551975D01*
X1185595Y541985D01*
X1176605Y541985D01*
X1176605Y544393D02*
X1185595Y544393D01*
X1185595Y546801D02*
X1176605Y546801D01*
X1176605Y549209D02*
X1185595Y549209D01*
X1185595Y551617D02*
X1176605Y551617D01*
X1176605Y534975D02*
X1176605Y524985D01*
X1176605Y534975D02*
X1185595Y534975D01*
X1185595Y524985D01*
X1176605Y524985D01*
X1176605Y527393D02*
X1185595Y527393D01*
X1185595Y529801D02*
X1176605Y529801D01*
X1176605Y532209D02*
X1185595Y532209D01*
X1185595Y534617D02*
X1176605Y534617D01*
D15*
X954910Y652680D03*
X954910Y633680D03*
X954910Y614680D03*
X954910Y595680D03*
X954910Y576680D03*
X1097410Y576680D03*
X1097410Y595680D03*
X1097410Y614680D03*
X1097410Y633680D03*
X1097410Y652680D03*
D16*
X988160Y685930D03*
X1007160Y685930D03*
X1026160Y685930D03*
X1045160Y685930D03*
X1064160Y685930D03*
X988160Y543430D03*
X1007160Y543430D03*
X1026160Y543430D03*
X1045160Y543430D03*
X1064160Y543430D03*
D17*
X848185Y488655D02*
X848185Y481625D01*
X841155Y481625D01*
X841155Y488655D01*
X848185Y488655D01*
X848185Y485894D02*
X841155Y485894D01*
X865725Y488655D02*
X865725Y481625D01*
X858695Y481625D01*
X858695Y488655D01*
X865725Y488655D01*
X865725Y485894D02*
X858695Y485894D01*
D14*
X856945Y535355D02*
X866935Y535355D01*
X866935Y526365D01*
X856945Y526365D01*
X856945Y535355D01*
X856945Y528773D02*
X866935Y528773D01*
X866935Y531181D02*
X856945Y531181D01*
X856945Y533589D02*
X866935Y533589D01*
X849935Y535355D02*
X839945Y535355D01*
X849935Y535355D02*
X849935Y526365D01*
X839945Y526365D01*
X839945Y535355D01*
X839945Y528773D02*
X849935Y528773D01*
X849935Y531181D02*
X839945Y531181D01*
X839945Y533589D02*
X849935Y533589D01*
D17*
X848185Y547665D02*
X848185Y554695D01*
X848185Y547665D02*
X841155Y547665D01*
X841155Y554695D01*
X848185Y554695D01*
X848185Y551934D02*
X841155Y551934D01*
X865725Y554695D02*
X865725Y547665D01*
X858695Y547665D01*
X858695Y554695D01*
X865725Y554695D01*
X865725Y551934D02*
X858695Y551934D01*
D14*
X856945Y509955D02*
X866935Y509955D01*
X866935Y500965D01*
X856945Y500965D01*
X856945Y509955D01*
X856945Y503373D02*
X866935Y503373D01*
X866935Y505781D02*
X856945Y505781D01*
X856945Y508189D02*
X866935Y508189D01*
X849935Y509955D02*
X839945Y509955D01*
X849935Y509955D02*
X849935Y500965D01*
X839945Y500965D01*
X839945Y509955D01*
X839945Y503373D02*
X849935Y503373D01*
X849935Y505781D02*
X839945Y505781D01*
X839945Y508189D02*
X849935Y508189D01*
D18*
X827465Y637135D02*
X827465Y648225D01*
X846555Y648225D01*
X846555Y637135D01*
X827465Y637135D01*
X827465Y639447D02*
X846555Y639447D01*
X846555Y641759D02*
X827465Y641759D01*
X827465Y644071D02*
X846555Y644071D01*
X846555Y646383D02*
X827465Y646383D01*
X827465Y592225D02*
X827465Y581135D01*
X827465Y592225D02*
X846555Y592225D01*
X846555Y581135D01*
X827465Y581135D01*
X827465Y583447D02*
X846555Y583447D01*
X846555Y585759D02*
X827465Y585759D01*
X827465Y588071D02*
X846555Y588071D01*
X846555Y590383D02*
X827465Y590383D01*
D19*
X867527Y627197D02*
X867527Y632163D01*
X879993Y632163D01*
X879993Y627197D01*
X867527Y627197D01*
X867527Y629627D02*
X879993Y629627D01*
X879993Y632057D02*
X867527Y632057D01*
X867527Y622163D02*
X867527Y617197D01*
X867527Y622163D02*
X879993Y622163D01*
X879993Y617197D01*
X867527Y617197D01*
X867527Y619627D02*
X879993Y619627D01*
X879993Y622057D02*
X867527Y622057D01*
X867527Y612163D02*
X867527Y607197D01*
X867527Y612163D02*
X879993Y612163D01*
X879993Y607197D01*
X867527Y607197D01*
X867527Y609627D02*
X879993Y609627D01*
X879993Y612057D02*
X867527Y612057D01*
X867527Y602163D02*
X867527Y597197D01*
X867527Y602163D02*
X879993Y602163D01*
X879993Y597197D01*
X867527Y597197D01*
X867527Y599627D02*
X879993Y599627D01*
X879993Y602057D02*
X867527Y602057D01*
D18*
X1224855Y592225D02*
X1224855Y581135D01*
X1205765Y581135D01*
X1205765Y592225D01*
X1224855Y592225D01*
X1224855Y583447D02*
X1205765Y583447D01*
X1205765Y585759D02*
X1224855Y585759D01*
X1224855Y588071D02*
X1205765Y588071D01*
X1205765Y590383D02*
X1224855Y590383D01*
X1224855Y637135D02*
X1224855Y648225D01*
X1224855Y637135D02*
X1205765Y637135D01*
X1205765Y648225D01*
X1224855Y648225D01*
X1224855Y639447D02*
X1205765Y639447D01*
X1205765Y641759D02*
X1224855Y641759D01*
X1224855Y644071D02*
X1205765Y644071D01*
X1205765Y646383D02*
X1224855Y646383D01*
D19*
X1184793Y602163D02*
X1184793Y597197D01*
X1172327Y597197D01*
X1172327Y602163D01*
X1184793Y602163D01*
X1184793Y599627D02*
X1172327Y599627D01*
X1172327Y602057D02*
X1184793Y602057D01*
X1184793Y607197D02*
X1184793Y612163D01*
X1184793Y607197D02*
X1172327Y607197D01*
X1172327Y612163D01*
X1184793Y612163D01*
X1184793Y609627D02*
X1172327Y609627D01*
X1172327Y612057D02*
X1184793Y612057D01*
X1184793Y617197D02*
X1184793Y622163D01*
X1184793Y617197D02*
X1172327Y617197D01*
X1172327Y622163D01*
X1184793Y622163D01*
X1184793Y619627D02*
X1172327Y619627D01*
X1172327Y622057D02*
X1184793Y622057D01*
X1184793Y627197D02*
X1184793Y632163D01*
X1184793Y627197D02*
X1172327Y627197D01*
X1172327Y632163D01*
X1184793Y632163D01*
X1184793Y629627D02*
X1172327Y629627D01*
X1172327Y632057D02*
X1184793Y632057D01*
D20*
X962660Y805180D03*
X988060Y805180D03*
X1013460Y805180D03*
X1038860Y805180D03*
X1064260Y805180D03*
X1089660Y805180D03*
X1115060Y424180D03*
X1089660Y424180D03*
X1064260Y424180D03*
X1038860Y424180D03*
X1013460Y424180D03*
X988060Y424180D03*
X962660Y424180D03*
X937260Y424180D03*
D14*
X991565Y774115D02*
X1001555Y774115D01*
X1001555Y765125D01*
X991565Y765125D01*
X991565Y774115D01*
X991565Y767533D02*
X1001555Y767533D01*
X1001555Y769941D02*
X991565Y769941D01*
X991565Y772349D02*
X1001555Y772349D01*
X984555Y774115D02*
X974565Y774115D01*
X984555Y774115D02*
X984555Y765125D01*
X974565Y765125D01*
X974565Y774115D01*
X974565Y767533D02*
X984555Y767533D01*
X984555Y769941D02*
X974565Y769941D01*
X974565Y772349D02*
X984555Y772349D01*
X863125Y675055D02*
X853135Y675055D01*
X863125Y675055D02*
X863125Y666065D01*
X853135Y666065D01*
X853135Y675055D01*
X853135Y668473D02*
X863125Y668473D01*
X863125Y670881D02*
X853135Y670881D01*
X853135Y673289D02*
X863125Y673289D01*
X846125Y675055D02*
X836135Y675055D01*
X846125Y675055D02*
X846125Y666065D01*
X836135Y666065D01*
X836135Y675055D01*
X836135Y668473D02*
X846125Y668473D01*
X846125Y670881D02*
X836135Y670881D01*
X836135Y673289D02*
X846125Y673289D01*
D10*
X1240790Y811530D03*
X1634490Y417830D03*
D11*
X1615440Y436880D03*
X1259840Y792480D03*
X1615440Y792480D03*
X1259840Y436880D03*
D12*
X1274160Y744940D03*
D13*
X1329840Y795732D02*
X1329840Y801052D01*
X1337160Y801052D01*
X1337160Y795732D01*
X1329840Y795732D01*
X1329840Y798111D02*
X1337160Y798111D01*
X1337160Y800490D02*
X1329840Y800490D01*
X1329840Y778052D02*
X1329840Y772732D01*
X1329840Y778052D02*
X1337160Y778052D01*
X1337160Y772732D01*
X1329840Y772732D01*
X1329840Y775111D02*
X1337160Y775111D01*
X1337160Y777490D02*
X1329840Y777490D01*
D14*
X1315135Y776445D02*
X1315135Y786435D01*
X1315135Y776445D02*
X1306145Y776445D01*
X1306145Y786435D01*
X1315135Y786435D01*
X1315135Y778853D02*
X1306145Y778853D01*
X1306145Y781261D02*
X1315135Y781261D01*
X1315135Y783669D02*
X1306145Y783669D01*
X1306145Y786077D02*
X1315135Y786077D01*
X1315135Y793445D02*
X1315135Y803435D01*
X1315135Y793445D02*
X1306145Y793445D01*
X1306145Y803435D01*
X1315135Y803435D01*
X1315135Y795853D02*
X1306145Y795853D01*
X1306145Y798261D02*
X1315135Y798261D01*
X1315135Y800669D02*
X1306145Y800669D01*
X1306145Y803077D02*
X1315135Y803077D01*
X1560525Y789355D02*
X1570515Y789355D01*
X1570515Y780365D01*
X1560525Y780365D01*
X1560525Y789355D01*
X1560525Y782773D02*
X1570515Y782773D01*
X1570515Y785181D02*
X1560525Y785181D01*
X1560525Y787589D02*
X1570515Y787589D01*
X1553515Y789355D02*
X1543525Y789355D01*
X1553515Y789355D02*
X1553515Y780365D01*
X1543525Y780365D01*
X1543525Y789355D01*
X1543525Y782773D02*
X1553515Y782773D01*
X1553515Y785181D02*
X1543525Y785181D01*
X1543525Y787589D02*
X1553515Y787589D01*
X1560525Y765225D02*
X1570515Y765225D01*
X1570515Y756235D01*
X1560525Y756235D01*
X1560525Y765225D01*
X1560525Y758643D02*
X1570515Y758643D01*
X1570515Y761051D02*
X1560525Y761051D01*
X1560525Y763459D02*
X1570515Y763459D01*
X1553515Y765225D02*
X1543525Y765225D01*
X1553515Y765225D02*
X1553515Y756235D01*
X1543525Y756235D01*
X1543525Y765225D01*
X1543525Y758643D02*
X1553515Y758643D01*
X1553515Y761051D02*
X1543525Y761051D01*
X1543525Y763459D02*
X1553515Y763459D01*
X1622475Y534975D02*
X1622475Y524985D01*
X1613485Y524985D01*
X1613485Y534975D01*
X1622475Y534975D01*
X1622475Y527393D02*
X1613485Y527393D01*
X1613485Y529801D02*
X1622475Y529801D01*
X1622475Y532209D02*
X1613485Y532209D01*
X1613485Y534617D02*
X1622475Y534617D01*
X1622475Y541985D02*
X1622475Y551975D01*
X1622475Y541985D02*
X1613485Y541985D01*
X1613485Y551975D01*
X1622475Y551975D01*
X1622475Y544393D02*
X1613485Y544393D01*
X1613485Y546801D02*
X1622475Y546801D01*
X1622475Y549209D02*
X1613485Y549209D01*
X1613485Y551617D02*
X1622475Y551617D01*
X1622475Y489255D02*
X1622475Y479265D01*
X1613485Y479265D01*
X1613485Y489255D01*
X1622475Y489255D01*
X1622475Y481673D02*
X1613485Y481673D01*
X1613485Y484081D02*
X1622475Y484081D01*
X1622475Y486489D02*
X1613485Y486489D01*
X1613485Y488897D02*
X1622475Y488897D01*
X1622475Y496265D02*
X1622475Y506255D01*
X1622475Y496265D02*
X1613485Y496265D01*
X1613485Y506255D01*
X1622475Y506255D01*
X1622475Y498673D02*
X1613485Y498673D01*
X1613485Y501081D02*
X1622475Y501081D01*
X1622475Y503489D02*
X1613485Y503489D01*
X1613485Y505897D02*
X1622475Y505897D01*
X1588085Y506255D02*
X1588085Y496265D01*
X1588085Y506255D02*
X1597075Y506255D01*
X1597075Y496265D01*
X1588085Y496265D01*
X1588085Y498673D02*
X1597075Y498673D01*
X1597075Y501081D02*
X1588085Y501081D01*
X1588085Y503489D02*
X1597075Y503489D01*
X1597075Y505897D02*
X1588085Y505897D01*
X1588085Y489255D02*
X1588085Y479265D01*
X1588085Y489255D02*
X1597075Y489255D01*
X1597075Y479265D01*
X1588085Y479265D01*
X1588085Y481673D02*
X1597075Y481673D01*
X1597075Y484081D02*
X1588085Y484081D01*
X1588085Y486489D02*
X1597075Y486489D01*
X1597075Y488897D02*
X1588085Y488897D01*
X1588085Y541985D02*
X1588085Y551975D01*
X1597075Y551975D01*
X1597075Y541985D01*
X1588085Y541985D01*
X1588085Y544393D02*
X1597075Y544393D01*
X1597075Y546801D02*
X1588085Y546801D01*
X1588085Y549209D02*
X1597075Y549209D01*
X1597075Y551617D02*
X1588085Y551617D01*
X1588085Y534975D02*
X1588085Y524985D01*
X1588085Y534975D02*
X1597075Y534975D01*
X1597075Y524985D01*
X1588085Y524985D01*
X1588085Y527393D02*
X1597075Y527393D01*
X1597075Y529801D02*
X1588085Y529801D01*
X1588085Y532209D02*
X1597075Y532209D01*
X1597075Y534617D02*
X1588085Y534617D01*
D15*
X1366390Y652680D03*
X1366390Y633680D03*
X1366390Y614680D03*
X1366390Y595680D03*
X1366390Y576680D03*
X1508890Y576680D03*
X1508890Y595680D03*
X1508890Y614680D03*
X1508890Y633680D03*
X1508890Y652680D03*
D16*
X1399640Y685930D03*
X1418640Y685930D03*
X1437640Y685930D03*
X1456640Y685930D03*
X1475640Y685930D03*
X1399640Y543430D03*
X1418640Y543430D03*
X1437640Y543430D03*
X1456640Y543430D03*
X1475640Y543430D03*
D17*
X1259665Y488655D02*
X1259665Y481625D01*
X1252635Y481625D01*
X1252635Y488655D01*
X1259665Y488655D01*
X1259665Y485894D02*
X1252635Y485894D01*
X1277205Y488655D02*
X1277205Y481625D01*
X1270175Y481625D01*
X1270175Y488655D01*
X1277205Y488655D01*
X1277205Y485894D02*
X1270175Y485894D01*
D14*
X1268425Y535355D02*
X1278415Y535355D01*
X1278415Y526365D01*
X1268425Y526365D01*
X1268425Y535355D01*
X1268425Y528773D02*
X1278415Y528773D01*
X1278415Y531181D02*
X1268425Y531181D01*
X1268425Y533589D02*
X1278415Y533589D01*
X1261415Y535355D02*
X1251425Y535355D01*
X1261415Y535355D02*
X1261415Y526365D01*
X1251425Y526365D01*
X1251425Y535355D01*
X1251425Y528773D02*
X1261415Y528773D01*
X1261415Y531181D02*
X1251425Y531181D01*
X1251425Y533589D02*
X1261415Y533589D01*
D17*
X1259665Y547665D02*
X1259665Y554695D01*
X1259665Y547665D02*
X1252635Y547665D01*
X1252635Y554695D01*
X1259665Y554695D01*
X1259665Y551934D02*
X1252635Y551934D01*
X1277205Y554695D02*
X1277205Y547665D01*
X1270175Y547665D01*
X1270175Y554695D01*
X1277205Y554695D01*
X1277205Y551934D02*
X1270175Y551934D01*
D14*
X1268425Y509955D02*
X1278415Y509955D01*
X1278415Y500965D01*
X1268425Y500965D01*
X1268425Y509955D01*
X1268425Y503373D02*
X1278415Y503373D01*
X1278415Y505781D02*
X1268425Y505781D01*
X1268425Y508189D02*
X1278415Y508189D01*
X1261415Y509955D02*
X1251425Y509955D01*
X1261415Y509955D02*
X1261415Y500965D01*
X1251425Y500965D01*
X1251425Y509955D01*
X1251425Y503373D02*
X1261415Y503373D01*
X1261415Y505781D02*
X1251425Y505781D01*
X1251425Y508189D02*
X1261415Y508189D01*
D18*
X1238945Y637135D02*
X1238945Y648225D01*
X1258035Y648225D01*
X1258035Y637135D01*
X1238945Y637135D01*
X1238945Y639447D02*
X1258035Y639447D01*
X1258035Y641759D02*
X1238945Y641759D01*
X1238945Y644071D02*
X1258035Y644071D01*
X1258035Y646383D02*
X1238945Y646383D01*
X1238945Y592225D02*
X1238945Y581135D01*
X1238945Y592225D02*
X1258035Y592225D01*
X1258035Y581135D01*
X1238945Y581135D01*
X1238945Y583447D02*
X1258035Y583447D01*
X1258035Y585759D02*
X1238945Y585759D01*
X1238945Y588071D02*
X1258035Y588071D01*
X1258035Y590383D02*
X1238945Y590383D01*
D19*
X1279007Y627197D02*
X1279007Y632163D01*
X1291473Y632163D01*
X1291473Y627197D01*
X1279007Y627197D01*
X1279007Y629627D02*
X1291473Y629627D01*
X1291473Y632057D02*
X1279007Y632057D01*
X1279007Y622163D02*
X1279007Y617197D01*
X1279007Y622163D02*
X1291473Y622163D01*
X1291473Y617197D01*
X1279007Y617197D01*
X1279007Y619627D02*
X1291473Y619627D01*
X1291473Y622057D02*
X1279007Y622057D01*
X1279007Y612163D02*
X1279007Y607197D01*
X1279007Y612163D02*
X1291473Y612163D01*
X1291473Y607197D01*
X1279007Y607197D01*
X1279007Y609627D02*
X1291473Y609627D01*
X1291473Y612057D02*
X1279007Y612057D01*
X1279007Y602163D02*
X1279007Y597197D01*
X1279007Y602163D02*
X1291473Y602163D01*
X1291473Y597197D01*
X1279007Y597197D01*
X1279007Y599627D02*
X1291473Y599627D01*
X1291473Y602057D02*
X1279007Y602057D01*
D18*
X1636335Y592225D02*
X1636335Y581135D01*
X1617245Y581135D01*
X1617245Y592225D01*
X1636335Y592225D01*
X1636335Y583447D02*
X1617245Y583447D01*
X1617245Y585759D02*
X1636335Y585759D01*
X1636335Y588071D02*
X1617245Y588071D01*
X1617245Y590383D02*
X1636335Y590383D01*
X1636335Y637135D02*
X1636335Y648225D01*
X1636335Y637135D02*
X1617245Y637135D01*
X1617245Y648225D01*
X1636335Y648225D01*
X1636335Y639447D02*
X1617245Y639447D01*
X1617245Y641759D02*
X1636335Y641759D01*
X1636335Y644071D02*
X1617245Y644071D01*
X1617245Y646383D02*
X1636335Y646383D01*
D19*
X1596273Y602163D02*
X1596273Y597197D01*
X1583807Y597197D01*
X1583807Y602163D01*
X1596273Y602163D01*
X1596273Y599627D02*
X1583807Y599627D01*
X1583807Y602057D02*
X1596273Y602057D01*
X1596273Y607197D02*
X1596273Y612163D01*
X1596273Y607197D02*
X1583807Y607197D01*
X1583807Y612163D01*
X1596273Y612163D01*
X1596273Y609627D02*
X1583807Y609627D01*
X1583807Y612057D02*
X1596273Y612057D01*
X1596273Y617197D02*
X1596273Y622163D01*
X1596273Y617197D02*
X1583807Y617197D01*
X1583807Y622163D01*
X1596273Y622163D01*
X1596273Y619627D02*
X1583807Y619627D01*
X1583807Y622057D02*
X1596273Y622057D01*
X1596273Y627197D02*
X1596273Y632163D01*
X1596273Y627197D02*
X1583807Y627197D01*
X1583807Y632163D01*
X1596273Y632163D01*
X1596273Y629627D02*
X1583807Y629627D01*
X1583807Y632057D02*
X1596273Y632057D01*
D20*
X1374140Y805180D03*
X1399540Y805180D03*
X1424940Y805180D03*
X1450340Y805180D03*
X1475740Y805180D03*
X1501140Y805180D03*
X1526540Y424180D03*
X1501140Y424180D03*
X1475740Y424180D03*
X1450340Y424180D03*
X1424940Y424180D03*
X1399540Y424180D03*
X1374140Y424180D03*
X1348740Y424180D03*
D14*
X1403045Y774115D02*
X1413035Y774115D01*
X1413035Y765125D01*
X1403045Y765125D01*
X1403045Y774115D01*
X1403045Y767533D02*
X1413035Y767533D01*
X1413035Y769941D02*
X1403045Y769941D01*
X1403045Y772349D02*
X1413035Y772349D01*
X1396035Y774115D02*
X1386045Y774115D01*
X1396035Y774115D02*
X1396035Y765125D01*
X1386045Y765125D01*
X1386045Y774115D01*
X1386045Y767533D02*
X1396035Y767533D01*
X1396035Y769941D02*
X1386045Y769941D01*
X1386045Y772349D02*
X1396035Y772349D01*
X1274605Y675055D02*
X1264615Y675055D01*
X1274605Y675055D02*
X1274605Y666065D01*
X1264615Y666065D01*
X1264615Y675055D01*
X1264615Y668473D02*
X1274605Y668473D01*
X1274605Y670881D02*
X1264615Y670881D01*
X1264615Y673289D02*
X1274605Y673289D01*
X1257605Y675055D02*
X1247615Y675055D01*
X1257605Y675055D02*
X1257605Y666065D01*
X1247615Y666065D01*
X1247615Y675055D01*
X1247615Y668473D02*
X1257605Y668473D01*
X1257605Y670881D02*
X1247615Y670881D01*
X1247615Y673289D02*
X1257605Y673289D01*
D10*
X6350Y1223010D03*
X400050Y829310D03*
D11*
X381000Y848360D03*
X25400Y1203960D03*
X381000Y1203960D03*
X25400Y848360D03*
D12*
X39720Y1156420D03*
D13*
X95400Y1207212D02*
X95400Y1212532D01*
X102720Y1212532D01*
X102720Y1207212D01*
X95400Y1207212D01*
X95400Y1209591D02*
X102720Y1209591D01*
X102720Y1211970D02*
X95400Y1211970D01*
X95400Y1189532D02*
X95400Y1184212D01*
X95400Y1189532D02*
X102720Y1189532D01*
X102720Y1184212D01*
X95400Y1184212D01*
X95400Y1186591D02*
X102720Y1186591D01*
X102720Y1188970D02*
X95400Y1188970D01*
D14*
X80695Y1187925D02*
X80695Y1197915D01*
X80695Y1187925D02*
X71705Y1187925D01*
X71705Y1197915D01*
X80695Y1197915D01*
X80695Y1190333D02*
X71705Y1190333D01*
X71705Y1192741D02*
X80695Y1192741D01*
X80695Y1195149D02*
X71705Y1195149D01*
X71705Y1197557D02*
X80695Y1197557D01*
X80695Y1204925D02*
X80695Y1214915D01*
X80695Y1204925D02*
X71705Y1204925D01*
X71705Y1214915D01*
X80695Y1214915D01*
X80695Y1207333D02*
X71705Y1207333D01*
X71705Y1209741D02*
X80695Y1209741D01*
X80695Y1212149D02*
X71705Y1212149D01*
X71705Y1214557D02*
X80695Y1214557D01*
X326085Y1200835D02*
X336075Y1200835D01*
X336075Y1191845D01*
X326085Y1191845D01*
X326085Y1200835D01*
X326085Y1194253D02*
X336075Y1194253D01*
X336075Y1196661D02*
X326085Y1196661D01*
X326085Y1199069D02*
X336075Y1199069D01*
X319075Y1200835D02*
X309085Y1200835D01*
X319075Y1200835D02*
X319075Y1191845D01*
X309085Y1191845D01*
X309085Y1200835D01*
X309085Y1194253D02*
X319075Y1194253D01*
X319075Y1196661D02*
X309085Y1196661D01*
X309085Y1199069D02*
X319075Y1199069D01*
X326085Y1176705D02*
X336075Y1176705D01*
X336075Y1167715D01*
X326085Y1167715D01*
X326085Y1176705D01*
X326085Y1170123D02*
X336075Y1170123D01*
X336075Y1172531D02*
X326085Y1172531D01*
X326085Y1174939D02*
X336075Y1174939D01*
X319075Y1176705D02*
X309085Y1176705D01*
X319075Y1176705D02*
X319075Y1167715D01*
X309085Y1167715D01*
X309085Y1176705D01*
X309085Y1170123D02*
X319075Y1170123D01*
X319075Y1172531D02*
X309085Y1172531D01*
X309085Y1174939D02*
X319075Y1174939D01*
X388035Y946455D02*
X388035Y936465D01*
X379045Y936465D01*
X379045Y946455D01*
X388035Y946455D01*
X388035Y938873D02*
X379045Y938873D01*
X379045Y941281D02*
X388035Y941281D01*
X388035Y943689D02*
X379045Y943689D01*
X379045Y946097D02*
X388035Y946097D01*
X388035Y953465D02*
X388035Y963455D01*
X388035Y953465D02*
X379045Y953465D01*
X379045Y963455D01*
X388035Y963455D01*
X388035Y955873D02*
X379045Y955873D01*
X379045Y958281D02*
X388035Y958281D01*
X388035Y960689D02*
X379045Y960689D01*
X379045Y963097D02*
X388035Y963097D01*
X388035Y900735D02*
X388035Y890745D01*
X379045Y890745D01*
X379045Y900735D01*
X388035Y900735D01*
X388035Y893153D02*
X379045Y893153D01*
X379045Y895561D02*
X388035Y895561D01*
X388035Y897969D02*
X379045Y897969D01*
X379045Y900377D02*
X388035Y900377D01*
X388035Y907745D02*
X388035Y917735D01*
X388035Y907745D02*
X379045Y907745D01*
X379045Y917735D01*
X388035Y917735D01*
X388035Y910153D02*
X379045Y910153D01*
X379045Y912561D02*
X388035Y912561D01*
X388035Y914969D02*
X379045Y914969D01*
X379045Y917377D02*
X388035Y917377D01*
X353645Y917735D02*
X353645Y907745D01*
X353645Y917735D02*
X362635Y917735D01*
X362635Y907745D01*
X353645Y907745D01*
X353645Y910153D02*
X362635Y910153D01*
X362635Y912561D02*
X353645Y912561D01*
X353645Y914969D02*
X362635Y914969D01*
X362635Y917377D02*
X353645Y917377D01*
X353645Y900735D02*
X353645Y890745D01*
X353645Y900735D02*
X362635Y900735D01*
X362635Y890745D01*
X353645Y890745D01*
X353645Y893153D02*
X362635Y893153D01*
X362635Y895561D02*
X353645Y895561D01*
X353645Y897969D02*
X362635Y897969D01*
X362635Y900377D02*
X353645Y900377D01*
X353645Y953465D02*
X353645Y963455D01*
X362635Y963455D01*
X362635Y953465D01*
X353645Y953465D01*
X353645Y955873D02*
X362635Y955873D01*
X362635Y958281D02*
X353645Y958281D01*
X353645Y960689D02*
X362635Y960689D01*
X362635Y963097D02*
X353645Y963097D01*
X353645Y946455D02*
X353645Y936465D01*
X353645Y946455D02*
X362635Y946455D01*
X362635Y936465D01*
X353645Y936465D01*
X353645Y938873D02*
X362635Y938873D01*
X362635Y941281D02*
X353645Y941281D01*
X353645Y943689D02*
X362635Y943689D01*
X362635Y946097D02*
X353645Y946097D01*
D15*
X131950Y1064160D03*
X131950Y1045160D03*
X131950Y1026160D03*
X131950Y1007160D03*
X131950Y988160D03*
X274450Y988160D03*
X274450Y1007160D03*
X274450Y1026160D03*
X274450Y1045160D03*
X274450Y1064160D03*
D16*
X165200Y1097410D03*
X184200Y1097410D03*
X203200Y1097410D03*
X222200Y1097410D03*
X241200Y1097410D03*
X165200Y954910D03*
X184200Y954910D03*
X203200Y954910D03*
X222200Y954910D03*
X241200Y954910D03*
D17*
X25225Y900135D02*
X25225Y893105D01*
X18195Y893105D01*
X18195Y900135D01*
X25225Y900135D01*
X25225Y897374D02*
X18195Y897374D01*
X42765Y900135D02*
X42765Y893105D01*
X35735Y893105D01*
X35735Y900135D01*
X42765Y900135D01*
X42765Y897374D02*
X35735Y897374D01*
D14*
X33985Y946835D02*
X43975Y946835D01*
X43975Y937845D01*
X33985Y937845D01*
X33985Y946835D01*
X33985Y940253D02*
X43975Y940253D01*
X43975Y942661D02*
X33985Y942661D01*
X33985Y945069D02*
X43975Y945069D01*
X26975Y946835D02*
X16985Y946835D01*
X26975Y946835D02*
X26975Y937845D01*
X16985Y937845D01*
X16985Y946835D01*
X16985Y940253D02*
X26975Y940253D01*
X26975Y942661D02*
X16985Y942661D01*
X16985Y945069D02*
X26975Y945069D01*
D17*
X25225Y959145D02*
X25225Y966175D01*
X25225Y959145D02*
X18195Y959145D01*
X18195Y966175D01*
X25225Y966175D01*
X25225Y963414D02*
X18195Y963414D01*
X42765Y966175D02*
X42765Y959145D01*
X35735Y959145D01*
X35735Y966175D01*
X42765Y966175D01*
X42765Y963414D02*
X35735Y963414D01*
D14*
X33985Y921435D02*
X43975Y921435D01*
X43975Y912445D01*
X33985Y912445D01*
X33985Y921435D01*
X33985Y914853D02*
X43975Y914853D01*
X43975Y917261D02*
X33985Y917261D01*
X33985Y919669D02*
X43975Y919669D01*
X26975Y921435D02*
X16985Y921435D01*
X26975Y921435D02*
X26975Y912445D01*
X16985Y912445D01*
X16985Y921435D01*
X16985Y914853D02*
X26975Y914853D01*
X26975Y917261D02*
X16985Y917261D01*
X16985Y919669D02*
X26975Y919669D01*
D18*
X4505Y1048615D02*
X4505Y1059705D01*
X23595Y1059705D01*
X23595Y1048615D01*
X4505Y1048615D01*
X4505Y1050927D02*
X23595Y1050927D01*
X23595Y1053239D02*
X4505Y1053239D01*
X4505Y1055551D02*
X23595Y1055551D01*
X23595Y1057863D02*
X4505Y1057863D01*
X4505Y1003705D02*
X4505Y992615D01*
X4505Y1003705D02*
X23595Y1003705D01*
X23595Y992615D01*
X4505Y992615D01*
X4505Y994927D02*
X23595Y994927D01*
X23595Y997239D02*
X4505Y997239D01*
X4505Y999551D02*
X23595Y999551D01*
X23595Y1001863D02*
X4505Y1001863D01*
D19*
X44567Y1038677D02*
X44567Y1043643D01*
X57033Y1043643D01*
X57033Y1038677D01*
X44567Y1038677D01*
X44567Y1041107D02*
X57033Y1041107D01*
X57033Y1043537D02*
X44567Y1043537D01*
X44567Y1033643D02*
X44567Y1028677D01*
X44567Y1033643D02*
X57033Y1033643D01*
X57033Y1028677D01*
X44567Y1028677D01*
X44567Y1031107D02*
X57033Y1031107D01*
X57033Y1033537D02*
X44567Y1033537D01*
X44567Y1023643D02*
X44567Y1018677D01*
X44567Y1023643D02*
X57033Y1023643D01*
X57033Y1018677D01*
X44567Y1018677D01*
X44567Y1021107D02*
X57033Y1021107D01*
X57033Y1023537D02*
X44567Y1023537D01*
X44567Y1013643D02*
X44567Y1008677D01*
X44567Y1013643D02*
X57033Y1013643D01*
X57033Y1008677D01*
X44567Y1008677D01*
X44567Y1011107D02*
X57033Y1011107D01*
X57033Y1013537D02*
X44567Y1013537D01*
D18*
X401895Y1003705D02*
X401895Y992615D01*
X382805Y992615D01*
X382805Y1003705D01*
X401895Y1003705D01*
X401895Y994927D02*
X382805Y994927D01*
X382805Y997239D02*
X401895Y997239D01*
X401895Y999551D02*
X382805Y999551D01*
X382805Y1001863D02*
X401895Y1001863D01*
X401895Y1048615D02*
X401895Y1059705D01*
X401895Y1048615D02*
X382805Y1048615D01*
X382805Y1059705D01*
X401895Y1059705D01*
X401895Y1050927D02*
X382805Y1050927D01*
X382805Y1053239D02*
X401895Y1053239D01*
X401895Y1055551D02*
X382805Y1055551D01*
X382805Y1057863D02*
X401895Y1057863D01*
D19*
X361833Y1013643D02*
X361833Y1008677D01*
X349367Y1008677D01*
X349367Y1013643D01*
X361833Y1013643D01*
X361833Y1011107D02*
X349367Y1011107D01*
X349367Y1013537D02*
X361833Y1013537D01*
X361833Y1018677D02*
X361833Y1023643D01*
X361833Y1018677D02*
X349367Y1018677D01*
X349367Y1023643D01*
X361833Y1023643D01*
X361833Y1021107D02*
X349367Y1021107D01*
X349367Y1023537D02*
X361833Y1023537D01*
X361833Y1028677D02*
X361833Y1033643D01*
X361833Y1028677D02*
X349367Y1028677D01*
X349367Y1033643D01*
X361833Y1033643D01*
X361833Y1031107D02*
X349367Y1031107D01*
X349367Y1033537D02*
X361833Y1033537D01*
X361833Y1038677D02*
X361833Y1043643D01*
X361833Y1038677D02*
X349367Y1038677D01*
X349367Y1043643D01*
X361833Y1043643D01*
X361833Y1041107D02*
X349367Y1041107D01*
X349367Y1043537D02*
X361833Y1043537D01*
D20*
X139700Y1216660D03*
X165100Y1216660D03*
X190500Y1216660D03*
X215900Y1216660D03*
X241300Y1216660D03*
X266700Y1216660D03*
X292100Y835660D03*
X266700Y835660D03*
X241300Y835660D03*
X215900Y835660D03*
X190500Y835660D03*
X165100Y835660D03*
X139700Y835660D03*
X114300Y835660D03*
D14*
X168605Y1185595D02*
X178595Y1185595D01*
X178595Y1176605D01*
X168605Y1176605D01*
X168605Y1185595D01*
X168605Y1179013D02*
X178595Y1179013D01*
X178595Y1181421D02*
X168605Y1181421D01*
X168605Y1183829D02*
X178595Y1183829D01*
X161595Y1185595D02*
X151605Y1185595D01*
X161595Y1185595D02*
X161595Y1176605D01*
X151605Y1176605D01*
X151605Y1185595D01*
X151605Y1179013D02*
X161595Y1179013D01*
X161595Y1181421D02*
X151605Y1181421D01*
X151605Y1183829D02*
X161595Y1183829D01*
X40165Y1086535D02*
X30175Y1086535D01*
X40165Y1086535D02*
X40165Y1077545D01*
X30175Y1077545D01*
X30175Y1086535D01*
X30175Y1079953D02*
X40165Y1079953D01*
X40165Y1082361D02*
X30175Y1082361D01*
X30175Y1084769D02*
X40165Y1084769D01*
X23165Y1086535D02*
X13175Y1086535D01*
X23165Y1086535D02*
X23165Y1077545D01*
X13175Y1077545D01*
X13175Y1086535D01*
X13175Y1079953D02*
X23165Y1079953D01*
X23165Y1082361D02*
X13175Y1082361D01*
X13175Y1084769D02*
X23165Y1084769D01*
D10*
X417830Y1223010D03*
X811530Y829310D03*
D11*
X792480Y848360D03*
X436880Y1203960D03*
X792480Y1203960D03*
X436880Y848360D03*
D12*
X451200Y1156420D03*
D13*
X506880Y1207212D02*
X506880Y1212532D01*
X514200Y1212532D01*
X514200Y1207212D01*
X506880Y1207212D01*
X506880Y1209591D02*
X514200Y1209591D01*
X514200Y1211970D02*
X506880Y1211970D01*
X506880Y1189532D02*
X506880Y1184212D01*
X506880Y1189532D02*
X514200Y1189532D01*
X514200Y1184212D01*
X506880Y1184212D01*
X506880Y1186591D02*
X514200Y1186591D01*
X514200Y1188970D02*
X506880Y1188970D01*
D14*
X492175Y1187925D02*
X492175Y1197915D01*
X492175Y1187925D02*
X483185Y1187925D01*
X483185Y1197915D01*
X492175Y1197915D01*
X492175Y1190333D02*
X483185Y1190333D01*
X483185Y1192741D02*
X492175Y1192741D01*
X492175Y1195149D02*
X483185Y1195149D01*
X483185Y1197557D02*
X492175Y1197557D01*
X492175Y1204925D02*
X492175Y1214915D01*
X492175Y1204925D02*
X483185Y1204925D01*
X483185Y1214915D01*
X492175Y1214915D01*
X492175Y1207333D02*
X483185Y1207333D01*
X483185Y1209741D02*
X492175Y1209741D01*
X492175Y1212149D02*
X483185Y1212149D01*
X483185Y1214557D02*
X492175Y1214557D01*
X737565Y1200835D02*
X747555Y1200835D01*
X747555Y1191845D01*
X737565Y1191845D01*
X737565Y1200835D01*
X737565Y1194253D02*
X747555Y1194253D01*
X747555Y1196661D02*
X737565Y1196661D01*
X737565Y1199069D02*
X747555Y1199069D01*
X730555Y1200835D02*
X720565Y1200835D01*
X730555Y1200835D02*
X730555Y1191845D01*
X720565Y1191845D01*
X720565Y1200835D01*
X720565Y1194253D02*
X730555Y1194253D01*
X730555Y1196661D02*
X720565Y1196661D01*
X720565Y1199069D02*
X730555Y1199069D01*
X737565Y1176705D02*
X747555Y1176705D01*
X747555Y1167715D01*
X737565Y1167715D01*
X737565Y1176705D01*
X737565Y1170123D02*
X747555Y1170123D01*
X747555Y1172531D02*
X737565Y1172531D01*
X737565Y1174939D02*
X747555Y1174939D01*
X730555Y1176705D02*
X720565Y1176705D01*
X730555Y1176705D02*
X730555Y1167715D01*
X720565Y1167715D01*
X720565Y1176705D01*
X720565Y1170123D02*
X730555Y1170123D01*
X730555Y1172531D02*
X720565Y1172531D01*
X720565Y1174939D02*
X730555Y1174939D01*
X799515Y946455D02*
X799515Y936465D01*
X790525Y936465D01*
X790525Y946455D01*
X799515Y946455D01*
X799515Y938873D02*
X790525Y938873D01*
X790525Y941281D02*
X799515Y941281D01*
X799515Y943689D02*
X790525Y943689D01*
X790525Y946097D02*
X799515Y946097D01*
X799515Y953465D02*
X799515Y963455D01*
X799515Y953465D02*
X790525Y953465D01*
X790525Y963455D01*
X799515Y963455D01*
X799515Y955873D02*
X790525Y955873D01*
X790525Y958281D02*
X799515Y958281D01*
X799515Y960689D02*
X790525Y960689D01*
X790525Y963097D02*
X799515Y963097D01*
X799515Y900735D02*
X799515Y890745D01*
X790525Y890745D01*
X790525Y900735D01*
X799515Y900735D01*
X799515Y893153D02*
X790525Y893153D01*
X790525Y895561D02*
X799515Y895561D01*
X799515Y897969D02*
X790525Y897969D01*
X790525Y900377D02*
X799515Y900377D01*
X799515Y907745D02*
X799515Y917735D01*
X799515Y907745D02*
X790525Y907745D01*
X790525Y917735D01*
X799515Y917735D01*
X799515Y910153D02*
X790525Y910153D01*
X790525Y912561D02*
X799515Y912561D01*
X799515Y914969D02*
X790525Y914969D01*
X790525Y917377D02*
X799515Y917377D01*
X765125Y917735D02*
X765125Y907745D01*
X765125Y917735D02*
X774115Y917735D01*
X774115Y907745D01*
X765125Y907745D01*
X765125Y910153D02*
X774115Y910153D01*
X774115Y912561D02*
X765125Y912561D01*
X765125Y914969D02*
X774115Y914969D01*
X774115Y917377D02*
X765125Y917377D01*
X765125Y900735D02*
X765125Y890745D01*
X765125Y900735D02*
X774115Y900735D01*
X774115Y890745D01*
X765125Y890745D01*
X765125Y893153D02*
X774115Y893153D01*
X774115Y895561D02*
X765125Y895561D01*
X765125Y897969D02*
X774115Y897969D01*
X774115Y900377D02*
X765125Y900377D01*
X765125Y953465D02*
X765125Y963455D01*
X774115Y963455D01*
X774115Y953465D01*
X765125Y953465D01*
X765125Y955873D02*
X774115Y955873D01*
X774115Y958281D02*
X765125Y958281D01*
X765125Y960689D02*
X774115Y960689D01*
X774115Y963097D02*
X765125Y963097D01*
X765125Y946455D02*
X765125Y936465D01*
X765125Y946455D02*
X774115Y946455D01*
X774115Y936465D01*
X765125Y936465D01*
X765125Y938873D02*
X774115Y938873D01*
X774115Y941281D02*
X765125Y941281D01*
X765125Y943689D02*
X774115Y943689D01*
X774115Y946097D02*
X765125Y946097D01*
D15*
X543430Y1064160D03*
X543430Y1045160D03*
X543430Y1026160D03*
X543430Y1007160D03*
X543430Y988160D03*
X685930Y988160D03*
X685930Y1007160D03*
X685930Y1026160D03*
X685930Y1045160D03*
X685930Y1064160D03*
D16*
X576680Y1097410D03*
X595680Y1097410D03*
X614680Y1097410D03*
X633680Y1097410D03*
X652680Y1097410D03*
X576680Y954910D03*
X595680Y954910D03*
X614680Y954910D03*
X633680Y954910D03*
X652680Y954910D03*
D17*
X436705Y900135D02*
X436705Y893105D01*
X429675Y893105D01*
X429675Y900135D01*
X436705Y900135D01*
X436705Y897374D02*
X429675Y897374D01*
X454245Y900135D02*
X454245Y893105D01*
X447215Y893105D01*
X447215Y900135D01*
X454245Y900135D01*
X454245Y897374D02*
X447215Y897374D01*
D14*
X445465Y946835D02*
X455455Y946835D01*
X455455Y937845D01*
X445465Y937845D01*
X445465Y946835D01*
X445465Y940253D02*
X455455Y940253D01*
X455455Y942661D02*
X445465Y942661D01*
X445465Y945069D02*
X455455Y945069D01*
X438455Y946835D02*
X428465Y946835D01*
X438455Y946835D02*
X438455Y937845D01*
X428465Y937845D01*
X428465Y946835D01*
X428465Y940253D02*
X438455Y940253D01*
X438455Y942661D02*
X428465Y942661D01*
X428465Y945069D02*
X438455Y945069D01*
D17*
X436705Y959145D02*
X436705Y966175D01*
X436705Y959145D02*
X429675Y959145D01*
X429675Y966175D01*
X436705Y966175D01*
X436705Y963414D02*
X429675Y963414D01*
X454245Y966175D02*
X454245Y959145D01*
X447215Y959145D01*
X447215Y966175D01*
X454245Y966175D01*
X454245Y963414D02*
X447215Y963414D01*
D14*
X445465Y921435D02*
X455455Y921435D01*
X455455Y912445D01*
X445465Y912445D01*
X445465Y921435D01*
X445465Y914853D02*
X455455Y914853D01*
X455455Y917261D02*
X445465Y917261D01*
X445465Y919669D02*
X455455Y919669D01*
X438455Y921435D02*
X428465Y921435D01*
X438455Y921435D02*
X438455Y912445D01*
X428465Y912445D01*
X428465Y921435D01*
X428465Y914853D02*
X438455Y914853D01*
X438455Y917261D02*
X428465Y917261D01*
X428465Y919669D02*
X438455Y919669D01*
D18*
X415985Y1048615D02*
X415985Y1059705D01*
X435075Y1059705D01*
X435075Y1048615D01*
X415985Y1048615D01*
X415985Y1050927D02*
X435075Y1050927D01*
X435075Y1053239D02*
X415985Y1053239D01*
X415985Y1055551D02*
X435075Y1055551D01*
X435075Y1057863D02*
X415985Y1057863D01*
X415985Y1003705D02*
X415985Y992615D01*
X415985Y1003705D02*
X435075Y1003705D01*
X435075Y992615D01*
X415985Y992615D01*
X415985Y994927D02*
X435075Y994927D01*
X435075Y997239D02*
X415985Y997239D01*
X415985Y999551D02*
X435075Y999551D01*
X435075Y1001863D02*
X415985Y1001863D01*
D19*
X456047Y1038677D02*
X456047Y1043643D01*
X468513Y1043643D01*
X468513Y1038677D01*
X456047Y1038677D01*
X456047Y1041107D02*
X468513Y1041107D01*
X468513Y1043537D02*
X456047Y1043537D01*
X456047Y1033643D02*
X456047Y1028677D01*
X456047Y1033643D02*
X468513Y1033643D01*
X468513Y1028677D01*
X456047Y1028677D01*
X456047Y1031107D02*
X468513Y1031107D01*
X468513Y1033537D02*
X456047Y1033537D01*
X456047Y1023643D02*
X456047Y1018677D01*
X456047Y1023643D02*
X468513Y1023643D01*
X468513Y1018677D01*
X456047Y1018677D01*
X456047Y1021107D02*
X468513Y1021107D01*
X468513Y1023537D02*
X456047Y1023537D01*
X456047Y1013643D02*
X456047Y1008677D01*
X456047Y1013643D02*
X468513Y1013643D01*
X468513Y1008677D01*
X456047Y1008677D01*
X456047Y1011107D02*
X468513Y1011107D01*
X468513Y1013537D02*
X456047Y1013537D01*
D18*
X813375Y1003705D02*
X813375Y992615D01*
X794285Y992615D01*
X794285Y1003705D01*
X813375Y1003705D01*
X813375Y994927D02*
X794285Y994927D01*
X794285Y997239D02*
X813375Y997239D01*
X813375Y999551D02*
X794285Y999551D01*
X794285Y1001863D02*
X813375Y1001863D01*
X813375Y1048615D02*
X813375Y1059705D01*
X813375Y1048615D02*
X794285Y1048615D01*
X794285Y1059705D01*
X813375Y1059705D01*
X813375Y1050927D02*
X794285Y1050927D01*
X794285Y1053239D02*
X813375Y1053239D01*
X813375Y1055551D02*
X794285Y1055551D01*
X794285Y1057863D02*
X813375Y1057863D01*
D19*
X773313Y1013643D02*
X773313Y1008677D01*
X760847Y1008677D01*
X760847Y1013643D01*
X773313Y1013643D01*
X773313Y1011107D02*
X760847Y1011107D01*
X760847Y1013537D02*
X773313Y1013537D01*
X773313Y1018677D02*
X773313Y1023643D01*
X773313Y1018677D02*
X760847Y1018677D01*
X760847Y1023643D01*
X773313Y1023643D01*
X773313Y1021107D02*
X760847Y1021107D01*
X760847Y1023537D02*
X773313Y1023537D01*
X773313Y1028677D02*
X773313Y1033643D01*
X773313Y1028677D02*
X760847Y1028677D01*
X760847Y1033643D01*
X773313Y1033643D01*
X773313Y1031107D02*
X760847Y1031107D01*
X760847Y1033537D02*
X773313Y1033537D01*
X773313Y1038677D02*
X773313Y1043643D01*
X773313Y1038677D02*
X760847Y1038677D01*
X760847Y1043643D01*
X773313Y1043643D01*
X773313Y1041107D02*
X760847Y1041107D01*
X760847Y1043537D02*
X773313Y1043537D01*
D20*
X551180Y1216660D03*
X576580Y1216660D03*
X601980Y1216660D03*
X627380Y1216660D03*
X652780Y1216660D03*
X678180Y1216660D03*
X703580Y835660D03*
X678180Y835660D03*
X652780Y835660D03*
X627380Y835660D03*
X601980Y835660D03*
X576580Y835660D03*
X551180Y835660D03*
X525780Y835660D03*
D14*
X580085Y1185595D02*
X590075Y1185595D01*
X590075Y1176605D01*
X580085Y1176605D01*
X580085Y1185595D01*
X580085Y1179013D02*
X590075Y1179013D01*
X590075Y1181421D02*
X580085Y1181421D01*
X580085Y1183829D02*
X590075Y1183829D01*
X573075Y1185595D02*
X563085Y1185595D01*
X573075Y1185595D02*
X573075Y1176605D01*
X563085Y1176605D01*
X563085Y1185595D01*
X563085Y1179013D02*
X573075Y1179013D01*
X573075Y1181421D02*
X563085Y1181421D01*
X563085Y1183829D02*
X573075Y1183829D01*
X451645Y1086535D02*
X441655Y1086535D01*
X451645Y1086535D02*
X451645Y1077545D01*
X441655Y1077545D01*
X441655Y1086535D01*
X441655Y1079953D02*
X451645Y1079953D01*
X451645Y1082361D02*
X441655Y1082361D01*
X441655Y1084769D02*
X451645Y1084769D01*
X434645Y1086535D02*
X424655Y1086535D01*
X434645Y1086535D02*
X434645Y1077545D01*
X424655Y1077545D01*
X424655Y1086535D01*
X424655Y1079953D02*
X434645Y1079953D01*
X434645Y1082361D02*
X424655Y1082361D01*
X424655Y1084769D02*
X434645Y1084769D01*
D10*
X829310Y1223010D03*
X1223010Y829310D03*
D11*
X1203960Y848360D03*
X848360Y1203960D03*
X1203960Y1203960D03*
X848360Y848360D03*
D12*
X862680Y1156420D03*
D13*
X918360Y1207212D02*
X918360Y1212532D01*
X925680Y1212532D01*
X925680Y1207212D01*
X918360Y1207212D01*
X918360Y1209591D02*
X925680Y1209591D01*
X925680Y1211970D02*
X918360Y1211970D01*
X918360Y1189532D02*
X918360Y1184212D01*
X918360Y1189532D02*
X925680Y1189532D01*
X925680Y1184212D01*
X918360Y1184212D01*
X918360Y1186591D02*
X925680Y1186591D01*
X925680Y1188970D02*
X918360Y1188970D01*
D14*
X903655Y1187925D02*
X903655Y1197915D01*
X903655Y1187925D02*
X894665Y1187925D01*
X894665Y1197915D01*
X903655Y1197915D01*
X903655Y1190333D02*
X894665Y1190333D01*
X894665Y1192741D02*
X903655Y1192741D01*
X903655Y1195149D02*
X894665Y1195149D01*
X894665Y1197557D02*
X903655Y1197557D01*
X903655Y1204925D02*
X903655Y1214915D01*
X903655Y1204925D02*
X894665Y1204925D01*
X894665Y1214915D01*
X903655Y1214915D01*
X903655Y1207333D02*
X894665Y1207333D01*
X894665Y1209741D02*
X903655Y1209741D01*
X903655Y1212149D02*
X894665Y1212149D01*
X894665Y1214557D02*
X903655Y1214557D01*
X1149045Y1200835D02*
X1159035Y1200835D01*
X1159035Y1191845D01*
X1149045Y1191845D01*
X1149045Y1200835D01*
X1149045Y1194253D02*
X1159035Y1194253D01*
X1159035Y1196661D02*
X1149045Y1196661D01*
X1149045Y1199069D02*
X1159035Y1199069D01*
X1142035Y1200835D02*
X1132045Y1200835D01*
X1142035Y1200835D02*
X1142035Y1191845D01*
X1132045Y1191845D01*
X1132045Y1200835D01*
X1132045Y1194253D02*
X1142035Y1194253D01*
X1142035Y1196661D02*
X1132045Y1196661D01*
X1132045Y1199069D02*
X1142035Y1199069D01*
X1149045Y1176705D02*
X1159035Y1176705D01*
X1159035Y1167715D01*
X1149045Y1167715D01*
X1149045Y1176705D01*
X1149045Y1170123D02*
X1159035Y1170123D01*
X1159035Y1172531D02*
X1149045Y1172531D01*
X1149045Y1174939D02*
X1159035Y1174939D01*
X1142035Y1176705D02*
X1132045Y1176705D01*
X1142035Y1176705D02*
X1142035Y1167715D01*
X1132045Y1167715D01*
X1132045Y1176705D01*
X1132045Y1170123D02*
X1142035Y1170123D01*
X1142035Y1172531D02*
X1132045Y1172531D01*
X1132045Y1174939D02*
X1142035Y1174939D01*
X1210995Y946455D02*
X1210995Y936465D01*
X1202005Y936465D01*
X1202005Y946455D01*
X1210995Y946455D01*
X1210995Y938873D02*
X1202005Y938873D01*
X1202005Y941281D02*
X1210995Y941281D01*
X1210995Y943689D02*
X1202005Y943689D01*
X1202005Y946097D02*
X1210995Y946097D01*
X1210995Y953465D02*
X1210995Y963455D01*
X1210995Y953465D02*
X1202005Y953465D01*
X1202005Y963455D01*
X1210995Y963455D01*
X1210995Y955873D02*
X1202005Y955873D01*
X1202005Y958281D02*
X1210995Y958281D01*
X1210995Y960689D02*
X1202005Y960689D01*
X1202005Y963097D02*
X1210995Y963097D01*
X1210995Y900735D02*
X1210995Y890745D01*
X1202005Y890745D01*
X1202005Y900735D01*
X1210995Y900735D01*
X1210995Y893153D02*
X1202005Y893153D01*
X1202005Y895561D02*
X1210995Y895561D01*
X1210995Y897969D02*
X1202005Y897969D01*
X1202005Y900377D02*
X1210995Y900377D01*
X1210995Y907745D02*
X1210995Y917735D01*
X1210995Y907745D02*
X1202005Y907745D01*
X1202005Y917735D01*
X1210995Y917735D01*
X1210995Y910153D02*
X1202005Y910153D01*
X1202005Y912561D02*
X1210995Y912561D01*
X1210995Y914969D02*
X1202005Y914969D01*
X1202005Y917377D02*
X1210995Y917377D01*
X1176605Y917735D02*
X1176605Y907745D01*
X1176605Y917735D02*
X1185595Y917735D01*
X1185595Y907745D01*
X1176605Y907745D01*
X1176605Y910153D02*
X1185595Y910153D01*
X1185595Y912561D02*
X1176605Y912561D01*
X1176605Y914969D02*
X1185595Y914969D01*
X1185595Y917377D02*
X1176605Y917377D01*
X1176605Y900735D02*
X1176605Y890745D01*
X1176605Y900735D02*
X1185595Y900735D01*
X1185595Y890745D01*
X1176605Y890745D01*
X1176605Y893153D02*
X1185595Y893153D01*
X1185595Y895561D02*
X1176605Y895561D01*
X1176605Y897969D02*
X1185595Y897969D01*
X1185595Y900377D02*
X1176605Y900377D01*
X1176605Y953465D02*
X1176605Y963455D01*
X1185595Y963455D01*
X1185595Y953465D01*
X1176605Y953465D01*
X1176605Y955873D02*
X1185595Y955873D01*
X1185595Y958281D02*
X1176605Y958281D01*
X1176605Y960689D02*
X1185595Y960689D01*
X1185595Y963097D02*
X1176605Y963097D01*
X1176605Y946455D02*
X1176605Y936465D01*
X1176605Y946455D02*
X1185595Y946455D01*
X1185595Y936465D01*
X1176605Y936465D01*
X1176605Y938873D02*
X1185595Y938873D01*
X1185595Y941281D02*
X1176605Y941281D01*
X1176605Y943689D02*
X1185595Y943689D01*
X1185595Y946097D02*
X1176605Y946097D01*
D15*
X954910Y1064160D03*
X954910Y1045160D03*
X954910Y1026160D03*
X954910Y1007160D03*
X954910Y988160D03*
X1097410Y988160D03*
X1097410Y1007160D03*
X1097410Y1026160D03*
X1097410Y1045160D03*
X1097410Y1064160D03*
D16*
X988160Y1097410D03*
X1007160Y1097410D03*
X1026160Y1097410D03*
X1045160Y1097410D03*
X1064160Y1097410D03*
X988160Y954910D03*
X1007160Y954910D03*
X1026160Y954910D03*
X1045160Y954910D03*
X1064160Y954910D03*
D17*
X848185Y900135D02*
X848185Y893105D01*
X841155Y893105D01*
X841155Y900135D01*
X848185Y900135D01*
X848185Y897374D02*
X841155Y897374D01*
X865725Y900135D02*
X865725Y893105D01*
X858695Y893105D01*
X858695Y900135D01*
X865725Y900135D01*
X865725Y897374D02*
X858695Y897374D01*
D14*
X856945Y946835D02*
X866935Y946835D01*
X866935Y937845D01*
X856945Y937845D01*
X856945Y946835D01*
X856945Y940253D02*
X866935Y940253D01*
X866935Y942661D02*
X856945Y942661D01*
X856945Y945069D02*
X866935Y945069D01*
X849935Y946835D02*
X839945Y946835D01*
X849935Y946835D02*
X849935Y937845D01*
X839945Y937845D01*
X839945Y946835D01*
X839945Y940253D02*
X849935Y940253D01*
X849935Y942661D02*
X839945Y942661D01*
X839945Y945069D02*
X849935Y945069D01*
D17*
X848185Y959145D02*
X848185Y966175D01*
X848185Y959145D02*
X841155Y959145D01*
X841155Y966175D01*
X848185Y966175D01*
X848185Y963414D02*
X841155Y963414D01*
X865725Y966175D02*
X865725Y959145D01*
X858695Y959145D01*
X858695Y966175D01*
X865725Y966175D01*
X865725Y963414D02*
X858695Y963414D01*
D14*
X856945Y921435D02*
X866935Y921435D01*
X866935Y912445D01*
X856945Y912445D01*
X856945Y921435D01*
X856945Y914853D02*
X866935Y914853D01*
X866935Y917261D02*
X856945Y917261D01*
X856945Y919669D02*
X866935Y919669D01*
X849935Y921435D02*
X839945Y921435D01*
X849935Y921435D02*
X849935Y912445D01*
X839945Y912445D01*
X839945Y921435D01*
X839945Y914853D02*
X849935Y914853D01*
X849935Y917261D02*
X839945Y917261D01*
X839945Y919669D02*
X849935Y919669D01*
D18*
X827465Y1048615D02*
X827465Y1059705D01*
X846555Y1059705D01*
X846555Y1048615D01*
X827465Y1048615D01*
X827465Y1050927D02*
X846555Y1050927D01*
X846555Y1053239D02*
X827465Y1053239D01*
X827465Y1055551D02*
X846555Y1055551D01*
X846555Y1057863D02*
X827465Y1057863D01*
X827465Y1003705D02*
X827465Y992615D01*
X827465Y1003705D02*
X846555Y1003705D01*
X846555Y992615D01*
X827465Y992615D01*
X827465Y994927D02*
X846555Y994927D01*
X846555Y997239D02*
X827465Y997239D01*
X827465Y999551D02*
X846555Y999551D01*
X846555Y1001863D02*
X827465Y1001863D01*
D19*
X867527Y1038677D02*
X867527Y1043643D01*
X879993Y1043643D01*
X879993Y1038677D01*
X867527Y1038677D01*
X867527Y1041107D02*
X879993Y1041107D01*
X879993Y1043537D02*
X867527Y1043537D01*
X867527Y1033643D02*
X867527Y1028677D01*
X867527Y1033643D02*
X879993Y1033643D01*
X879993Y1028677D01*
X867527Y1028677D01*
X867527Y1031107D02*
X879993Y1031107D01*
X879993Y1033537D02*
X867527Y1033537D01*
X867527Y1023643D02*
X867527Y1018677D01*
X867527Y1023643D02*
X879993Y1023643D01*
X879993Y1018677D01*
X867527Y1018677D01*
X867527Y1021107D02*
X879993Y1021107D01*
X879993Y1023537D02*
X867527Y1023537D01*
X867527Y1013643D02*
X867527Y1008677D01*
X867527Y1013643D02*
X879993Y1013643D01*
X879993Y1008677D01*
X867527Y1008677D01*
X867527Y1011107D02*
X879993Y1011107D01*
X879993Y1013537D02*
X867527Y1013537D01*
D18*
X1224855Y1003705D02*
X1224855Y992615D01*
X1205765Y992615D01*
X1205765Y1003705D01*
X1224855Y1003705D01*
X1224855Y994927D02*
X1205765Y994927D01*
X1205765Y997239D02*
X1224855Y997239D01*
X1224855Y999551D02*
X1205765Y999551D01*
X1205765Y1001863D02*
X1224855Y1001863D01*
X1224855Y1048615D02*
X1224855Y1059705D01*
X1224855Y1048615D02*
X1205765Y1048615D01*
X1205765Y1059705D01*
X1224855Y1059705D01*
X1224855Y1050927D02*
X1205765Y1050927D01*
X1205765Y1053239D02*
X1224855Y1053239D01*
X1224855Y1055551D02*
X1205765Y1055551D01*
X1205765Y1057863D02*
X1224855Y1057863D01*
D19*
X1184793Y1013643D02*
X1184793Y1008677D01*
X1172327Y1008677D01*
X1172327Y1013643D01*
X1184793Y1013643D01*
X1184793Y1011107D02*
X1172327Y1011107D01*
X1172327Y1013537D02*
X1184793Y1013537D01*
X1184793Y1018677D02*
X1184793Y1023643D01*
X1184793Y1018677D02*
X1172327Y1018677D01*
X1172327Y1023643D01*
X1184793Y1023643D01*
X1184793Y1021107D02*
X1172327Y1021107D01*
X1172327Y1023537D02*
X1184793Y1023537D01*
X1184793Y1028677D02*
X1184793Y1033643D01*
X1184793Y1028677D02*
X1172327Y1028677D01*
X1172327Y1033643D01*
X1184793Y1033643D01*
X1184793Y1031107D02*
X1172327Y1031107D01*
X1172327Y1033537D02*
X1184793Y1033537D01*
X1184793Y1038677D02*
X1184793Y1043643D01*
X1184793Y1038677D02*
X1172327Y1038677D01*
X1172327Y1043643D01*
X1184793Y1043643D01*
X1184793Y1041107D02*
X1172327Y1041107D01*
X1172327Y1043537D02*
X1184793Y1043537D01*
D20*
X962660Y1216660D03*
X988060Y1216660D03*
X1013460Y1216660D03*
X1038860Y1216660D03*
X1064260Y1216660D03*
X1089660Y1216660D03*
X1115060Y835660D03*
X1089660Y835660D03*
X1064260Y835660D03*
X1038860Y835660D03*
X1013460Y835660D03*
X988060Y835660D03*
X962660Y835660D03*
X937260Y835660D03*
D14*
X991565Y1185595D02*
X1001555Y1185595D01*
X1001555Y1176605D01*
X991565Y1176605D01*
X991565Y1185595D01*
X991565Y1179013D02*
X1001555Y1179013D01*
X1001555Y1181421D02*
X991565Y1181421D01*
X991565Y1183829D02*
X1001555Y1183829D01*
X984555Y1185595D02*
X974565Y1185595D01*
X984555Y1185595D02*
X984555Y1176605D01*
X974565Y1176605D01*
X974565Y1185595D01*
X974565Y1179013D02*
X984555Y1179013D01*
X984555Y1181421D02*
X974565Y1181421D01*
X974565Y1183829D02*
X984555Y1183829D01*
X863125Y1086535D02*
X853135Y1086535D01*
X863125Y1086535D02*
X863125Y1077545D01*
X853135Y1077545D01*
X853135Y1086535D01*
X853135Y1079953D02*
X863125Y1079953D01*
X863125Y1082361D02*
X853135Y1082361D01*
X853135Y1084769D02*
X863125Y1084769D01*
X846125Y1086535D02*
X836135Y1086535D01*
X846125Y1086535D02*
X846125Y1077545D01*
X836135Y1077545D01*
X836135Y1086535D01*
X836135Y1079953D02*
X846125Y1079953D01*
X846125Y1082361D02*
X836135Y1082361D01*
X836135Y1084769D02*
X846125Y1084769D01*
D10*
X1240790Y1223010D03*
X1634490Y829310D03*
D11*
X1615440Y848360D03*
X1259840Y1203960D03*
X1615440Y1203960D03*
X1259840Y848360D03*
D12*
X1274160Y1156420D03*
D13*
X1329840Y1207212D02*
X1329840Y1212532D01*
X1337160Y1212532D01*
X1337160Y1207212D01*
X1329840Y1207212D01*
X1329840Y1209591D02*
X1337160Y1209591D01*
X1337160Y1211970D02*
X1329840Y1211970D01*
X1329840Y1189532D02*
X1329840Y1184212D01*
X1329840Y1189532D02*
X1337160Y1189532D01*
X1337160Y1184212D01*
X1329840Y1184212D01*
X1329840Y1186591D02*
X1337160Y1186591D01*
X1337160Y1188970D02*
X1329840Y1188970D01*
D14*
X1315135Y1187925D02*
X1315135Y1197915D01*
X1315135Y1187925D02*
X1306145Y1187925D01*
X1306145Y1197915D01*
X1315135Y1197915D01*
X1315135Y1190333D02*
X1306145Y1190333D01*
X1306145Y1192741D02*
X1315135Y1192741D01*
X1315135Y1195149D02*
X1306145Y1195149D01*
X1306145Y1197557D02*
X1315135Y1197557D01*
X1315135Y1204925D02*
X1315135Y1214915D01*
X1315135Y1204925D02*
X1306145Y1204925D01*
X1306145Y1214915D01*
X1315135Y1214915D01*
X1315135Y1207333D02*
X1306145Y1207333D01*
X1306145Y1209741D02*
X1315135Y1209741D01*
X1315135Y1212149D02*
X1306145Y1212149D01*
X1306145Y1214557D02*
X1315135Y1214557D01*
X1560525Y1200835D02*
X1570515Y1200835D01*
X1570515Y1191845D01*
X1560525Y1191845D01*
X1560525Y1200835D01*
X1560525Y1194253D02*
X1570515Y1194253D01*
X1570515Y1196661D02*
X1560525Y1196661D01*
X1560525Y1199069D02*
X1570515Y1199069D01*
X1553515Y1200835D02*
X1543525Y1200835D01*
X1553515Y1200835D02*
X1553515Y1191845D01*
X1543525Y1191845D01*
X1543525Y1200835D01*
X1543525Y1194253D02*
X1553515Y1194253D01*
X1553515Y1196661D02*
X1543525Y1196661D01*
X1543525Y1199069D02*
X1553515Y1199069D01*
X1560525Y1176705D02*
X1570515Y1176705D01*
X1570515Y1167715D01*
X1560525Y1167715D01*
X1560525Y1176705D01*
X1560525Y1170123D02*
X1570515Y1170123D01*
X1570515Y1172531D02*
X1560525Y1172531D01*
X1560525Y1174939D02*
X1570515Y1174939D01*
X1553515Y1176705D02*
X1543525Y1176705D01*
X1553515Y1176705D02*
X1553515Y1167715D01*
X1543525Y1167715D01*
X1543525Y1176705D01*
X1543525Y1170123D02*
X1553515Y1170123D01*
X1553515Y1172531D02*
X1543525Y1172531D01*
X1543525Y1174939D02*
X1553515Y1174939D01*
X1622475Y946455D02*
X1622475Y936465D01*
X1613485Y936465D01*
X1613485Y946455D01*
X1622475Y946455D01*
X1622475Y938873D02*
X1613485Y938873D01*
X1613485Y941281D02*
X1622475Y941281D01*
X1622475Y943689D02*
X1613485Y943689D01*
X1613485Y946097D02*
X1622475Y946097D01*
X1622475Y953465D02*
X1622475Y963455D01*
X1622475Y953465D02*
X1613485Y953465D01*
X1613485Y963455D01*
X1622475Y963455D01*
X1622475Y955873D02*
X1613485Y955873D01*
X1613485Y958281D02*
X1622475Y958281D01*
X1622475Y960689D02*
X1613485Y960689D01*
X1613485Y963097D02*
X1622475Y963097D01*
X1622475Y900735D02*
X1622475Y890745D01*
X1613485Y890745D01*
X1613485Y900735D01*
X1622475Y900735D01*
X1622475Y893153D02*
X1613485Y893153D01*
X1613485Y895561D02*
X1622475Y895561D01*
X1622475Y897969D02*
X1613485Y897969D01*
X1613485Y900377D02*
X1622475Y900377D01*
X1622475Y907745D02*
X1622475Y917735D01*
X1622475Y907745D02*
X1613485Y907745D01*
X1613485Y917735D01*
X1622475Y917735D01*
X1622475Y910153D02*
X1613485Y910153D01*
X1613485Y912561D02*
X1622475Y912561D01*
X1622475Y914969D02*
X1613485Y914969D01*
X1613485Y917377D02*
X1622475Y917377D01*
X1588085Y917735D02*
X1588085Y907745D01*
X1588085Y917735D02*
X1597075Y917735D01*
X1597075Y907745D01*
X1588085Y907745D01*
X1588085Y910153D02*
X1597075Y910153D01*
X1597075Y912561D02*
X1588085Y912561D01*
X1588085Y914969D02*
X1597075Y914969D01*
X1597075Y917377D02*
X1588085Y917377D01*
X1588085Y900735D02*
X1588085Y890745D01*
X1588085Y900735D02*
X1597075Y900735D01*
X1597075Y890745D01*
X1588085Y890745D01*
X1588085Y893153D02*
X1597075Y893153D01*
X1597075Y895561D02*
X1588085Y895561D01*
X1588085Y897969D02*
X1597075Y897969D01*
X1597075Y900377D02*
X1588085Y900377D01*
X1588085Y953465D02*
X1588085Y963455D01*
X1597075Y963455D01*
X1597075Y953465D01*
X1588085Y953465D01*
X1588085Y955873D02*
X1597075Y955873D01*
X1597075Y958281D02*
X1588085Y958281D01*
X1588085Y960689D02*
X1597075Y960689D01*
X1597075Y963097D02*
X1588085Y963097D01*
X1588085Y946455D02*
X1588085Y936465D01*
X1588085Y946455D02*
X1597075Y946455D01*
X1597075Y936465D01*
X1588085Y936465D01*
X1588085Y938873D02*
X1597075Y938873D01*
X1597075Y941281D02*
X1588085Y941281D01*
X1588085Y943689D02*
X1597075Y943689D01*
X1597075Y946097D02*
X1588085Y946097D01*
D15*
X1366390Y1064160D03*
X1366390Y1045160D03*
X1366390Y1026160D03*
X1366390Y1007160D03*
X1366390Y988160D03*
X1508890Y988160D03*
X1508890Y1007160D03*
X1508890Y1026160D03*
X1508890Y1045160D03*
X1508890Y1064160D03*
D16*
X1399640Y1097410D03*
X1418640Y1097410D03*
X1437640Y1097410D03*
X1456640Y1097410D03*
X1475640Y1097410D03*
X1399640Y954910D03*
X1418640Y954910D03*
X1437640Y954910D03*
X1456640Y954910D03*
X1475640Y954910D03*
D17*
X1259665Y900135D02*
X1259665Y893105D01*
X1252635Y893105D01*
X1252635Y900135D01*
X1259665Y900135D01*
X1259665Y897374D02*
X1252635Y897374D01*
X1277205Y900135D02*
X1277205Y893105D01*
X1270175Y893105D01*
X1270175Y900135D01*
X1277205Y900135D01*
X1277205Y897374D02*
X1270175Y897374D01*
D14*
X1268425Y946835D02*
X1278415Y946835D01*
X1278415Y937845D01*
X1268425Y937845D01*
X1268425Y946835D01*
X1268425Y940253D02*
X1278415Y940253D01*
X1278415Y942661D02*
X1268425Y942661D01*
X1268425Y945069D02*
X1278415Y945069D01*
X1261415Y946835D02*
X1251425Y946835D01*
X1261415Y946835D02*
X1261415Y937845D01*
X1251425Y937845D01*
X1251425Y946835D01*
X1251425Y940253D02*
X1261415Y940253D01*
X1261415Y942661D02*
X1251425Y942661D01*
X1251425Y945069D02*
X1261415Y945069D01*
D17*
X1259665Y959145D02*
X1259665Y966175D01*
X1259665Y959145D02*
X1252635Y959145D01*
X1252635Y966175D01*
X1259665Y966175D01*
X1259665Y963414D02*
X1252635Y963414D01*
X1277205Y966175D02*
X1277205Y959145D01*
X1270175Y959145D01*
X1270175Y966175D01*
X1277205Y966175D01*
X1277205Y963414D02*
X1270175Y963414D01*
D14*
X1268425Y921435D02*
X1278415Y921435D01*
X1278415Y912445D01*
X1268425Y912445D01*
X1268425Y921435D01*
X1268425Y914853D02*
X1278415Y914853D01*
X1278415Y917261D02*
X1268425Y917261D01*
X1268425Y919669D02*
X1278415Y919669D01*
X1261415Y921435D02*
X1251425Y921435D01*
X1261415Y921435D02*
X1261415Y912445D01*
X1251425Y912445D01*
X1251425Y921435D01*
X1251425Y914853D02*
X1261415Y914853D01*
X1261415Y917261D02*
X1251425Y917261D01*
X1251425Y919669D02*
X1261415Y919669D01*
D18*
X1238945Y1048615D02*
X1238945Y1059705D01*
X1258035Y1059705D01*
X1258035Y1048615D01*
X1238945Y1048615D01*
X1238945Y1050927D02*
X1258035Y1050927D01*
X1258035Y1053239D02*
X1238945Y1053239D01*
X1238945Y1055551D02*
X1258035Y1055551D01*
X1258035Y1057863D02*
X1238945Y1057863D01*
X1238945Y1003705D02*
X1238945Y992615D01*
X1238945Y1003705D02*
X1258035Y1003705D01*
X1258035Y992615D01*
X1238945Y992615D01*
X1238945Y994927D02*
X1258035Y994927D01*
X1258035Y997239D02*
X1238945Y997239D01*
X1238945Y999551D02*
X1258035Y999551D01*
X1258035Y1001863D02*
X1238945Y1001863D01*
D19*
X1279007Y1038677D02*
X1279007Y1043643D01*
X1291473Y1043643D01*
X1291473Y1038677D01*
X1279007Y1038677D01*
X1279007Y1041107D02*
X1291473Y1041107D01*
X1291473Y1043537D02*
X1279007Y1043537D01*
X1279007Y1033643D02*
X1279007Y1028677D01*
X1279007Y1033643D02*
X1291473Y1033643D01*
X1291473Y1028677D01*
X1279007Y1028677D01*
X1279007Y1031107D02*
X1291473Y1031107D01*
X1291473Y1033537D02*
X1279007Y1033537D01*
X1279007Y1023643D02*
X1279007Y1018677D01*
X1279007Y1023643D02*
X1291473Y1023643D01*
X1291473Y1018677D01*
X1279007Y1018677D01*
X1279007Y1021107D02*
X1291473Y1021107D01*
X1291473Y1023537D02*
X1279007Y1023537D01*
X1279007Y1013643D02*
X1279007Y1008677D01*
X1279007Y1013643D02*
X1291473Y1013643D01*
X1291473Y1008677D01*
X1279007Y1008677D01*
X1279007Y1011107D02*
X1291473Y1011107D01*
X1291473Y1013537D02*
X1279007Y1013537D01*
D18*
X1636335Y1003705D02*
X1636335Y992615D01*
X1617245Y992615D01*
X1617245Y1003705D01*
X1636335Y1003705D01*
X1636335Y994927D02*
X1617245Y994927D01*
X1617245Y997239D02*
X1636335Y997239D01*
X1636335Y999551D02*
X1617245Y999551D01*
X1617245Y1001863D02*
X1636335Y1001863D01*
X1636335Y1048615D02*
X1636335Y1059705D01*
X1636335Y1048615D02*
X1617245Y1048615D01*
X1617245Y1059705D01*
X1636335Y1059705D01*
X1636335Y1050927D02*
X1617245Y1050927D01*
X1617245Y1053239D02*
X1636335Y1053239D01*
X1636335Y1055551D02*
X1617245Y1055551D01*
X1617245Y1057863D02*
X1636335Y1057863D01*
D19*
X1596273Y1013643D02*
X1596273Y1008677D01*
X1583807Y1008677D01*
X1583807Y1013643D01*
X1596273Y1013643D01*
X1596273Y1011107D02*
X1583807Y1011107D01*
X1583807Y1013537D02*
X1596273Y1013537D01*
X1596273Y1018677D02*
X1596273Y1023643D01*
X1596273Y1018677D02*
X1583807Y1018677D01*
X1583807Y1023643D01*
X1596273Y1023643D01*
X1596273Y1021107D02*
X1583807Y1021107D01*
X1583807Y1023537D02*
X1596273Y1023537D01*
X1596273Y1028677D02*
X1596273Y1033643D01*
X1596273Y1028677D02*
X1583807Y1028677D01*
X1583807Y1033643D01*
X1596273Y1033643D01*
X1596273Y1031107D02*
X1583807Y1031107D01*
X1583807Y1033537D02*
X1596273Y1033537D01*
X1596273Y1038677D02*
X1596273Y1043643D01*
X1596273Y1038677D02*
X1583807Y1038677D01*
X1583807Y1043643D01*
X1596273Y1043643D01*
X1596273Y1041107D02*
X1583807Y1041107D01*
X1583807Y1043537D02*
X1596273Y1043537D01*
D20*
X1374140Y1216660D03*
X1399540Y1216660D03*
X1424940Y1216660D03*
X1450340Y1216660D03*
X1475740Y1216660D03*
X1501140Y1216660D03*
X1526540Y835660D03*
X1501140Y835660D03*
X1475740Y835660D03*
X1450340Y835660D03*
X1424940Y835660D03*
X1399540Y835660D03*
X1374140Y835660D03*
X1348740Y835660D03*
D14*
X1403045Y1185595D02*
X1413035Y1185595D01*
X1413035Y1176605D01*
X1403045Y1176605D01*
X1403045Y1185595D01*
X1403045Y1179013D02*
X1413035Y1179013D01*
X1413035Y1181421D02*
X1403045Y1181421D01*
X1403045Y1183829D02*
X1413035Y1183829D01*
X1396035Y1185595D02*
X1386045Y1185595D01*
X1396035Y1185595D02*
X1396035Y1176605D01*
X1386045Y1176605D01*
X1386045Y1185595D01*
X1386045Y1179013D02*
X1396035Y1179013D01*
X1396035Y1181421D02*
X1386045Y1181421D01*
X1386045Y1183829D02*
X1396035Y1183829D01*
X1274605Y1086535D02*
X1264615Y1086535D01*
X1274605Y1086535D02*
X1274605Y1077545D01*
X1264615Y1077545D01*
X1264615Y1086535D01*
X1264615Y1079953D02*
X1274605Y1079953D01*
X1274605Y1082361D02*
X1264615Y1082361D01*
X1264615Y1084769D02*
X1274605Y1084769D01*
X1257605Y1086535D02*
X1247615Y1086535D01*
X1257605Y1086535D02*
X1257605Y1077545D01*
X1247615Y1077545D01*
X1247615Y1086535D01*
X1247615Y1079953D02*
X1257605Y1079953D01*
X1257605Y1082361D02*
X1247615Y1082361D01*
X1247615Y1084769D02*
X1257605Y1084769D01*
D21*
X-26238Y1202690D03*
X1667078Y1202690D03*
D22*
X-35293Y63500D02*
X-35290Y63722D01*
X-35282Y63944D01*
X-35268Y64166D01*
X-35249Y64388D01*
X-35225Y64608D01*
X-35195Y64829D01*
X-35160Y65048D01*
X-35119Y65267D01*
X-35073Y65484D01*
X-35022Y65700D01*
X-34965Y65915D01*
X-34903Y66129D01*
X-34836Y66340D01*
X-34764Y66551D01*
X-34686Y66759D01*
X-34604Y66965D01*
X-34516Y67169D01*
X-34424Y67372D01*
X-34326Y67571D01*
X-34224Y67768D01*
X-34117Y67963D01*
X-34005Y68155D01*
X-33888Y68344D01*
X-33767Y68531D01*
X-33641Y68714D01*
X-33511Y68894D01*
X-33376Y69071D01*
X-33238Y69244D01*
X-33095Y69414D01*
X-32947Y69581D01*
X-32796Y69744D01*
X-32641Y69903D01*
X-32482Y70058D01*
X-32319Y70209D01*
X-32152Y70357D01*
X-31982Y70500D01*
X-31809Y70638D01*
X-31632Y70773D01*
X-31452Y70903D01*
X-31269Y71029D01*
X-31082Y71150D01*
X-30893Y71267D01*
X-30701Y71379D01*
X-30506Y71486D01*
X-30309Y71588D01*
X-30110Y71686D01*
X-29907Y71778D01*
X-29703Y71866D01*
X-29497Y71948D01*
X-29289Y72026D01*
X-29078Y72098D01*
X-28867Y72165D01*
X-28653Y72227D01*
X-28438Y72284D01*
X-28222Y72335D01*
X-28005Y72381D01*
X-27786Y72422D01*
X-27567Y72457D01*
X-27346Y72487D01*
X-27126Y72511D01*
X-26904Y72530D01*
X-26682Y72544D01*
X-26460Y72552D01*
X-26238Y72555D01*
X-26016Y72552D01*
X-25794Y72544D01*
X-25572Y72530D01*
X-25350Y72511D01*
X-25130Y72487D01*
X-24909Y72457D01*
X-24690Y72422D01*
X-24471Y72381D01*
X-24254Y72335D01*
X-24038Y72284D01*
X-23823Y72227D01*
X-23609Y72165D01*
X-23398Y72098D01*
X-23187Y72026D01*
X-22979Y71948D01*
X-22773Y71866D01*
X-22569Y71778D01*
X-22366Y71686D01*
X-22167Y71588D01*
X-21970Y71486D01*
X-21775Y71379D01*
X-21583Y71267D01*
X-21394Y71150D01*
X-21207Y71029D01*
X-21024Y70903D01*
X-20844Y70773D01*
X-20667Y70638D01*
X-20494Y70500D01*
X-20324Y70357D01*
X-20157Y70209D01*
X-19994Y70058D01*
X-19835Y69903D01*
X-19680Y69744D01*
X-19529Y69581D01*
X-19381Y69414D01*
X-19238Y69244D01*
X-19100Y69071D01*
X-18965Y68894D01*
X-18835Y68714D01*
X-18709Y68531D01*
X-18588Y68344D01*
X-18471Y68155D01*
X-18359Y67963D01*
X-18252Y67768D01*
X-18150Y67571D01*
X-18052Y67372D01*
X-17960Y67169D01*
X-17872Y66965D01*
X-17790Y66759D01*
X-17712Y66551D01*
X-17640Y66340D01*
X-17573Y66129D01*
X-17511Y65915D01*
X-17454Y65700D01*
X-17403Y65484D01*
X-17357Y65267D01*
X-17316Y65048D01*
X-17281Y64829D01*
X-17251Y64608D01*
X-17227Y64388D01*
X-17208Y64166D01*
X-17194Y63944D01*
X-17186Y63722D01*
X-17183Y63500D01*
X-17186Y63278D01*
X-17194Y63056D01*
X-17208Y62834D01*
X-17227Y62612D01*
X-17251Y62392D01*
X-17281Y62171D01*
X-17316Y61952D01*
X-17357Y61733D01*
X-17403Y61516D01*
X-17454Y61300D01*
X-17511Y61085D01*
X-17573Y60871D01*
X-17640Y60660D01*
X-17712Y60449D01*
X-17790Y60241D01*
X-17872Y60035D01*
X-17960Y59831D01*
X-18052Y59628D01*
X-18150Y59429D01*
X-18252Y59232D01*
X-18359Y59037D01*
X-18471Y58845D01*
X-18588Y58656D01*
X-18709Y58469D01*
X-18835Y58286D01*
X-18965Y58106D01*
X-19100Y57929D01*
X-19238Y57756D01*
X-19381Y57586D01*
X-19529Y57419D01*
X-19680Y57256D01*
X-19835Y57097D01*
X-19994Y56942D01*
X-20157Y56791D01*
X-20324Y56643D01*
X-20494Y56500D01*
X-20667Y56362D01*
X-20844Y56227D01*
X-21024Y56097D01*
X-21207Y55971D01*
X-21394Y55850D01*
X-21583Y55733D01*
X-21775Y55621D01*
X-21970Y55514D01*
X-22167Y55412D01*
X-22366Y55314D01*
X-22569Y55222D01*
X-22773Y55134D01*
X-22979Y55052D01*
X-23187Y54974D01*
X-23398Y54902D01*
X-23609Y54835D01*
X-23823Y54773D01*
X-24038Y54716D01*
X-24254Y54665D01*
X-24471Y54619D01*
X-24690Y54578D01*
X-24909Y54543D01*
X-25130Y54513D01*
X-25350Y54489D01*
X-25572Y54470D01*
X-25794Y54456D01*
X-26016Y54448D01*
X-26238Y54445D01*
X-26460Y54448D01*
X-26682Y54456D01*
X-26904Y54470D01*
X-27126Y54489D01*
X-27346Y54513D01*
X-27567Y54543D01*
X-27786Y54578D01*
X-28005Y54619D01*
X-28222Y54665D01*
X-28438Y54716D01*
X-28653Y54773D01*
X-28867Y54835D01*
X-29078Y54902D01*
X-29289Y54974D01*
X-29497Y55052D01*
X-29703Y55134D01*
X-29907Y55222D01*
X-30110Y55314D01*
X-30309Y55412D01*
X-30506Y55514D01*
X-30701Y55621D01*
X-30893Y55733D01*
X-31082Y55850D01*
X-31269Y55971D01*
X-31452Y56097D01*
X-31632Y56227D01*
X-31809Y56362D01*
X-31982Y56500D01*
X-32152Y56643D01*
X-32319Y56791D01*
X-32482Y56942D01*
X-32641Y57097D01*
X-32796Y57256D01*
X-32947Y57419D01*
X-33095Y57586D01*
X-33238Y57756D01*
X-33376Y57929D01*
X-33511Y58106D01*
X-33641Y58286D01*
X-33767Y58469D01*
X-33888Y58656D01*
X-34005Y58845D01*
X-34117Y59037D01*
X-34224Y59232D01*
X-34326Y59429D01*
X-34424Y59628D01*
X-34516Y59831D01*
X-34604Y60035D01*
X-34686Y60241D01*
X-34764Y60449D01*
X-34836Y60660D01*
X-34903Y60871D01*
X-34965Y61085D01*
X-35022Y61300D01*
X-35073Y61516D01*
X-35119Y61733D01*
X-35160Y61952D01*
X-35195Y62171D01*
X-35225Y62392D01*
X-35249Y62612D01*
X-35268Y62834D01*
X-35282Y63056D01*
X-35290Y63278D01*
X-35293Y63500D01*
D23*
X-26238Y63500D03*
M02*
