M48
;GenerationSoftware,Autodesk,EAGLE,9.6.2*%
;CreationDate,2023-02-14T21:36:48Z*%
FMAT,2
ICI,OFF
METRIC,TZ,000.000
T3C0.381
T2C1.016
T1C3.302
%
G90
M71
T1
X120396Y79248
X38100Y2540
X2540Y38100
X38100Y38100
X2540Y2540
X79248Y2540
X43688Y38100
X79248Y38100
X43688Y2540
X120396Y2540
X84836Y38100
X120396Y38100
X84836Y2540
X161544Y2540
X125984Y38100
X161544Y38100
X125984Y2540
X38100Y43688
X2540Y79248
X38100Y79248
X2540Y43688
X79248Y43688
X43688Y79248
X79248Y79248
X43688Y43688
X120396Y43688
X84836Y79248
X125984Y84836
X84836Y43688
X161544Y43688
X125984Y79248
X161544Y79248
X125984Y43688
X38100Y84836
X2540Y120396
X38100Y120396
X2540Y84836
X79248Y84836
X43688Y120396
X79248Y120396
X43688Y84836
X120396Y84836
X84836Y120396
X120396Y120396
X84836Y84836
X161544Y84836
X125984Y120396
X161544Y120396
T2
X134874Y83566
X13970Y39370
X16510Y39370
X19050Y39370
X21590Y39370
X24130Y39370
X26670Y39370
X29210Y1270
X26670Y1270
X24130Y1270
X21590Y1270
X19050Y1270
X16510Y1270
X13970Y1270
X11430Y1270
X55118Y39370
X57658Y39370
X60198Y39370
X62738Y39370
X65278Y39370
X67818Y39370
X70358Y1270
X67818Y1270
X65278Y1270
X62738Y1270
X60198Y1270
X57658Y1270
X55118Y1270
X52578Y1270
X96266Y39370
X98806Y39370
X101346Y39370
X103886Y39370
X106426Y39370
X108966Y39370
X111506Y1270
X108966Y1270
X106426Y1270
X103886Y1270
X101346Y1270
X98806Y1270
X96266Y1270
X93726Y1270
X137414Y39370
X139954Y39370
X142494Y39370
X145034Y39370
X147574Y39370
X150114Y39370
X152654Y1270
X150114Y1270
X147574Y1270
X145034Y1270
X142494Y1270
X139954Y1270
X137414Y1270
X134874Y1270
X13970Y80518
X16510Y80518
X19050Y80518
X21590Y80518
X24130Y80518
X26670Y80518
X29210Y42418
X26670Y42418
X24130Y42418
X21590Y42418
X19050Y42418
X16510Y42418
X13970Y42418
X11430Y42418
X55118Y80518
X57658Y80518
X60198Y80518
X62738Y80518
X65278Y80518
X67818Y80518
X70358Y42418
X67818Y42418
X65278Y42418
X62738Y42418
X60198Y42418
X57658Y42418
X55118Y42418
X52578Y42418
X96266Y80518
X98806Y80518
X101346Y80518
X103886Y80518
X106426Y80518
X108966Y80518
X111506Y42418
X108966Y42418
X106426Y42418
X103886Y42418
X101346Y42418
X98806Y42418
X96266Y42418
X93726Y42418
X137414Y80518
X139954Y80518
X142494Y80518
X145034Y80518
X147574Y80518
X150114Y80518
X152654Y42418
X150114Y42418
X147574Y42418
X145034Y42418
X142494Y42418
X139954Y42418
X137414Y42418
X134874Y42418
X13970Y121666
X16510Y121666
X19050Y121666
X21590Y121666
X24130Y121666
X26670Y121666
X29210Y83566
X26670Y83566
X24130Y83566
X21590Y83566
X19050Y83566
X16510Y83566
X13970Y83566
X11430Y83566
X55118Y121666
X57658Y121666
X60198Y121666
X62738Y121666
X65278Y121666
X67818Y121666
X70358Y83566
X67818Y83566
X65278Y83566
X62738Y83566
X60198Y83566
X57658Y83566
X55118Y83566
X52578Y83566
X96266Y121666
X98806Y121666
X101346Y121666
X103886Y121666
X106426Y121666
X108966Y121666
X111506Y83566
X108966Y83566
X106426Y83566
X103886Y83566
X101346Y83566
X98806Y83566
X96266Y83566
X93726Y83566
X137414Y121666
X139954Y121666
X142494Y121666
X145034Y121666
X147574Y121666
X150114Y121666
X152654Y83566
X150114Y83566
X147574Y83566
X145034Y83566
X142494Y83566
X139954Y83566
X137414Y83566
T3
X58928Y16510
X60198Y17526
X60198Y15494
X61468Y16510
X62738Y15494
X61468Y18415
X62738Y17526
X64008Y16510
X64008Y18415
X65278Y17526
X66294Y18415
X65278Y23114
X64008Y22225
X62738Y23114
X64008Y24130
X62738Y25146
X61468Y24130
X60198Y25146
X60198Y23114
X61468Y22225
X58928Y22225
X57658Y23114
X72898Y8128
X47752Y18796
X76708Y22860
X70358Y6350
X72555Y11849
X47752Y19812
X75438Y20828
X67818Y7290
X80772Y8992
X80772Y13538
X52324Y35560
X52311Y34531
X42164Y9398
X42164Y11938
X120396Y19812
X85852Y20828
X88900Y20828
X100838Y33274
X90907Y22225
X92202Y33274
X86233Y35052
X86233Y31496
X98806Y29718
X97028Y27432
X97790Y24130
X95504Y25908
X93218Y24130
X106426Y29718
X108204Y27432
X106426Y25146
X107442Y24130
X109728Y25908
X112014Y24130
X93218Y18415
X97790Y18415
X97790Y16510
X98806Y15494
X97028Y13208
X98806Y10922
X95504Y14732
X93218Y16510
X106426Y10922
X108204Y13208
X106426Y15494
X107442Y16510
X109728Y14732
X112014Y16510
X119380Y18796
X85852Y21844
X115316Y3810
X83312Y10668
X83312Y5080
X87122Y1016
X91440Y1270
X87630Y5842
X88900Y7366
X91440Y4826
X94742Y6604
X89408Y12192
X100330Y5080
X102108Y3556
X103886Y5080
X105664Y3556
X107442Y5080
X107950Y8128
X100584Y8382
X97282Y9144
X90932Y15494
X90932Y19304
X91948Y23368
X84074Y24638
X84074Y27178
X88900Y24638
X88900Y21844
X88900Y27178
X83312Y35560
X87376Y39624
X93726Y36576
X94488Y34544
X90932Y33528
X92456Y32004
X97917Y37084
X97917Y34544
X102616Y34290
X108966Y36068
X112268Y36068
X116078Y36068
X118110Y39624
X121920Y35560
X114300Y32004
X118364Y31242
X116332Y27432
X113411Y22606
X117856Y23876
X115570Y20828
X114046Y10922
X112776Y6350
X117856Y1016
X121920Y5080
X96520Y5080
X110236Y5080
X110236Y2540
X98806Y17526
X100076Y18415
X100076Y16510
X101346Y17526
X101346Y15494
X102616Y16510
X103886Y15494
X102616Y18415
X103886Y17526
X105156Y16510
X105156Y18415
X106426Y17526
X107442Y18415
X106426Y23114
X105156Y22225
X103886Y23114
X105156Y24130
X103886Y25146
X102616Y24130
X101346Y25146
X101346Y23114
X102616Y22225
X100076Y22225
X98806Y23114
X114046Y8128
X88900Y18796
X117856Y22860
X111506Y6350
X113703Y11849
X88900Y19812
X116586Y20828
X108966Y7290
X121920Y8992
X121920Y13538
X93472Y35560
X93459Y34531
X83312Y9398
X83312Y11938
X161544Y19812
X127000Y20828
X130048Y20828
X141986Y33274
X132055Y22225
X133350Y33274
X127381Y35052
X127381Y31496
X139954Y29718
X138176Y27432
X138938Y24130
X136652Y25908
X134366Y24130
X147574Y29718
X149352Y27432
X147574Y25146
X148590Y24130
X150876Y25908
X153162Y24130
X134366Y18415
X138938Y18415
X138938Y16510
X139954Y15494
X138176Y13208
X139954Y10922
X136652Y14732
X134366Y16510
X147574Y10922
X149352Y13208
X147574Y15494
X148590Y16510
X150876Y14732
X153162Y16510
X160528Y18796
X127000Y21844
X156464Y3810
X124460Y10668
X124460Y5080
X128270Y1016
X132588Y1270
X128778Y5842
X130048Y7366
X132588Y4826
X135890Y6604
X130556Y12192
X141478Y5080
X143256Y3556
X145034Y5080
X146812Y3556
X148590Y5080
X149098Y8128
X141732Y8382
X138430Y9144
X132080Y15494
X132080Y19304
X133096Y23368
X125222Y24638
X125222Y27178
X130048Y24638
X130048Y21844
X130048Y27178
X124460Y35560
X128524Y39624
X134874Y36576
X135636Y34544
X132080Y33528
X133604Y32004
X139065Y37084
X139065Y34544
X143764Y34290
X150114Y36068
X153416Y36068
X157226Y36068
X159258Y39624
X163068Y35560
X155448Y32004
X159512Y31242
X157480Y27432
X154559Y22606
X159004Y23876
X156718Y20828
X155194Y10922
X153924Y6350
X159004Y1016
X163068Y5080
X137668Y5080
X151384Y5080
X151384Y2540
X139954Y17526
X141224Y18415
X141224Y16510
X142494Y17526
X142494Y15494
X143764Y16510
X145034Y15494
X143764Y18415
X145034Y17526
X146304Y16510
X146304Y18415
X147574Y17526
X148590Y18415
X147574Y23114
X146304Y22225
X145034Y23114
X146304Y24130
X145034Y25146
X143764Y24130
X142494Y25146
X142494Y23114
X143764Y22225
X141224Y22225
X139954Y23114
X155194Y8128
X130048Y18796
X159004Y22860
X152654Y6350
X154851Y11849
X130048Y19812
X157734Y20828
X150114Y7290
X163068Y8992
X163068Y13538
X134620Y35560
X134607Y34531
X124460Y9398
X124460Y11938
X38100Y60960
X3556Y61976
X6604Y61976
X18542Y74422
X8611Y63373
X9906Y74422
X3937Y76200
X3937Y72644
X16510Y70866
X14732Y68580
X15494Y65278
X13208Y67056
X10922Y65278
X24130Y70866
X25908Y68580
X24130Y66294
X25146Y65278
X27432Y67056
X29718Y65278
X10922Y59563
X15494Y59563
X15494Y57658
X16510Y56642
X14732Y54356
X16510Y52070
X13208Y55880
X10922Y57658
X24130Y52070
X25908Y54356
X24130Y56642
X25146Y57658
X27432Y55880
X29718Y57658
X37084Y59944
X3556Y62992
X33020Y44958
X1016Y51816
X1016Y46228
X4826Y42164
X9144Y42418
X5334Y46990
X6604Y48514
X9144Y45974
X12446Y47752
X7112Y53340
X18034Y46228
X19812Y44704
X21590Y46228
X23368Y44704
X25146Y46228
X25654Y49276
X18288Y49530
X14986Y50292
X8636Y56642
X8636Y60452
X9652Y64516
X1778Y65786
X1778Y68326
X6604Y65786
X6604Y62992
X6604Y68326
X1016Y76708
X5080Y80772
X11430Y77724
X12192Y75692
X8636Y74676
X10160Y73152
X15621Y78232
X15621Y75692
X20320Y75438
X26670Y77216
X29972Y77216
X33782Y77216
X35814Y80772
X39624Y76708
X32004Y73152
X36068Y72390
X34036Y68580
X31115Y63754
X35560Y65024
X33274Y61976
X31750Y52070
X30480Y47498
X35560Y42164
X39624Y46228
X14224Y46228
X27940Y46228
X27940Y43688
X16510Y58674
X17780Y59563
X17780Y57658
X19050Y58674
X19050Y56642
X20320Y57658
X21590Y56642
X20320Y59563
X21590Y58674
X22860Y57658
X22860Y59563
X24130Y58674
X25146Y59563
X24130Y64262
X22860Y63373
X21590Y64262
X22860Y65278
X21590Y66294
X20320Y65278
X19050Y66294
X19050Y64262
X20320Y63373
X17780Y63373
X16510Y64262
X31750Y49276
X6604Y59944
X35560Y64008
X29210Y47498
X31407Y52997
X6604Y60960
X34290Y61976
X26670Y48438
X39624Y50140
X39624Y54686
X11176Y76708
X11163Y75679
X1016Y50546
X1016Y53086
X79248Y60960
X44704Y61976
X47752Y61976
X59690Y74422
X49759Y63373
X51054Y74422
X45085Y76200
X45085Y72644
X57658Y70866
X55880Y68580
X56642Y65278
X54356Y67056
X52070Y65278
X65278Y70866
X67056Y68580
X65278Y66294
X66294Y65278
X68580Y67056
X70866Y65278
X52070Y59563
X56642Y59563
X56642Y57658
X57658Y56642
X55880Y54356
X57658Y52070
X54356Y55880
X52070Y57658
X65278Y52070
X67056Y54356
X65278Y56642
X66294Y57658
X68580Y55880
X70866Y57658
X78232Y59944
X44704Y62992
X74168Y44958
X42164Y51816
X42164Y46228
X45974Y42164
X50292Y42418
X46482Y46990
X47752Y48514
X50292Y45974
X53594Y47752
X48260Y53340
X59182Y46228
X60960Y44704
X62738Y46228
X64516Y44704
X66294Y46228
X66802Y49276
X59436Y49530
X56134Y50292
X49784Y56642
X49784Y60452
X50800Y64516
X42926Y65786
X42926Y68326
X47752Y65786
X47752Y62992
X47752Y68326
X42164Y76708
X46228Y80772
X52578Y77724
X53340Y75692
X49784Y74676
X51308Y73152
X56769Y78232
X56769Y75692
X61468Y75438
X67818Y77216
X71120Y77216
X74930Y77216
X76962Y80772
X80772Y76708
X73152Y73152
X77216Y72390
X75184Y68580
X72263Y63754
X76708Y65024
X74422Y61976
X72898Y52070
X71628Y47498
X76708Y42164
X80772Y46228
X55372Y46228
X69088Y46228
X69088Y43688
X57658Y58674
X58928Y59563
X58928Y57658
X60198Y58674
X60198Y56642
X61468Y57658
X62738Y56642
X61468Y59563
X62738Y58674
X64008Y57658
X64008Y59563
X65278Y58674
X66294Y59563
X65278Y64262
X64008Y63373
X62738Y64262
X64008Y65278
X62738Y66294
X61468Y65278
X60198Y66294
X60198Y64262
X61468Y63373
X58928Y63373
X57658Y64262
X72898Y49276
X47752Y59944
X76708Y64008
X70358Y47498
X72555Y52997
X47752Y60960
X75438Y61976
X67818Y48438
X80772Y50140
X80772Y54686
X52324Y76708
X52311Y75679
X42164Y50546
X42164Y53086
X120396Y60960
X85852Y61976
X88900Y61976
X100838Y74422
X90907Y63373
X92202Y74422
X86233Y76200
X86233Y72644
X98806Y70866
X97028Y68580
X97790Y65278
X95504Y67056
X93218Y65278
X106426Y70866
X108204Y68580
X106426Y66294
X107442Y65278
X109728Y67056
X112014Y65278
X93218Y59563
X97790Y59563
X97790Y57658
X98806Y56642
X97028Y54356
X98806Y52070
X95504Y55880
X93218Y57658
X106426Y52070
X108204Y54356
X106426Y56642
X107442Y57658
X109728Y55880
X112014Y57658
X119380Y59944
X85852Y62992
X115316Y44958
X83312Y51816
X83312Y46228
X87122Y42164
X91440Y42418
X87630Y46990
X88900Y48514
X91440Y45974
X94742Y47752
X89408Y53340
X100330Y46228
X102108Y44704
X103886Y46228
X105664Y44704
X107442Y46228
X107950Y49276
X100584Y49530
X97282Y50292
X90932Y56642
X90932Y60452
X91948Y64516
X84074Y65786
X84074Y68326
X88900Y65786
X88900Y62992
X88900Y68326
X83312Y76708
X87376Y80772
X93726Y77724
X94488Y75692
X90932Y74676
X92456Y73152
X97917Y78232
X97917Y75692
X102616Y75438
X108966Y77216
X112268Y77216
X116078Y77216
X118110Y80772
X121920Y76708
X114300Y73152
X118364Y72390
X116332Y68580
X113411Y63754
X117856Y65024
X115570Y61976
X114046Y52070
X112776Y47498
X117856Y42164
X121920Y46228
X96520Y46228
X110236Y46228
X110236Y43688
X98806Y58674
X100076Y59563
X100076Y57658
X101346Y58674
X101346Y56642
X102616Y57658
X103886Y56642
X102616Y59563
X103886Y58674
X105156Y57658
X105156Y59563
X106426Y58674
X107442Y59563
X106426Y64262
X105156Y63373
X103886Y64262
X105156Y65278
X103886Y66294
X102616Y65278
X101346Y66294
X101346Y64262
X102616Y63373
X100076Y63373
X98806Y64262
X114046Y49276
X88900Y59944
X117856Y64008
X111506Y47498
X113703Y52997
X88900Y60960
X116586Y61976
X108966Y48438
X121920Y50140
X121920Y54686
X93472Y76708
X93459Y75679
X83312Y50546
X83312Y53086
X161544Y60960
X127000Y61976
X130048Y61976
X141986Y74422
X132055Y63373
X133350Y74422
X127381Y76200
X127381Y72644
X139954Y70866
X138176Y68580
X138938Y65278
X136652Y67056
X134366Y65278
X147574Y70866
X149352Y68580
X147574Y66294
X148590Y65278
X150876Y67056
X153162Y65278
X134366Y59563
X138938Y59563
X138938Y57658
X139954Y56642
X138176Y54356
X139954Y52070
X136652Y55880
X134366Y57658
X147574Y52070
X149352Y54356
X147574Y56642
X148590Y57658
X150876Y55880
X153162Y57658
X160528Y59944
X127000Y62992
X156464Y44958
X124460Y51816
X124460Y46228
X128270Y42164
X132588Y42418
X128778Y46990
X130048Y48514
X132588Y45974
X135890Y47752
X130556Y53340
X141478Y46228
X143256Y44704
X145034Y46228
X146812Y44704
X148590Y46228
X149098Y49276
X141732Y49530
X138430Y50292
X132080Y56642
X132080Y60452
X133096Y64516
X125222Y65786
X125222Y68326
X130048Y65786
X130048Y62992
X130048Y68326
X124460Y76708
X128524Y80772
X134874Y77724
X135636Y75692
X132080Y74676
X133604Y73152
X139065Y78232
X139065Y75692
X143764Y75438
X150114Y77216
X153416Y77216
X157226Y77216
X159258Y80772
X163068Y76708
X155448Y73152
X159512Y72390
X157480Y68580
X154559Y63754
X159004Y65024
X156718Y61976
X155194Y52070
X153924Y47498
X159004Y42164
X163068Y46228
X137668Y46228
X151384Y46228
X151384Y43688
X139954Y58674
X141224Y59563
X141224Y57658
X142494Y58674
X142494Y56642
X143764Y57658
X145034Y56642
X143764Y59563
X145034Y58674
X146304Y57658
X146304Y59563
X147574Y58674
X148590Y59563
X147574Y64262
X146304Y63373
X145034Y64262
X146304Y65278
X145034Y66294
X143764Y65278
X142494Y66294
X142494Y64262
X143764Y63373
X141224Y63373
X139954Y64262
X155194Y49276
X130048Y59944
X159004Y64008
X152654Y47498
X154851Y52997
X130048Y60960
X157734Y61976
X150114Y48438
X163068Y50140
X163068Y54686
X134620Y76708
X134607Y75679
X124460Y50546
X124460Y53086
X38100Y102108
X3556Y103124
X6604Y103124
X18542Y115570
X8611Y104521
X9906Y115570
X3937Y117348
X3937Y113792
X16510Y112014
X14732Y109728
X15494Y106426
X13208Y108204
X10922Y106426
X24130Y112014
X25908Y109728
X24130Y107442
X25146Y106426
X27432Y108204
X29718Y106426
X10922Y100711
X15494Y100711
X15494Y98806
X16510Y97790
X14732Y95504
X16510Y93218
X13208Y97028
X10922Y98806
X24130Y93218
X25908Y95504
X24130Y97790
X25146Y98806
X27432Y97028
X29718Y98806
X37084Y101092
X3556Y104140
X33020Y86106
X1016Y92964
X1016Y87376
X4826Y83312
X9144Y83566
X5334Y88138
X6604Y89662
X9144Y87122
X12446Y88900
X7112Y94488
X18034Y87376
X19812Y85852
X21590Y87376
X23368Y85852
X25146Y87376
X25654Y90424
X18288Y90678
X14986Y91440
X8636Y97790
X8636Y101600
X9652Y105664
X1778Y106934
X1778Y109474
X6604Y106934
X6604Y104140
X6604Y109474
X1016Y117856
X5080Y121920
X11430Y118872
X12192Y116840
X8636Y115824
X10160Y114300
X15621Y119380
X15621Y116840
X20320Y116586
X26670Y118364
X29972Y118364
X33782Y118364
X35814Y121920
X39624Y117856
X32004Y114300
X36068Y113538
X34036Y109728
X31115Y104902
X35560Y106172
X33274Y103124
X31750Y93218
X30480Y88646
X35560Y83312
X39624Y87376
X14224Y87376
X27940Y87376
X27940Y84836
X16510Y99822
X17780Y100711
X17780Y98806
X19050Y99822
X19050Y97790
X20320Y98806
X21590Y97790
X20320Y100711
X21590Y99822
X22860Y98806
X22860Y100711
X24130Y99822
X25146Y100711
X24130Y105410
X22860Y104521
X21590Y105410
X22860Y106426
X21590Y107442
X20320Y106426
X19050Y107442
X19050Y105410
X20320Y104521
X17780Y104521
X16510Y105410
X31750Y90424
X6604Y101092
X35560Y105156
X29210Y88646
X31407Y94145
X6604Y102108
X34290Y103124
X26670Y89586
X39624Y91288
X39624Y95834
X11176Y117856
X11163Y116827
X1016Y91694
X1016Y94234
X79248Y102108
X44704Y103124
X47752Y103124
X59690Y115570
X49759Y104521
X51054Y115570
X45085Y117348
X45085Y113792
X57658Y112014
X55880Y109728
X56642Y106426
X54356Y108204
X52070Y106426
X65278Y112014
X67056Y109728
X65278Y107442
X66294Y106426
X68580Y108204
X70866Y106426
X52070Y100711
X56642Y100711
X56642Y98806
X57658Y97790
X55880Y95504
X57658Y93218
X54356Y97028
X52070Y98806
X65278Y93218
X67056Y95504
X65278Y97790
X66294Y98806
X68580Y97028
X70866Y98806
X78232Y101092
X44704Y104140
X74168Y86106
X42164Y92964
X42164Y87376
X45974Y83312
X50292Y83566
X46482Y88138
X47752Y89662
X50292Y87122
X53594Y88900
X48260Y94488
X59182Y87376
X60960Y85852
X62738Y87376
X64516Y85852
X66294Y87376
X66802Y90424
X59436Y90678
X56134Y91440
X49784Y97790
X49784Y101600
X50800Y105664
X42926Y106934
X42926Y109474
X47752Y106934
X47752Y104140
X47752Y109474
X42164Y117856
X46228Y121920
X52578Y118872
X53340Y116840
X49784Y115824
X51308Y114300
X56769Y119380
X56769Y116840
X61468Y116586
X67818Y118364
X71120Y118364
X74930Y118364
X76962Y121920
X80772Y117856
X73152Y114300
X77216Y113538
X75184Y109728
X72263Y104902
X76708Y106172
X74422Y103124
X72898Y93218
X71628Y88646
X76708Y83312
X80772Y87376
X55372Y87376
X69088Y87376
X69088Y84836
X57658Y99822
X58928Y100711
X58928Y98806
X60198Y99822
X60198Y97790
X61468Y98806
X62738Y97790
X61468Y100711
X62738Y99822
X64008Y98806
X64008Y100711
X65278Y99822
X66294Y100711
X65278Y105410
X64008Y104521
X62738Y105410
X64008Y106426
X62738Y107442
X61468Y106426
X60198Y107442
X60198Y105410
X61468Y104521
X58928Y104521
X57658Y105410
X72898Y90424
X47752Y101092
X76708Y105156
X70358Y88646
X72555Y94145
X47752Y102108
X75438Y103124
X67818Y89586
X80772Y91288
X80772Y95834
X52324Y117856
X52311Y116827
X42164Y91694
X42164Y94234
X120396Y102108
X85852Y103124
X88900Y103124
X100838Y115570
X90907Y104521
X92202Y115570
X86233Y117348
X86233Y113792
X98806Y112014
X97028Y109728
X97790Y106426
X95504Y108204
X93218Y106426
X106426Y112014
X108204Y109728
X106426Y107442
X107442Y106426
X109728Y108204
X112014Y106426
X93218Y100711
X97790Y100711
X97790Y98806
X98806Y97790
X97028Y95504
X98806Y93218
X95504Y97028
X93218Y98806
X106426Y93218
X108204Y95504
X106426Y97790
X107442Y98806
X109728Y97028
X112014Y98806
X119380Y101092
X85852Y104140
X38100Y19812
X83312Y92964
X83312Y87376
X87122Y83312
X91440Y83566
X87630Y88138
X88900Y89662
X91440Y87122
X94742Y88900
X89408Y94488
X100330Y87376
X102108Y85852
X103886Y87376
X105664Y85852
X107442Y87376
X107950Y90424
X100584Y90678
X97282Y91440
X90932Y97790
X90932Y101600
X91948Y105664
X84074Y106934
X84074Y109474
X88900Y106934
X88900Y104140
X88900Y109474
X83312Y117856
X87376Y121920
X93726Y118872
X94488Y116840
X90932Y115824
X92456Y114300
X97917Y119380
X97917Y116840
X102616Y116586
X108966Y118364
X112268Y118364
X116078Y118364
X118110Y121920
X121920Y117856
X114300Y114300
X118364Y113538
X116332Y109728
X113411Y104902
X117856Y106172
X115570Y103124
X114046Y93218
X112776Y88646
X117856Y83312
X121920Y87376
X96520Y87376
X110236Y87376
X110236Y84836
X98806Y99822
X100076Y100711
X100076Y98806
X101346Y99822
X101346Y97790
X102616Y98806
X103886Y97790
X102616Y100711
X103886Y99822
X105156Y98806
X105156Y100711
X106426Y99822
X107442Y100711
X106426Y105410
X105156Y104521
X103886Y105410
X105156Y106426
X103886Y107442
X102616Y106426
X101346Y107442
X101346Y105410
X102616Y104521
X100076Y104521
X98806Y105410
X114046Y90424
X88900Y101092
X117856Y105156
X111506Y88646
X113703Y94145
X88900Y102108
X116586Y103124
X108966Y89586
X121920Y91288
X121920Y95834
X93472Y117856
X93459Y116827
X83312Y91694
X83312Y94234
X161544Y102108
X127000Y103124
X130048Y103124
X141986Y115570
X132055Y104521
X133350Y115570
X127381Y117348
X127381Y113792
X139954Y112014
X138176Y109728
X138938Y106426
X136652Y108204
X134366Y106426
X147574Y112014
X149352Y109728
X147574Y107442
X148590Y106426
X150876Y108204
X153162Y106426
X134366Y100711
X138938Y100711
X138938Y98806
X139954Y97790
X138176Y95504
X139954Y93218
X136652Y97028
X134366Y98806
X147574Y93218
X149352Y95504
X147574Y97790
X148590Y98806
X150876Y97028
X153162Y98806
X160528Y101092
X127000Y104140
X156464Y86106
X124460Y92964
X124460Y87376
X128270Y83312
X132588Y83566
X128778Y88138
X130048Y89662
X132588Y87122
X135890Y88900
X130556Y94488
X141478Y87376
X143256Y85852
X145034Y87376
X146812Y85852
X148590Y87376
X149098Y90424
X141732Y90678
X138430Y91440
X132080Y97790
X132080Y101600
X133096Y105664
X125222Y106934
X125222Y109474
X130048Y106934
X130048Y104140
X130048Y109474
X124460Y117856
X128524Y121920
X134874Y118872
X135636Y116840
X132080Y115824
X133604Y114300
X139065Y119380
X139065Y116840
X143764Y116586
X150114Y118364
X153416Y118364
X157226Y118364
X159258Y121920
X163068Y117856
X155448Y114300
X159512Y113538
X157480Y109728
X154559Y104902
X159004Y106172
X156718Y103124
X155194Y93218
X153924Y88646
X159004Y83312
X163068Y87376
X137668Y87376
X151384Y87376
X151384Y84836
X139954Y99822
X141224Y100711
X141224Y98806
X142494Y99822
X142494Y97790
X143764Y98806
X145034Y97790
X143764Y100711
X145034Y99822
X146304Y98806
X146304Y100711
X147574Y99822
X148590Y100711
X147574Y105410
X146304Y104521
X145034Y105410
X146304Y106426
X145034Y107442
X143764Y106426
X142494Y107442
X142494Y105410
X143764Y104521
X141224Y104521
X139954Y105410
X155194Y90424
X130048Y101092
X159004Y105156
X152654Y88646
X154851Y94145
X130048Y102108
X157734Y103124
X150114Y89586
X163068Y91288
X163068Y95834
X134620Y117856
X134607Y116827
X124460Y91694
X115316Y86106
X3556Y20828
X6604Y20828
X18542Y33274
X8611Y22225
X9906Y33274
X3937Y35052
X3937Y31496
X16510Y29718
X14732Y27432
X15494Y24130
X13208Y25908
X10922Y24130
X24130Y29718
X25908Y27432
X24130Y25146
X25146Y24130
X27432Y25908
X29718Y24130
X10922Y18415
X15494Y18415
X15494Y16510
X16510Y15494
X14732Y13208
X16510Y10922
X13208Y14732
X10922Y16510
X24130Y10922
X25908Y13208
X24130Y15494
X25146Y16510
X27432Y14732
X29718Y16510
X37084Y18796
X3556Y21844
X33020Y3810
X1016Y10668
X1016Y5080
X4826Y1016
X9144Y1270
X5334Y5842
X6604Y7366
X9144Y4826
X12446Y6604
X7112Y12192
X18034Y5080
X19812Y3556
X21590Y5080
X23368Y3556
X25146Y5080
X25654Y8128
X18288Y8382
X14986Y9144
X8636Y15494
X8636Y19304
X9652Y23368
X1778Y24638
X1778Y27178
X6604Y24638
X6604Y21844
X6604Y27178
X1016Y35560
X5080Y39624
X11430Y36576
X12192Y34544
X8636Y33528
X10160Y32004
X15621Y37084
X15621Y34544
X20320Y34290
X26670Y36068
X29972Y36068
X33782Y36068
X35814Y39624
X39624Y35560
X32004Y32004
X36068Y31242
X34036Y27432
X31115Y22606
X35560Y23876
X33274Y20828
X31750Y10922
X30480Y6350
X35560Y1016
X39624Y5080
X14224Y5080
X27940Y5080
X27940Y2540
X16510Y17526
X17780Y18415
X17780Y16510
X19050Y17526
X19050Y15494
X20320Y16510
X21590Y15494
X20320Y18415
X21590Y17526
X22860Y16510
X22860Y18415
X24130Y17526
X25146Y18415
X24130Y23114
X22860Y22225
X21590Y23114
X22860Y24130
X21590Y25146
X20320Y24130
X19050Y25146
X19050Y23114
X20320Y22225
X17780Y22225
X16510Y23114
X31750Y8128
X6604Y18796
X35560Y22860
X29210Y6350
X31407Y11849
X6604Y19812
X34290Y20828
X26670Y7290
X39624Y8992
X39624Y13538
X11176Y35560
X11163Y34531
X1016Y9398
X1016Y11938
X79248Y19812
X44704Y20828
X47752Y20828
X59690Y33274
X49759Y22225
X51054Y33274
X45085Y35052
X45085Y31496
X57658Y29718
X55880Y27432
X56642Y24130
X54356Y25908
X52070Y24130
X65278Y29718
X67056Y27432
X65278Y25146
X66294Y24130
X68580Y25908
X70866Y24130
X52070Y18415
X56642Y18415
X56642Y16510
X57658Y15494
X55880Y13208
X57658Y10922
X54356Y14732
X52070Y16510
X65278Y10922
X67056Y13208
X65278Y15494
X66294Y16510
X68580Y14732
X70866Y16510
X78232Y18796
X44704Y21844
X74168Y3810
X42164Y10668
X42164Y5080
X45974Y1016
X50292Y1270
X46482Y5842
X47752Y7366
X50292Y4826
X53594Y6604
X48260Y12192
X59182Y5080
X60960Y3556
X62738Y5080
X64516Y3556
X66294Y5080
X66802Y8128
X59436Y8382
X56134Y9144
X49784Y15494
X49784Y19304
X50800Y23368
X42926Y24638
X42926Y27178
X47752Y24638
X47752Y21844
X47752Y27178
X42164Y35560
X46228Y39624
X52578Y36576
X53340Y34544
X49784Y33528
X51308Y32004
X56769Y37084
X56769Y34544
X61468Y34290
X67818Y36068
X71120Y36068
X74930Y36068
X76962Y39624
X80772Y35560
X73152Y32004
X77216Y31242
X75184Y27432
X72263Y22606
X76708Y23876
X74422Y20828
X72898Y10922
X71628Y6350
X76708Y1016
X80772Y5080
X55372Y5080
X69088Y5080
X69088Y2540
X57658Y17526
X58928Y18415
X124460Y94234
M30